<?xml version="1.0" encoding="UTF-8" standalone="no"?>
<!-- Created with Inkscape (http://www.inkscape.org/) -->

<svg
   width="512"
   height="512"
   viewBox="0 0 135.46666 135.46666"
   version="1.1"
   id="svg5"
   sodipodi:docname="Ash Icon.svg"
   inkscape:version="1.1 (c68e22c387, 2021-05-23)"
   xmlns:inkscape="http://www.inkscape.org/namespaces/inkscape"
   xmlns:sodipodi="http://sodipodi.sourceforge.net/DTD/sodipodi-0.dtd"
   xmlns="http://www.w3.org/2000/svg"
   xmlns:svg="http://www.w3.org/2000/svg">
  <sodipodi:namedview
     id="namedview7"
     pagecolor="#ffffff"
     bordercolor="#666666"
     borderopacity="1.0"
     inkscape:pageshadow="2"
     inkscape:pageopacity="0.0"
     inkscape:pagecheckerboard="0"
     inkscape:document-units="px"
     showgrid="false"
     units="px"
     width="512px"
     inkscape:zoom="0.91223345"
     inkscape:cx="167.17212"
     inkscape:cy="266.92729"
     inkscape:window-width="1366"
     inkscape:window-height="697"
     inkscape:window-x="-8"
     inkscape:window-y="-8"
     inkscape:window-maximized="1"
     inkscape:current-layer="layer1" />
  <defs
     id="defs2" />
  <g
     inkscape:label="Layer 1"
     inkscape:groupmode="layer"
     id="layer1">
    <path
       style="fill:#273839;fill-opacity:1;stroke-width:0.615108"
       d="m 38.520456,130.66734 c -7.42745,-4.228 -13.9227,-9.94482 -20.556668,-18.09297 C 12.3365,105.66266 8.9953037,98.368965 8.9953037,92.996545 c 0,-1.65114 1.5282963,-7.41089 3.9227703,-14.7839 2.157523,-6.64339 4.395316,-14.15487 4.972873,-16.69219 2.985705,-13.11677 7.660609,-27.52354 9.655249,-29.75484 0.34072,-0.38113 2.46492,-3.45148 4.72044,-6.82298 4.26168,-6.37026 9.61019,-11.52377 14.93542,-14.39088 16.85933,-9.0770498 21.44111,-9.4581798 34.77194,-2.8925098 9.41371,4.6364198 15.05002,9.2947598 19.944864,16.4841798 2.13406,3.13445 4.09353,5.8468 4.35439,6.02745 1.70661,1.18187 6.82176,16.18011 9.77378,28.65797 0.5911,11.482451 9.55114,23.566727 10.42416,34.273851 -0.54188,3.813613 -2.0367,6.743866 -2.82237,8.242354 -0.60725,3.47816 -12.45391,18.98807 -16.79904,21.99369 -0.97817,0.67663 -3.6737,2.58632 -5.99007,4.24376 -3.858144,2.76065 -8.209804,5.09747 -8.209804,4.40864 0,-0.15571 3.11821,-3.41185 6.92932,-7.23578 7.902444,-7.92895 10.939814,-11.48962 14.461684,-16.9531 4.4918,-6.96817 6.66246,-17.364255 5.05772,-24.223345 -1.63916,-7.00623 -9.31402,-24.33733 -12.11665,-27.36141 -2.82714,-3.05054 -7.525774,-11.73125 -9.117104,-16.84379 -2.78082,-8.93408 -7.70729,-15.91081 -13.26569,-18.78651 -9.29741,-4.81009 -28.9257,-4.13493 -36.59574,1.25881 -4.63613,3.26023 -9.77769,11.32762 -11.37177,17.84292 -0.41323,1.6889 -1.15848,3.90114 -1.65611,4.91606 -1.73348,3.53539 -7.08173,11.9946 -7.58345,11.9946 -0.87058,0 -8.435148,16.02088 -10.455657,22.14385 -3.2395,9.81706 -2.185818,19.30428 3.142534,28.294955 2.396852,4.04429 7.022713,9.98307 7.446623,9.56013 0.12676,-0.12641 1.68378,1.62305 3.46004,3.88777 1.77627,2.26473 5.02394,5.6322 7.21703,7.48327 5.33999,4.50715 5.47249,5.63204 0.31778,2.69777 z M 23.858925,57.522245 c 1.723641,-2.70647 3.391631,-5.08597 3.706641,-5.28778 1.52284,-0.97562 5.62158,-8.81029 7.04844,-13.47299 2.02086,-6.60379 4.28274,-11.10215 7.68685,-15.28739 4.92988,-6.06115 11.77474,-8.3571 24.82209,-8.32601 13.93787,0.0333 20.59454,2.22534 25.29089,8.32861 3.04248,3.95393 6.36514,10.75262 7.620304,15.59235 0.83391,3.21544 4.35641,10.115 6.0066,11.76519 1.15434,1.15432 7.51462,10.58794 7.54238,11.18693 0.0105,0.23207 0.45131,0.97555 0.97902,1.65217 0.90509,1.16053 0.94099,1.09084 0.63389,-1.23022 -1.03179,-7.79794 -7.21435,-28.00603 -8.93523,-29.20525 -0.25247,-0.17595 -1.21873,-1.6962 -2.14722,-3.37835 -5.572224,-10.09524 -11.472064,-15.4498 -23.765814,-21.5693198 -5.34318,-2.65968 -8.08345,-3.35211 -13.28229,-3.35619 -5.09376,-0.003 -9.61595,1.3795 -15.56604,4.76219 -2.23296,1.2694698 -4.33671,2.4175398 -4.67503,2.5512498 -2.0271,0.8013 -11.37948,9.04579 -11.37948,10.03147 0,0.26351 -0.98689,1.77202 -2.19308,3.35222 -1.20619,1.5802 -2.90329,4.28138 -3.77131,6.00262 -0.86804,1.72124 -1.8023,3.27411 -2.07615,3.45082 -1.08489,0.70003 -6.940449,20.4168 -7.942366,26.74345 -0.563736,3.55972 -0.692788,3.68609 4.396905,-4.30577 z m 37.968251,71.386725 c -7.63505,-4.30787 -14.08012,-10.14569 -14.08012,-12.75354 0,-0.61635 -0.23413,-1.12064 -0.52029,-1.12064 -0.71858,0 -2.96327,-7.95235 -3.81975,-13.53236 -0.38943,-2.537325 -1.29589,-5.858905 -2.01431,-7.381285 -2.73551,-5.79681 -1.19224,-16.46853 3.12325,-21.59719 1.57899,-1.87653 1.64297,-1.89255 6.71848,-1.68196 5.86209,0.24323 6.39869,-0.33115 3.5131,-3.76048 -2.6539,-3.15397 -4.78105,-3.92989 -9.42166,-3.4367 -2.22059,0.23598 -4.6541,0.43781 -5.40779,0.4485 -1.20489,0.0174 -1.2867,0.17856 -0.6775,1.33749 0.38107,0.72494 1.34917,2.10696 2.15134,3.07119 1.45762,1.75207 1.45778,1.75429 0.28536,3.69064 -0.64523,1.06564 -1.79704,3.67319 -2.55957,5.79457 -1.15739,3.2199 -1.33121,4.66251 -1.05224,8.73278 0.32318,4.71521 0.29469,4.85148 -0.86559,4.13933 -2.16741,-1.33027 -4.7357,-7.69079 -5.4994,-13.61961 -0.99571,-7.73011 0.39661,-17.38086 2.90564,-20.14007 1.23505,-1.35821 3.39808,-7.08348 6.46342,-17.10794 1.97562,-6.46074 6.30434,-10.36197 8.52651,-7.68442 0.42317,0.50988 2.04865,1.2989 3.61219,1.75334 l 2.84276,0.82628 0.40051,3.32128 c 0.22027,1.82671 0.42786,4.72168 0.46132,6.43328 0.0582,2.97612 0.20676,3.23798 3.40287,5.99729 3.19119,2.75508 3.51106,2.88532 7.08681,2.88532 3.68911,0 3.79483,-0.0485 7.11479,-3.26413 l 3.37001,-3.26413 v -5.91478 -5.91479 l 2.30666,-0.73776 c 1.26865,-0.40577 3.33189,-1.30143 4.58495,-1.99036 l 2.27831,-1.2526 2.79633,2.29141 c 1.53799,1.26026 2.79634,2.62657 2.79634,3.03627 0,2.16005 5.74236,18.39196 7.06086,19.95891 1.002574,1.19152 1.906414,3.62403 2.699114,7.26427 2.07509,9.52912 0.17464,21.75236 -4.078614,26.23279 -0.88317,0.93034 -1.79096,1.69155 -2.01728,1.69155 -0.22634,0 -0.13165,-1.41574 0.21052,-3.14607 0.81151,-4.10421 -0.16826,-9.44779 -2.66016,-14.50976 l -1.87857,-3.81593 1.86984,-2.5812 c 2.23736,-3.0886 2.26472,-3.28274 0.48584,-3.44758 -0.7612,-0.0706 -3.06653,-0.30797 -5.12296,-0.52763 -4.85286,-0.51836 -8.2612,1.04787 -10.09267,4.63787 -0.68118,1.3352 -1.23851,2.50992 -1.23851,2.61048 0,0.10061 2.18069,0.0839 4.84597,-0.0371 2.87516,-0.1306 5.37707,0.0642 6.1519,0.47885 1.10944,0.59375 4.37983,5.94214 4.37983,7.16275 0,0.21879 -0.8996,0.26285 -1.9991,0.0978 -1.09951,-0.16494 -4.07509,0.24132 -6.61241,0.90284 -4.6552,1.21371 -5.22959,1.18278 -10.36708,-0.55828 -0.55682,-0.18871 -0.18717,0.45382 0.82144,1.42786 1.71808,1.65918 2.15334,1.77097 6.89563,1.77097 6.65422,0 7.31043,0.5716 6.38753,5.564 -0.3641,1.96955 -0.65357,4.29134 -0.64327,5.15957 0.0296,2.49429 0.9333,0.35356 1.85632,-4.39716 0.62254,-3.20411 0.64022,-4.48659 0.0788,-5.71868 -0.39801,-0.87356 -0.72367,-1.85206 -0.72367,-2.17446 0,-1.07082 2.24626,-0.60608 3.85617,0.79783 2.84755,2.48316 2.76105,5.79981 -0.39705,15.22391 -0.51016,1.52238 -1.23537,4.567165 -1.61155,6.766175 -1.02413,5.98646 -3.61793,14.11846 -4.96415,15.56348 -0.65405,0.70201 -1.18916,1.44855 -1.18916,1.65896 0,0.2104 -2.80762,2.30001 -6.23915,4.64358 -6.12817,4.18525 -6.31691,4.26406 -10.61061,4.43094 -2.98517,0.11612 -4.88047,-0.11735 -5.97658,-0.73574 z m 10.80279,-15.81823 c 0.86169,-0.39261 1.58921,-0.877 1.61669,-1.07644 0.43819,-3.17942 0.26379,-3.80845 -0.9507,-3.42902 -4.97878,1.55549 -8.06305,1.54088 -12.22948,-0.0579 -0.49852,-0.19131 -0.74414,0.38271 -0.7304,1.70691 0.0157,1.49886 0.40321,2.18879 1.55845,2.77367 1.93273,0.97846 8.65587,1.03033 10.73544,0.0828 z m -2.62229,-7.74572 c 0.24327,-2.93856 1.69903,-3.23654 6.77318,-1.38641 3.56337,1.29927 5.41223,1.30732 5.41223,0.0235 0,-0.34893 -0.37479,-0.63443 -0.83286,-0.63443 -0.45804,0 -1.6003,-0.71125 -2.53831,-1.58058 -4.23524,-3.925085 -5.74526,-4.480175 -11.69897,-4.300645 -3.04479,0.0917 -5.75664,0.20706 -6.02634,0.25611 -0.26971,0.049 -1.75385,1.33475 -3.29808,2.857135 -1.54425,1.5224 -3.33037,2.76798 -3.96916,2.76798 -0.63879,0 -1.16144,0.2855 -1.16144,0.63442 0,1.2532 1.74435,1.258 5.4343,0.0157 5.37958,-1.81226 6.25064,-1.71006 6.26217,0.73464 0.0122,2.42818 0.52667,3.30934 2.14345,3.66571 2.09703,0.46222 3.29541,-0.58296 3.49983,-3.05243 z m -0.09346,-14.634955 c 0.43394,-0.52287 1.09062,-0.83765 1.4593,-0.69952 0.36869,0.13809 1.36234,0.44215 2.20811,0.67561 l 1.53776,0.42447 -1.45213,-1.26272 c -1.83091,-1.59211 -3.27846,-1.60212 -4.69893,-0.0326 -0.61234,0.67663 -1.44273,1.23022 -1.84533,1.23022 -0.40258,0 -1.23298,-0.55359 -1.84532,-1.23022 -1.40174,-1.5489 -2.25737,-1.54819 -4.08383,0.003 l -1.45214,1.23385 1.77798,-0.63611 c 1.37031,-0.49025 2.07549,-0.4279 3.07554,0.27194 1.71202,1.19807 4.33391,1.20886 5.31899,0.022 z m -6.20239,-21.50077 c 0.0422,-4.41669 -3.68406,-8.82186 -8.73673,-10.32863 -4.53641,-1.35282 -9.0733,-1.89712 -9.0733,-1.08854 0,0.35903 1.11608,0.65279 2.48018,0.65279 3.48229,0 6.3781,1.37306 9.78803,4.64101 3.43275,3.28983 4.62745,6.3583 3.71473,9.54085 -0.91008,3.17327 -0.68911,3.59607 0.62496,1.19582 0.64826,-1.18407 1.18921,-3.26007 1.20213,-4.6133 z m 9.13447,3.82276 c -0.52364,-1.70617 -0.51526,-2.86697 0.034,-4.7002 1.38814,-4.63326 7.96609,-9.77123 12.69591,-9.91667 1.01493,-0.0312 2.39892,-0.31305 3.07554,-0.6263 1.84567,-0.85451 -4.86023,-0.0649 -8.82384,1.03896 -5.94083,1.65457 -10.13514,7.55375 -8.76569,12.32873 0.64241,2.23997 1.90817,4.7125 2.24171,4.37896 0.13077,-0.13077 -0.0752,-1.25732 -0.45765,-2.50348 z m -14.29422,-3.76547 c 0.64249,-2.55986 -2.01221,-5.63938 -5.88409,-6.82568 -0.84578,-0.25913 -1.74114,-0.77985 -1.98969,-1.15713 -0.31892,-0.48411 -0.45468,-0.46214 -0.46133,0.0746 -0.005,0.41834 0.91291,1.14599 2.04019,1.61701 2.6276,1.09788 4.71657,3.75938 4.71657,6.00927 0,2.1414 1.06395,2.33141 1.57835,0.28189 z m 21.74498,-5.24957 c 0.97814,-0.69649 2.12782,-1.26636 2.55488,-1.26636 0.42705,0 0.61278,-0.16372 0.41273,-0.36371 -1.36564,-1.36563 -7.22261,3.38709 -7.22261,5.86089 0,2.8088 0.82304,2.70641 1.67287,-0.20812 0.51119,-1.75312 1.451,-3.21728 2.58213,-4.0227 z m -35.06164,-5.96429 c 0.577,-0.50185 -4.01559,-0.16059 -4.83761,0.35941 -0.57623,0.36456 0.0753,0.43993 1.84532,0.21351 1.5048,-0.1925 2.85134,-0.45031 2.99229,-0.57292 z m 47.86307,0.0206 c -0.20441,-0.20438 -0.73494,-0.22625 -1.17896,-0.0485 -0.49069,0.19637 -0.34494,0.34212 0.37161,0.37164 0.64843,0.0267 1.01173,-0.11874 0.80735,-0.32308 z m -3.15835,55.731315 c 0.24163,-0.84578 0.6423,-2.42878 0.89038,-3.51779 0.24808,-1.08899 1.56491,-3.24539 2.92628,-4.79199 1.96675,-2.23435 2.55963,-3.47027 2.88614,-6.016405 0.57955,-4.51953 1.45933,-7.69339 2.27171,-8.19546 0.48331,-0.2987 0.56267,0.0214 0.26031,1.05047 -0.23923,0.81409 -0.83786,3.69456 -1.33031,6.40103 -0.9827,5.400945 -3.53662,11.116275 -6.45926,14.455025 -1.69715,1.93878 -1.84087,1.99994 -1.44525,0.61512 z m -47.80221,-1.99911 c -2.76634,-3.75431 -4.16791,-7.17661 -5.16405,-12.609555 -0.48075,-2.62198 -1.05907,-5.45923 -1.28518,-6.30501 -0.30525,-1.14187 -0.22897,-1.36927 0.29632,-0.88327 0.38909,0.35998 1.11531,2.97437 1.61382,5.80976 0.77101,4.385325 1.21819,5.481835 2.99418,7.341905 1.14828,1.20265 2.36089,2.74024 2.69467,3.41687 0.74306,1.5063 1.5655,5.8435 1.10806,5.8435 -0.18234,0 -1.19838,-1.17638 -2.25782,-2.6142 z m 50.30037,-11.01507 c 0.25882,-2.369575 0.78785,-3.715105 1.89667,-4.823955 l 1.53772,-1.53776 -0.41524,1.84532 c -1.04601,4.648625 -1.651,6.369195 -2.4821,7.058945 -0.77207,0.64074 -0.84635,0.28904 -0.53705,-2.54255 z m -51.25414,1.88777 c -0.39568,-0.48129 -0.88007,-1.63472 -1.07644,-2.56318 -0.19634,-0.928455 -0.50067,-2.380105 -0.67627,-3.225875 -0.44346,-2.13591 0.70229,-1.9255 1.87618,0.34454 1.15324,2.23011 1.04803,6.869465 -0.12345,5.444515 z m 23.27307,-50.923265 c -1.04511,-0.6625 0.4204,-1.3064 2.97332,-1.3064 0.9596,0 2.20576,0.17693 2.76926,0.39315 1.53045,0.5873 -0.10409,1.43334 -2.76926,1.43334 -1.18407,0 -2.52208,-0.23405 -2.97332,-0.52009 z m -4.57006,-3.35737 c -1.58015,-1.2936 -1.7275,-1.81195 -2.09188,-7.35918 l -0.392,-5.96754 h 1.87496 c 1.81924,0 1.89462,0.1142 2.53702,3.84442 0.36415,2.11444 0.84588,5.43602 1.07051,7.3813 0.4664,4.03909 -0.12502,4.4535 -2.99861,2.101 z m 11.66338,0.97454 c -0.1421,-0.25373 0.18758,-3.50613 0.7326,-7.22752 l 0.99093,-6.76619 h 1.82537 1.82538 l -0.18268,5.53597 c -0.16477,4.99369 -0.33979,5.70166 -1.78667,7.22751 -1.57694,1.66301 -2.89572,2.13949 -3.40493,1.23023 z m -6.8567,-1.53778 c -0.16477,-0.76119 -0.60217,-3.59838 -0.97182,-6.30485 -0.36966,-2.70647 -0.81231,-5.40525 -0.98367,-5.99729 -0.27722,-0.9578 0.20147,-1.07644 4.34319,-1.07644 3.32012,0 4.65133,0.22045 4.6428,0.76888 -0.007,0.42288 -0.41301,3.53687 -0.90315,6.91996 -0.49017,3.3831 -0.89998,6.35868 -0.91071,6.61241 -0.0105,0.25373 -1.12142,0.46132 -2.46822,0.46132 -2.04051,0 -2.49866,-0.2307 -2.74842,-1.38399 z"
       id="path854"
       sodipodi:nodetypes="ssssscscssscccssscsssscsccssscscssscsccssscscssccscssccsscssccsssccscsssccscsccccssscccssccsscsscccccsssccsccsssssscssscssscccscssccsscssscccsssccsccccscscssccsscccsssscscccsccsscccssccsccsscsssccscccsccssssscsssssssssssssscsssscsssssscsssscsssssccccssscssscccsc" />
  </g>
</svg>
