<?xml version="1.0" encoding="UTF-8" standalone="no"?>
<svg
   xmlns:dc="http://purl.org/dc/elements/1.1/"
   xmlns:cc="http://creativecommons.org/ns#"
   xmlns:rdf="http://www.w3.org/1999/02/22-rdf-syntax-ns#"
   xmlns:svg="http://www.w3.org/2000/svg"
   xmlns="http://www.w3.org/2000/svg"
   xmlns:sodipodi="http://sodipodi.sourceforge.net/DTD/sodipodi-0.dtd"
   xmlns:inkscape="http://www.inkscape.org/namespaces/inkscape"
   version="1.1"
   id="Layer_4_1_"
   x="0px"
   y="0px"
   viewBox="0 0 37 37"
   style="enable-background:new 0 0 37 37;"
   xml:space="preserve"
   sodipodi:docname="Bangalore_Icon.svg"
   inkscape:version="1.0.1 (3bc2e813f5, 2020-09-07)"><metadata
   id="metadata17"><rdf:RDF><cc:Work
       rdf:about=""><dc:format>image/svg+xml</dc:format><dc:type
         rdf:resource="http://purl.org/dc/dcmitype/StillImage" /><dc:title></dc:title></cc:Work></rdf:RDF></metadata><defs
   id="defs15" /><sodipodi:namedview
   pagecolor="#ffffff"
   bordercolor="#666666"
   borderopacity="1"
   objecttolerance="10"
   gridtolerance="10"
   guidetolerance="10"
   inkscape:pageopacity="0"
   inkscape:pageshadow="2"
   inkscape:window-width="1000"
   inkscape:window-height="480"
   id="namedview13"
   showgrid="false"
   inkscape:zoom="6.402183"
   inkscape:cx="18.861402"
   inkscape:cy="22.098015"
   inkscape:window-x="0"
   inkscape:window-y="0"
   inkscape:window-maximized="0"
   inkscape:current-layer="Layer_4_1_" />
<style
   type="text/css"
   id="style2">
	.st0{fill:#241C1C;}
</style>
<path
   class="st0"
   d="M29.6,7.7L30,6.5l-1.7-1.7V4.1l-6.2-3.7h-3.6h-3.6L8.8,4.1v0.7L7,6.5l0.4,1.3l-1.2,1c0,0,3.5,9.6,3.5,11.9  c0,0,0.4-2.9,0.4-4.4L9.4,16l-0.6-4.1H8l0-1l1.5-1.6L8.8,7.7l2.9-2.2l1.6,1.8l-0.2-2.8l2.6-1.3L16.1,4l2.4-0.9L20.9,4l0.5-0.9  l2.6,1.3l-0.2,2.8l1.6-1.8l2.9,2.2l-0.7,1.7l1.5,1.6l0,1h-0.8L27.6,16L27,16.2c0,1.5,0.4,4.4,0.4,4.4c0-2.3,3.5-11.9,3.5-11.9  L29.6,7.7z"
   id="path4"
   style="fill:#273839;fill-opacity:1" />
<path
   class="st0"
   d="M29.1,22.4c-0.7,0-2.3,1.1-2.3,1.1v-1.8c0-0.3-0.2-0.5-0.4-0.7c-0.2-0.1-0.3-0.3-0.1-0.3c0.3,0,0.5-0.6,0.2-0.6  s-1.1-0.8-0.5-0.8s0-1.7,0-1.7c-0.3-0.3-0.7-0.5-1.2-0.6c0,0.8,0,1-0.5,1.5c-0.6,0.6-1.6,1.3-1.6,1.3s-1.6-0.7-1.6-1.2  c0-0.5,0.1-0.9,0.4-1.3c0.3-0.3,0.8-0.6,1-0.4c0.2,0.2-0.6,0.5-0.6,0.8c0,0.3,0.4,0.8,0.7,0.8c0.3,0,0.9-0.4,0.9-1  c0-0.2-0.2-0.6-0.4-0.9c-1.6-0.2-3.2,0-3.2,0l-0.6,0.5h-0.9h-0.9L17,16.6c0,0-2.6-0.2-4.5,0.2c-0.3-0.4-0.7-1-0.7-1.4  c0-0.5,0.5-1,0.9-1c0.3,0,0.7,0.5,0.7,0.8c0,0.3-0.8,0.6-0.6,0.8c0.2,0.2,0.7-0.1,1-0.4c0.3-0.3,0.4-0.8,0.4-1.3  c0-0.5-1.6-1.2-1.6-1.2s-1,0.7-1.6,1.3c-0.6,0.6-0.5,0.8-0.5,1.7c0,0.5,0.3,0.9,0.6,1.1c-0.1,0.1-0.2,0.1-0.3,0.2c0,0-0.6,1.7,0,1.7  c0.6,0-0.1,0.8-0.5,0.8c-0.4,0-0.1,0.6,0.2,0.6c0.2,0,0.1,0.2-0.1,0.3c-0.2,0.2-0.4,0.4-0.4,0.7v1.8c0,0-1.6-1.1-2.3-1.1  s-0.8,0.7-0.6,1c0.2,0.2,0.6,1.2,0.6,1.5c0,0.4,0.8,1.7,1,1.9s0.4,0.9,0.4,1.1c0,0.1,0.8,0.6,1.3,0.9c0.3,0.1,0.5,0.4,0.6,0.7  l0.4,1.2c0.3,1,0.9,2,1.7,2.7l2.4,2.1c0.7,0.6,1.5,1,2.4,1.1l0.4,0.1c0.1,0,0.2,0,0.3,0l0.4-0.1c0.9-0.1,1.7-0.5,2.4-1.1l2.4-2.1  c0.8-0.7,1.4-1.6,1.7-2.7l0.4-1.2c0.1-0.3,0.3-0.5,0.6-0.7c0.5-0.3,1.3-0.8,1.3-0.9c0-0.2,0.2-0.9,0.4-1.1s1-1.6,1-1.9  c0-0.4,0.4-1.3,0.6-1.5C30,23.1,29.8,22.4,29.1,22.4z M10,27c-0.3,0.3-1.2-0.8-1.2-1.1s0.3-1.4-0.6-2.3c0,0,1.4,1.4,1.4,1.7  c0,0.4-0.4,0.6-0.2,0.8C9.7,26.5,10.3,26.7,10,27z M19.9,23.5c0,0,0.2-0.5,0.8-0.5s3.8-0.9,4.1-0.6s0.9,0.8,0.5,0.8  s-0.4-0.2-0.9-0.2c-0.6,0-2.2,0.2-2.5,0.5c-0.3,0.3-1.9,1.3-1.9,2.1V23.5z M18.5,29.1c0,0,1.6-0.1,1.6-0.3c0-0.2-0.2-1.2-0.1-1.3  s0.6,0.5,0.6,0.6s0.1,0.6-0.3,1c-0.4,0.4-0.8,0.4-1.9,0.4s-1.5,0-1.9-0.4c-0.4-0.4-0.3-0.9-0.3-1s0.6-0.7,0.6-0.6s-0.1,1.1-0.1,1.3  C16.9,29.1,18.5,29.1,18.5,29.1z M12.2,22.4c0.3-0.3,3.5,0.6,4.1,0.6s0.8,0.5,0.8,0.5v2.1c0-0.8-1.6-1.8-1.9-2.1  c-0.3-0.3-2-0.5-2.5-0.5c-0.6,0-0.5,0.2-0.9,0.2S11.9,22.7,12.2,22.4z M12.1,24.8c0,0-0.1-0.7-0.6-0.7c0,0,0.7-0.1,1.3-0.1h2  c0,0,1.5,0.7,1.5,1.3c0,0-0.3-0.3-0.5,0c-0.3,0.3-1.4,0.3-1.8,0.3C13.6,25.6,12.6,25.2,12.1,24.8z M21,32.4  c-0.4,0.4-0.5,1.1-1.1,1.1c-0.6,0-1.4,0-1.4,0s-0.8,0-1.4,0c-0.6,0-0.7-0.7-1.1-1.1C15.6,32,15.2,32,15.2,32s1.3-1,2.1-1  c0.8,0,1.1,0.6,1.1,0.6s0.3-0.6,1.1-0.6c0.8,0,2.1,1,2.1,1S21.4,32,21,32.4z M24.9,24.8c-0.5,0.5-1.5,0.8-1.9,0.8  c-0.4,0-1.5-0.1-1.8-0.3c-0.3-0.3-0.5,0-0.5,0c0-0.6,1.5-1.3,1.5-1.3h2c0.6,0,1.3,0.1,1.3,0.1C25,24,24.9,24.8,24.9,24.8z M28.2,26  c0,0.3-0.9,1.4-1.2,1.1c-0.3-0.3,0.3-0.5,0.5-0.8c0.2-0.2-0.2-0.5-0.2-0.8c0-0.4,1.4-1.7,1.4-1.7C27.9,24.5,28.2,25.7,28.2,26z"
   id="path6"
   style="fill:#273839;fill-opacity:1" />
<path
   class="st0"
   d="M14.5,24.3h-0.8c-0.1,0.1-0.2,0.3-0.2,0.4c0,0.3,0.3,0.6,0.6,0.6c0.3,0,0.6-0.3,0.6-0.6  C14.7,24.5,14.6,24.4,14.5,24.3z"
   id="path8"
   style="fill:#273839;fill-opacity:1" />
<path
   class="st0"
   d="M22.5,24.3h0.8c0.1,0.1,0.2,0.3,0.2,0.4c0,0.3-0.3,0.6-0.6,0.6c-0.3,0-0.6-0.3-0.6-0.6  C22.3,24.5,22.4,24.4,22.5,24.3z"
   id="path10"
   style="fill:#273839;fill-opacity:1" />
</svg>
