<?xml version="1.0" encoding="UTF-8" standalone="no"?>
<!-- Generator: Adobe Illustrator 22.1.0, SVG Export Plug-In . SVG Version: 6.00 Build 0)  -->

<svg
   xmlns:dc="http://purl.org/dc/elements/1.1/"
   xmlns:cc="http://creativecommons.org/ns#"
   xmlns:rdf="http://www.w3.org/1999/02/22-rdf-syntax-ns#"
   xmlns:svg="http://www.w3.org/2000/svg"
   xmlns="http://www.w3.org/2000/svg"
   xmlns:sodipodi="http://sodipodi.sourceforge.net/DTD/sodipodi-0.dtd"
   xmlns:inkscape="http://www.inkscape.org/namespaces/inkscape"
   version="1.1"
   id="Layer_4_1_"
   x="0px"
   y="0px"
   viewBox="0 0 37 37"
   style="enable-background:new 0 0 37 37;"
   xml:space="preserve"
   sodipodi:docname="Bloodhound_Icon.svg"
   inkscape:version="0.92.4 (5da689c313, 2019-01-14)"><metadata
   id="metadata73"><rdf:RDF><cc:Work
       rdf:about=""><dc:format>image/svg+xml</dc:format><dc:type
         rdf:resource="http://purl.org/dc/dcmitype/StillImage" /></cc:Work></rdf:RDF></metadata><defs
   id="defs71" /><sodipodi:namedview
   pagecolor="#ffffff"
   bordercolor="#666666"
   borderopacity="1"
   objecttolerance="10"
   gridtolerance="10"
   guidetolerance="10"
   inkscape:pageopacity="0"
   inkscape:pageshadow="2"
   inkscape:window-width="1366"
   inkscape:window-height="705"
   id="namedview69"
   showgrid="false"
   inkscape:zoom="6.3783784"
   inkscape:cx="-1.0190678"
   inkscape:cy="18.5"
   inkscape:window-x="-8"
   inkscape:window-y="-8"
   inkscape:window-maximized="1"
   inkscape:current-layer="Layer_4_1_" />
<style
   type="text/css"
   id="style2">
	.st0{fill:#241C1C;}
</style>
<path
   class="st0"
   d="M8.2,28.8v-1.1c0,0,0.4-1.1,1.5-1.1s1.4,1,1.4,1.5s0.5,0.7,0.5,1.5s-0.7,1.2-1.4,1.2  C9.6,30.9,8.2,30.5,8.2,28.8z"
   id="path4"
   style="fill:#2b3b3c;fill-opacity:1" />
<path
   class="st0"
   d="M28.8,28.8v-1.1c0,0-0.4-1.1-1.5-1.1c-1.1,0-1.4,1-1.4,1.5s-0.5,0.7-0.5,1.5s0.7,1.2,1.4,1.2  S28.8,30.5,28.8,28.8z"
   id="path6"
   style="fill:#2b3b3c;fill-opacity:1" />
<rect
   x="18.3"
   y="28.4"
   class="st0"
   width="0.4"
   height="2.5"
   id="rect8"
   style="fill:#2b3b3c;fill-opacity:1" />
<rect
   x="17.5"
   y="28.4"
   class="st0"
   width="0.4"
   height="2.5"
   id="rect10"
   style="fill:#2b3b3c;fill-opacity:1" />
<rect
   x="19"
   y="28.4"
   class="st0"
   width="0.4"
   height="2.5"
   id="rect12"
   style="fill:#2b3b3c;fill-opacity:1" />
<rect
   x="18.3"
   y="18.5"
   class="st0"
   width="0.4"
   height="2.7"
   id="rect14"
   style="fill:#2b3b3c;fill-opacity:1" />
<rect
   x="17.5"
   y="18.5"
   class="st0"
   width="0.4"
   height="2.7"
   id="rect16"
   style="fill:#2b3b3c;fill-opacity:1" />
<rect
   x="19"
   y="18.5"
   class="st0"
   width="0.4"
   height="2.7"
   id="rect18"
   style="fill:#2b3b3c;fill-opacity:1" />
<path
   class="st0"
   d="M31.1,21.7c-0.1-1-0.3-2.7-0.3-3.4c0-1.1-0.9-1.1-0.9-1.1s-0.8-0.6-0.3-1.1c0.5-0.5,0.4-0.9,0.4-0.9l-0.7-3  c-3.4,0.4-6.2,1.9-7.8,2.7l-0.1,0.1c-0.7,0.4-1.5,0.6-2.3,0.6h-1c-0.8,0-1.6-0.2-2.3-0.6L15.5,15c-1.6-0.8-4.4-2.3-7.8-2.7l-0.7,3  c0,0,0,0.4,0.4,0.9c0.5,0.5-0.3,1.1-0.3,1.1s-0.9,0-0.9,1.1c0,0.7-0.2,2.4-0.3,3.4c-0.1,0.6,0.1,1.2,0.5,1.6c1,1,2.8,2.6,3.7,2.6  c1.4,0,1.4,0,1.4,0.9s0.6,1.8,0.9,1.8c0.3,0,1-0.3,1.4-0.3c0.4,0,1,0,1,1c0,1-0.8,1.3-0.8,2.3c0,1,1.3,2.7,4.5,2.7s4.5-1.7,4.5-2.7  c0-1-0.8-1.3-0.8-2.3c0-1,0.6-1,1-1c0.4,0,1.1,0.3,1.4,0.3c0.3,0,0.9-1,0.9-1.8s0-0.9,1.4-0.9c1,0,2.8-1.7,3.7-2.6  C31,22.9,31.2,22.3,31.1,21.7z M20.5,31.1c0,0.8-0.6,1.4-1.4,1.4h-1.2c-0.8,0-1.4-0.6-1.4-1.4v-2.6c0-0.8,0.6-1.4,1.4-1.4h1.2  c0.8,0,1.4,0.6,1.4,1.4V31.1z M23.3,23.9c0,0-1.3,0-2.3-1s-1.4-1-2.5-1s-1.5,0-2.5,1s-2.3,1-2.3,1c-1.6,0-4.5-1.4-4.5-4.6  s2.2-3.7,2.2-3.7H12c0.7,0.7,5.6,2.3,5.6,2.3h1h1c0,0,4.9-1.6,5.6-2.3h0.6c0,0,2.2,0.5,2.2,3.7S25,23.9,23.3,23.9z"
   id="path20"
   style="fill:#2b3b3c;fill-opacity:1" />
<path
   class="st0"
   d="M35.1,9.6c-2.2,0-12.8-4.7-12.8-4.7s1-1.1,0.2-1.9c-0.8-0.8-1.5,3.5-2.1,3.5c-0.5,0-0.4-0.8,0-1.3  c0.4-0.4,1.2-2.7,1-3c-0.2-0.2-1.1-0.5-1.1,0.1c0,0.6-0.9,2.3-1,2.3c-0.1,0-0.3-1.9,0.2-2.5c0.6-0.6-0.5-0.9-1.1-0.9  s-1.7,0.4-1.1,0.9c0.6,0.6,0.4,2.5,0.2,2.5c-0.1,0-1-1.7-1-2.3c0-0.6-0.9-0.3-1.1-0.1c-0.2,0.2,0.6,2.5,1,3c0.4,0.4,0.5,1.3,0,1.3  c-0.5,0-1.3-4.2-2.1-3.5s0.2,1.9,0.2,1.9S4.1,9.6,1.9,9.6s-1.4,1.2-1.2,0.9c0.2-0.2,3.9,0.6,4.9,0.8c0.2,0,0.3,0,0.5,0.1  c4.3,0.1,7.9,1.9,9.9,2.9l0.1,0.1c0.6,0.3,1.3,0.5,2,0.5h1c0.7,0,1.4-0.2,2-0.5l0.1-0.1c2-1,5.6-2.8,9.9-2.9c0.2,0,0.3,0,0.5-0.1  c1-0.2,4.8-0.9,4.9-0.8C36.6,10.7,37.4,9.6,35.1,9.6z M27.7,9.3l-5.9,2.2h-1.4c-0.1-0.1-0.2-0.9,0.3-1.4c0.5-0.5,0-0.8,0-0.8h-2.2  h-2.2c0,0-0.5,0.3,0,0.8c0.5,0.5,0.4,1.2,0.3,1.4h-1.4L9.3,9.3V8.8c0,0,4.3-2.5,5.9-2.5c0,0,0.9,1,1.4,1c0.5,0,0.5-0.4,2-0.4  s1.5,0.4,2,0.4c0.5,0,1.4-1,1.4-1c1.6,0,5.9,2.5,5.9,2.5V9.3z"
   id="path22"
   style="fill:#2b3b3c;fill-opacity:1" />
<path
   class="st0"
   d="M16.4,17.8l-0.6-0.1v0.5c0.2,0.4,0.3,0.8,0.3,1.3c0,1.5-1.2,2.7-2.7,2.7s-2.7-1.2-2.7-2.7c0-1.1,0.7-2,1.6-2.4  c0,0,0,0,0,0l0.4-0.4l-0.6-0.2c-1.2,0.6-2,1.8-2,3.2c0,2,1.5,3.5,3.4,3.5s3.4-1.6,3.4-3.5C16.9,18.9,16.7,18.3,16.4,17.8z"
   id="path24"
   style="fill:#2b3b3c;fill-opacity:1" />
<path
   class="st0"
   d="M20.6,17.8l0.6-0.1v0.5c-0.2,0.4-0.3,0.8-0.3,1.3c0,1.5,1.2,2.7,2.7,2.7c1.5,0,2.7-1.2,2.7-2.7  c0-1.1-0.7-2-1.6-2.4c0,0,0,0,0,0l-0.4-0.4l0.6-0.2c1.2,0.6,2,1.8,2,3.2c0,2-1.5,3.5-3.4,3.5s-3.4-1.6-3.4-3.5  C20.1,18.9,20.3,18.3,20.6,17.8z"
   id="path26"
   style="fill:#2b3b3c;fill-opacity:1" />
<path
   class="st0"
   d="M1.1,11.6c0,0-0.9,2.3-0.3,2.9c0.6,0.6-0.2,0.5-0.2,0.9s0,2.1,0.5,2.1s0.7-1.3,0.7-1.6c0-0.3-0.4-0.6-0.4-1.2  c0-0.6,0.4-0.6,0.4-1.3S1.7,11.6,1.1,11.6z"
   id="path28"
   style="fill:#2b3b3c;fill-opacity:1" />
<path
   class="st0"
   d="M4.1,12.1c0,0,0.8,1.2,0.8,2.2S4.5,14.7,4.5,16s0.3,1,0.3,1.7s-0.5,1.3-0.8,1.3s-0.9-0.4-0.9-1.4  s0.6-0.2,0.6-0.7c0-0.5-0.1-1.7-0.4-2S3.4,12.7,4.1,12.1z"
   id="path30"
   style="fill:#2b3b3c;fill-opacity:1" />
<path
   class="st0"
   d="M33,12c0,0,0.1,0.9,0.8,1.6c0,0,0.3,0.9-0.4,1.6c0,0-0.5,1.3-0.1,1.6c0.4,0.4,1.1,0.5,0.4,1.2  c-0.8,0.8-0.4,0.8-0.2,1c0.2,0.2-0.2,0.9,0.1,1.2c0.2,0.2,0.8,0.2-0.2,1.2c0,0-1,0.2-1.5-0.3c0,0-0.2-0.4,0.4-1  c0.6-0.6,0.4-1.4,0.1-1.6c-0.2-0.2-0.6-1.1-0.1-1.6c0.5-0.5,0.1-1.9-0.1-2.1C32,14.6,32.3,12.8,33,12z"
   id="path32"
   style="fill:#2b3b3c;fill-opacity:1" />
<path
   class="st0"
   d="M32.8,22.1c0,0,0.3,0.7,0.6,0.7c0.3,0,0.2-0.9-0.2-0.9S32.8,21.9,32.8,22.1z"
   id="path34"
   style="fill:#2b3b3c;fill-opacity:1" />
<path
   class="st0"
   d="M35.5,11.6c0,0-0.4,0-0.4,2s0.3,2-0.1,2.4c-0.5,0.5,0.5,0.5,0.5,0.9s-0.5,1-0.5,1.3s0.5,0.8,0.8,0.8  c0.2,0,0.4-0.3,0.4-1.3c0,0-0.5-0.8,0-1.3c0.5-0.5,0.2-1-0.3-1.4c-0.4-0.4,0.5-0.9,0.5-1.3C36.3,13.2,36,11.6,35.5,11.6z"
   id="path36"
   style="fill:#2b3b3c;fill-opacity:1" />
<g
   id="g56"
   style="fill:#2b3b3c;fill-opacity:1">
	<path
   class="st0"
   d="M12.7,31.1c0.1-0.1,0.1-0.3,0.2-0.4c-0.2-0.2-0.5-0.4-0.9-0.4C12,30.3,12.5,30.7,12.7,31.1z"
   id="path38"
   style="fill:#2b3b3c;fill-opacity:1" />
	<path
   class="st0"
   d="M12.5,31.7c0-0.2,0-0.3,0.1-0.5c-0.2-0.1-0.5-0.3-1-0.3C11.6,31,12.2,31.4,12.5,31.7z"
   id="path40"
   style="fill:#2b3b3c;fill-opacity:1" />
	<path
   class="st0"
   d="M12.6,32.1c-0.4-0.2-0.9-0.4-1.1-0.2c0,0,0.7,0.3,1.2,0.6C12.6,32.4,12.6,32.2,12.6,32.1z"
   id="path42"
   style="fill:#2b3b3c;fill-opacity:1" />
	<path
   class="st0"
   d="M14.1,29.7c-0.1-0.2-0.4-0.5-0.8-0.5c0,0,0.2,0.4,0.3,0.9C13.8,29.8,14,29.7,14.1,29.7z"
   id="path44"
   style="fill:#2b3b3c;fill-opacity:1" />
	<path
   class="st0"
   d="M13.5,30.1c-0.2-0.2-0.6-0.5-0.9-0.5c0,0,0.3,0.4,0.5,0.9C13.2,30.4,13.3,30.2,13.5,30.1z"
   id="path46"
   style="fill:#2b3b3c;fill-opacity:1" />
	<path
   class="st0"
   d="M12.6,32.8c-0.3-0.1-0.9-0.1-1.3,0.3c0,0,0.9,0,1.4,0.2C12.7,33.1,12.7,32.9,12.6,32.8z"
   id="path48"
   style="fill:#2b3b3c;fill-opacity:1" />
	<path
   class="st0"
   d="M13.8,34.8c-0.2,0.4-0.5,0.9-0.4,0.9c0.2,0.1,1.1,0.2,1.1-0.1c0-0.1,0-0.3,0-0.5C14.3,35.1,14,35,13.8,34.8z"
   id="path50"
   style="fill:#2b3b3c;fill-opacity:1" />
	<path
   class="st0"
   d="M13.7,34.7c-0.2-0.1-0.3-0.3-0.4-0.5c-0.2,0.4-0.7,0.9-0.6,1.1C12.8,35.5,13.1,35.2,13.7,34.7z"
   id="path52"
   style="fill:#2b3b3c;fill-opacity:1" />
	<path
   class="st0"
   d="M13,33.9c-0.1-0.2-0.2-0.4-0.2-0.5c-0.4,0-1.1,0-1.1,0.2c0,0.4,0.6,0,0.5,0.3c-0.1,0.3-0.2,0.9,0.1,0.8   C12.5,34.6,12.8,34.1,13,33.9z"
   id="path54"
   style="fill:#2b3b3c;fill-opacity:1" />
</g>
<g
   id="g66"
   style="fill:#2b3b3c;fill-opacity:1">
	<path
   class="st0"
   d="M23.5,31.3c0.6-0.3,1.3-0.8,1-1.1c-0.3-0.3-0.9,0-1.4,0.3C23.2,30.8,23.3,31,23.5,31.3z"
   id="path58"
   style="fill:#2b3b3c;fill-opacity:1" />
	<path
   class="st0"
   d="M23,30.6c0.4-0.4,0.9-1,0.6-1.2c-0.3-0.3-0.8,0.5-1,0.8C22.8,30.3,22.9,30.4,23,30.6z"
   id="path60"
   style="fill:#2b3b3c;fill-opacity:1" />
	<path
   class="st0"
   d="M23.6,34.2c-0.1,0.2-0.2,0.3-0.4,0.5c0.5,0.6,1,1,1.3,0.6C25,34.8,24.2,34.4,23.6,34.2z"
   id="path62"
   style="fill:#2b3b3c;fill-opacity:1" />
	<path
   class="st0"
   d="M23.9,32.8c0.7,0.2,1.3,0.3,1.3-0.1c0-0.5-0.7-0.6-1.5-0.6c0.8-0.2,1.7-0.4,1.3-0.7c-0.3-0.3-1-0.2-1.6,0   c0.2,0.5,0.3,1.1,0.3,1.9c0,0.2,0,0.4-0.1,0.5c0.5,0.4,1,0.6,1.3,0.3C25.4,33.8,24.7,33.3,23.9,32.8z"
   id="path64"
   style="fill:#2b3b3c;fill-opacity:1" />
</g>
</svg>