<?xml version="1.0" encoding="UTF-8" standalone="no"?>
<svg
   xmlns:dc="http://purl.org/dc/elements/1.1/"
   xmlns:cc="http://creativecommons.org/ns#"
   xmlns:rdf="http://www.w3.org/1999/02/22-rdf-syntax-ns#"
   xmlns:svg="http://www.w3.org/2000/svg"
   xmlns="http://www.w3.org/2000/svg"
   xmlns:sodipodi="http://sodipodi.sourceforge.net/DTD/sodipodi-0.dtd"
   xmlns:inkscape="http://www.inkscape.org/namespaces/inkscape"
   version="1.1"
   id="Layer_4_1_"
   x="0px"
   y="0px"
   viewBox="0 0 37 37"
   style="enable-background:new 0 0 37 37;"
   xml:space="preserve"
   sodipodi:docname="Caustic_Icon.svg"
   inkscape:version="1.0.1 (3bc2e813f5, 2020-09-07)"><metadata
   id="metadata57"><rdf:RDF><cc:Work
       rdf:about=""><dc:format>image/svg+xml</dc:format><dc:type
         rdf:resource="http://purl.org/dc/dcmitype/StillImage" /><dc:title></dc:title></cc:Work></rdf:RDF></metadata><defs
   id="defs55" /><sodipodi:namedview
   pagecolor="#ffffff"
   bordercolor="#666666"
   borderopacity="1"
   objecttolerance="10"
   gridtolerance="10"
   guidetolerance="10"
   inkscape:pageopacity="0"
   inkscape:pageshadow="2"
   inkscape:window-width="1600"
   inkscape:window-height="837"
   id="namedview53"
   showgrid="false"
   inkscape:zoom="12.804366"
   inkscape:cx="8.8269517"
   inkscape:cy="22.203184"
   inkscape:window-x="-8"
   inkscape:window-y="-8"
   inkscape:window-maximized="1"
   inkscape:current-layer="Layer_4_1_" />
<style
   type="text/css"
   id="style2">
	.st0{fill:#241C1C;}
</style>























<g
   id="g906"
   style="fill:#273839;fill-opacity:1"><path
     class="st0"
     d="M18.1,30.9l-1.9,1c-0.2,0.1-0.3,0.2-0.3,0.4v2.7c0,0.3,0.1,0.6,0.4,0.8l1.1,0.9h0.7V30.9z"
     id="path4"
     style="fill:#273839;fill-opacity:1" /><path
     class="st0"
     d="M18.9,30.9l1.9,1c0.2,0.1,0.3,0.2,0.3,0.4v2.7c0,0.3-0.1,0.6-0.4,0.8l-1.1,0.9h-0.7V30.9z"
     id="path6"
     style="fill:#273839;fill-opacity:1" /><path
     class="st0"
     d="M18.1,30.1c0,0-2.1,0.4-2.9,1.2l-1.6-4.1l1.4-3.3c0.1-0.3,0.4-0.6,0.7-0.8c0.5-0.3,1.4-0.7,2.4-0.7V30.1z"
     id="path8"
     style="fill:#273839;fill-opacity:1" /><path
     class="st0"
     d="M14.6,31.6l-1.7-4c0,0-1.2-0.9-1.5-0.9c-0.3,0-1.9,0.6-1.9,1.3s2.5,6.2,2.5,6.2s0.3,0.3,0.6,0.3  s1.6-1.2,1.6-1.2S14.6,32.7,14.6,31.6z"
     id="path10"
     style="fill:#273839;fill-opacity:1" /><path
     class="st0"
     d="M18.9,30.1c0,0,2.1,0.4,2.9,1.2l1.6-4.1L22,23.9c-0.1-0.3-0.4-0.6-0.7-0.8c-0.5-0.3-1.4-0.7-2.4-0.7V30.1z"
     id="path12"
     style="fill:#273839;fill-opacity:1" /><path
     class="st0"
     d="M22.4,31.6l1.7-4c0,0,1.2-0.9,1.5-0.9c0.3,0,1.9,0.6,1.9,1.3s-2.5,6.2-2.5,6.2s-0.3,0.3-0.6,0.3  c-0.3,0-1.6-1.2-1.6-1.2S22.4,32.7,22.4,31.6z"
     id="path14"
     style="fill:#273839;fill-opacity:1" /><path
     class="st0"
     d="M10.7,13.8c0.5,0.5,7.3,0.9,7.3,0.9v-1.3c0,0-7-0.5-7.6-0.5c-0.5,0-2.5,1.7-3,2.1c-0.1,0.1-0.1,0.1-0.1,0.2  l-0.8,6.5c0,0.2,0.1,0.4,0.2,0.5l3.2,2c0.3,0.2,0.5,0.2,0.8,0.2c0.9,0,2.8-0.2,3.4-0.7c0.7-0.7,1.9-1.5,4-1.5v-0.9c0,0-0.3,0-1.3,0  c-0.8,0-3.2,1.2-4,1.6c-0.2,0.1-0.4,0.1-0.5,0.1l-4.1-1.2l0.3-5.8c0-0.2,0.1-0.4,0.2-0.5C9.1,14.8,10.3,13.4,10.7,13.8z"
     id="path16"
     style="fill:#273839;fill-opacity:1" /><path
     class="st0"
     d="M16.5,18.9c0,0-2.9-2.5-4.1-2.5s-2-0.3-2-0.3s-0.7,0.6,0,0.6c0.7,0,2.1,0.8,2.1,0.8s0.1,0.7-0.3,0.3  c-0.4-0.4-1.1-0.2-1.1-0.2s-0.3,0.1,0.1,0.5c0.4,0.4,1.4,1.4,1.8,1.4c0.3,0,1.7-0.5,2.1-0.5c0.4,0,1.3,0.6,1.5,0.6s0.9-0.5,0.9-0.8  C17.5,18.6,17,18.4,16.5,18.9z"
     id="path18"
     style="fill:#273839;fill-opacity:1" /><polygon
     class="st0"
     points="5.1,31 9,26.6 9,25.3 5.5,28.2 "
     id="polygon20"
     style="fill:#273839;fill-opacity:1" /><polygon
     class="st0"
     points="8.7,25.1 5.8,26.9 3.2,25.8 6.3,23.1 "
     id="polygon22"
     style="fill:#273839;fill-opacity:1" /><path
     class="st0"
     d="M26.3,13.8c-0.5,0.5-7.3,0.9-7.3,0.9v-1.3c0,0,7-0.5,7.6-0.5c0.5,0,2.5,1.7,3,2.1c0.1,0.1,0.1,0.1,0.1,0.2  l0.8,6.5c0,0.2-0.1,0.4-0.2,0.5l-3.2,2c-0.3,0.2-0.5,0.2-0.8,0.2c-0.9,0-2.8-0.2-3.4-0.7c-0.7-0.7-1.9-1.5-4-1.5v-0.9  c0,0,0.3,0,1.3,0c0.8,0,3.2,1.2,4,1.6c0.2,0.1,0.4,0.1,0.5,0.1l4.1-1.2l-0.3-5.8c0-0.2-0.1-0.4-0.2-0.5  C27.9,14.8,26.7,13.4,26.3,13.8z"
     id="path24"
     style="fill:#273839;fill-opacity:1" /><path
     class="st0"
     d="M20.5,18.9c0,0,2.9-2.5,4.1-2.5s2-0.3,2-0.3s0.7,0.6,0,0.6s-2.1,0.8-2.1,0.8s-0.1,0.7,0.3,0.3s1.1-0.2,1.1-0.2  s0.3,0.1-0.1,0.5c-0.4,0.4-1.4,1.4-1.8,1.4S22.4,19,22,19s-1.3,0.6-1.5,0.6s-0.9-0.5-0.9-0.8C19.5,18.6,20,18.4,20.5,18.9z"
     id="path26"
     style="fill:#273839;fill-opacity:1" /><polygon
     class="st0"
     points="31.9,31 28,26.6 28,25.3 31.5,28.2 "
     id="polygon28"
     style="fill:#273839;fill-opacity:1" /><polygon
     class="st0"
     points="28.3,25.1 31.2,26.9 33.8,25.8 30.7,23.1 "
     id="polygon30"
     style="fill:#273839;fill-opacity:1" /><path
     class="st0"
     d="M18.1,8.8h-0.4l-0.9-1.1l-3.1-0.3l-1.2-5c0,0,5.2-1.6,5.7-2.1V8.8z"
     id="path32"
     style="fill:#273839;fill-opacity:1" /><path
     class="st0"
     d="M13.2,7.8l-1.8-5c0,0-3.1,0.1-3.4-0.3v4.3L7.4,7.2l2.3,4.2C9.8,11.4,11.2,7.8,13.2,7.8z"
     id="path34"
     style="fill:#273839;fill-opacity:1" /><path
     class="st0"
     d="M9.6,12.1L6.8,7.3c0,0-1.7,1-3.3,2.5l1.9,2.3l-1.7,1l2.5,2.5l0.1-1.2L9.6,12.1z"
     id="path36"
     style="fill:#273839;fill-opacity:1" /><polygon
     class="st0"
     points="6.1,16 5,15.2 4.7,16.7 5.9,17.7 "
     id="polygon38"
     style="fill:#273839;fill-opacity:1" /><path
     class="st0"
     d="M5.8,18.4l-1.2-1.1c0,0-0.2,1.8-0.6,2.2c0,0,1.3-0.3,1.7-0.3L5.8,18.4z"
     id="path40"
     style="fill:#273839;fill-opacity:1" /><path
     class="st0"
     d="M18.9,8.8h0.4l0.9-1.1l3.1-0.3l1.2-5c0,0-5.2-1.6-5.7-2.1V8.8z"
     id="path42"
     style="fill:#273839;fill-opacity:1" /><path
     class="st0"
     d="M23.8,7.8l1.8-5c0,0,3.1,0.1,3.4-0.3v4.3l0.5,0.3l-2.3,4.2C27.2,11.4,25.8,7.8,23.8,7.8z"
     id="path44"
     style="fill:#273839;fill-opacity:1" /><path
     class="st0"
     d="M27.4,12.1l2.8-4.7c0,0,1.7,1,3.3,2.5l-1.9,2.3l1.7,1l-2.5,2.5l-0.1-1.2L27.4,12.1z"
     id="path46"
     style="fill:#273839;fill-opacity:1" /><polygon
     class="st0"
     points="30.9,16 32,15.2 32.3,16.7 31.1,17.7 "
     id="polygon48"
     style="fill:#273839;fill-opacity:1" /><path
     class="st0"
     d="M31.2,18.4l1.2-1.1c0,0,0.2,1.8,0.6,2.2c0,0-1.3-0.3-1.7-0.3L31.2,18.4z"
     id="path50"
     style="fill:#273839;fill-opacity:1" /></g>
</svg>
