<?xml version="1.0" encoding="UTF-8" standalone="no"?>
<svg
   version="1.0"
   width="512"
   height="512"
   viewBox="0 0 383.99999 383.99999"
   preserveAspectRatio="xMidYMid meet"
   id="svg989"
   sodipodi:docname="Crypto_Icon.svg"
   inkscape:version="1.1 (c68e22c387, 2021-05-23)"
   xmlns:inkscape="http://www.inkscape.org/namespaces/inkscape"
   xmlns:sodipodi="http://sodipodi.sourceforge.net/DTD/sodipodi-0.dtd"
   xmlns="http://www.w3.org/2000/svg"
   xmlns:svg="http://www.w3.org/2000/svg">
  <defs
     id="defs993" />
  <sodipodi:namedview
     id="namedview991"
     pagecolor="#ffffff"
     bordercolor="#666666"
     borderopacity="1.0"
     inkscape:pageshadow="2"
     inkscape:pageopacity="0.0"
     inkscape:pagecheckerboard="0"
     inkscape:document-units="pt"
     showgrid="false"
     inkscape:snap-grids="true"
     inkscape:zoom="0.6394043"
     inkscape:cx="424.61397"
     inkscape:cy="274.47423"
     inkscape:window-width="1350"
     inkscape:window-height="729"
     inkscape:window-x="0"
     inkscape:window-y="0"
     inkscape:window-maximized="0"
     inkscape:current-layer="g987"
     units="px"
     width="512px" />
  <g
     transform="matrix(0.1,0,0,-0.1,0,512)"
     fill="#000000"
     stroke="none"
     id="g987">
    <path
       style="fill:#273839;fill-opacity:1;stroke:none;stroke-width:3.09898;stroke-opacity:1"
       d="m 1427.9119,5029.9581 c -19.3169,-2.6804 -13.5981,-28.8812 -4.8058,-39.6875 35.6501,-59.1313 85.9945,-107.2007 134.2002,-155.76 8.2674,-9.4996 -10.0909,-15.0638 -15.1988,-20.0157 -70.1886,-40.5713 -144.8805,-74.355 -207.9155,-126.2599 -51.7268,-33.6307 -108.0607,-60.1795 -164.5001,-84.4774 -57.0947,-23.3128 -114.315,-47.188 -173.71383,-63.9231 -82.4288,-28.3139 -169.47828,-35.4271 -255.07385,-48.1765 -20.06432,-5.47 -45.91522,-3.0406 -61.4623,-18.6084 -9.89199,-16.0016 4.20368,-36.3754 21.27962,-38.9189 84.35142,-35.9924 167.42853,-82.0202 259.98303,-92.3459 15.7299,-4.5697 2.4549,-23.9701 -3.5227,-32.0309 -56.7052,-69.1051 -123.28887,-130.4572 -175.12611,-203.9003 -30.62399,-44.0886 -63.43604,-86.9958 -108.90592,-116.4642 -75.07481,-54.6662 -150.59701,-109.0598 -229.23639,-158.1857 -13.90005,-7.7193 -9.14809,-25.6939 3.60135,-31.583 30.91525,-11.8378 65.80727,-6.5556 98.22069,-10.5589 21.59651,-1.7317 44.47941,-1.2915 65.34126,-4.9481 5.83505,-46.0753 -24.00907,-86.5709 -29.78285,-131.1776 -14.54852,-47.7609 -28.88822,-96.2795 -28.26508,-146.7842 2.15972,-17.822 -5.73905,-41.5926 8.50665,-55.5538 22.13369,-9.5251 35.02769,16.8325 45.10133,31.5753 12.50157,14.0492 22.4815,36.5662 42.38425,40.2581 18.00561,-1.4587 13.74886,-26.3374 16.69292,-38.7743 5.32352,-113.9449 24.19178,-227.6777 56.35909,-337.4023 11.762,-35.5561 17.14751,-72.8959 29.46245,-108.0936 12.77519,-21.5591 44.84996,-27.9588 48.77868,-55.6848 12.83163,-69.9674 22.09193,-141.3993 45.21678,-208.9174 28.6232,-74.393 68.866,-143.7037 97.4149,-217.8702 10.7673,-17.8388 22.2891,-42.5277 44.8808,-46.1034 19.65503,3.8326 15.92833,30.7018 18.79973,45.4315 3.0752,17.3349 -1.039,40.3704 12.3171,53.5906 15.0155,-10.6559 17.3427,-33.2471 25.4791,-49.2356 14.3354,-39.0253 23.4817,-80.0701 41.1765,-118.0167 12.5501,-51.0104 37.6311,-97.4818 55.5422,-146.6272 10.7639,-31.7932 22.9164,-62.8422 38.1139,-92.8375 27.0014,-65.412 47.6192,-133.4493 80.0649,-196.5915 26.6508,-52.9587 13.7735,-113.8827 17.1212,-170.7223 -3.0323,-19.602 2.6627,-37.0669 14.5996,-52.6176 44.1464,-74.8041 87.132,-150.3963 128.5909,-226.4843 24.191,-31.9251 61.5083,-50.5577 92.1383,-75.5649 46.9815,-33.0522 93.2845,-67.5339 139.0685,-101.9183 49.731,-12.7226 102.1574,-6.0663 152.9935,-7.516 55.7109,1.68 112.0204,-0.7881 167.3634,5.21 25.7292,13.916 48.9876,32.6037 75.6081,45.4388 81.5721,47.156 161.8891,96.4322 244.705,141.4223 78.3015,48.6381 166.9918,83.7812 233.1884,149.704 51.0107,52.0055 75.189,122.2498 115.5635,181.6696 46.0901,74.5092 85.9995,152.5824 130.3303,228.0671 24.1864,32.0071 39.1403,69.4556 46.5951,108.7062 10.2545,32.6819 18.5598,65.8404 24.8832,99.4475 8.5056,24.2499 33.1431,47.5641 20.5308,75.0655 -15.0145,34.7213 -25.5903,73.2972 -17.5831,110.9883 4.3575,6.9355 13.5374,-5.0839 18.9994,-6.4219 28.1533,-19.7825 65.7863,-5.1303 92.5093,10.332 39.3323,24.1335 64.9115,63.8068 94.3736,98.1687 31.5192,45.341 59.0995,94.2626 74.9807,147.2983 14.5529,27.4874 32.6983,53.5991 41.8447,84.0417 17.8408,42.2863 44.4424,83.0878 42.8568,130.8593 1.8012,96.2172 5.2906,192.7565 -1.1259,288.8528 -0.7586,14.0069 -4.5456,31.0355 -21.2267,33.3442 -22.2641,6.2379 -51.2715,20.1985 -70.405,-0.2903 -15.2668,-14.6331 -33.4966,-25.0911 -50.5278,-36.873 -9.8067,-6.016 -17.4871,-26.0459 -30.7053,-20.9847 -9.9692,24.439 12.7933,47.3679 14.024,71.6941 10.1574,44.0055 9.2574,90.796 25.5969,133.1655 5.989,15.2306 26.482,-1.6721 32.6118,14.1753 15.427,31.989 9.2239,69.5908 12.3747,103.9887 3.0951,102.4184 0.3817,205.3256 7.0303,307.4312 17.7732,-1.7037 28.4041,-21.217 42.6261,-30.6638 8.4628,-8.8604 29.6143,-19.7411 34.8362,-2.0329 8.8172,54.6933 -16.1892,108.008 -16.1425,162.3636 3.1595,7.139 11.467,14.9576 18.2913,6.2524 46.0671,-28.0437 93.2512,-55.5178 143.2006,-75.81 19.5396,1.6095 13.7016,28.3094 8.9761,40.7044 -22.7207,70.0654 -43.5947,141.3435 -78.2128,206.6814 -21.5218,49.0982 -54.1486,92.8191 -73.4615,142.8012 -4.4075,8.7517 1.9388,13.0818 10.1806,13.1222 57.2007,10.4519 116.6386,6.745 173.2462,21.009 15.567,2.7758 17.1598,24.2968 3.2382,30.439 -38.7719,22.7929 -81.8882,35.729 -121.5147,57.144 -102.6764,50.1388 -207.1286,97.9104 -307.1045,152.5711 -72.703,48.1986 -141.6781,102.8638 -219.1023,143.9659 -68.3233,36.636 -144.5045,55.565 -219.252,74.2411 -51.4937,6.6158 -104.0601,4.0075 -155.6532,-0.6926 -59.6492,54.2201 -121.9852,108.667 -199.035,136.4416 -109.4325,44.2186 -230.1129,44.4133 -346.1793,39.1747 -82.677,-12.2163 -167.3815,-13.8331 -250.2469,-4.6395 -48.9,7.7677 -95.7499,23.7019 -141.8224,41.3274 -2.3603,0.4675 -4.7775,0.7303 -7.1846,0.581 z m 455.0596,-108.1132 c 97.1736,0.8653 198.0436,-1.8102 287.4374,-43.5583 70.7107,-29.7879 121.9653,-88.618 181.8823,-134.3365 28.5996,-10.5191 60.1389,0.8735 89.7033,-0.876 56.9384,1.2186 116.3555,4.0125 169.6097,-19.5557 100.0037,-36.81 193.6608,-89.5798 277.3161,-155.5328 53.4978,-39.8198 115.1114,-66.2364 171.8326,-100.6558 28.3766,-10.7433 57.9348,-23.7039 78.8,-46.406 -29.1795,-6.2491 -60.4904,1.4872 -89.2712,-5.0964 -9.5584,-13.7498 7.7218,-29.537 13.2527,-41.7699 49.9458,-72.6156 102.5645,-143.6544 144.5971,-221.3421 7.0671,-16.2821 24.1904,-27.586 28.4097,-44.8309 -0.1345,-19.1225 -23.7362,-13.899 -32.7269,-4.2672 -31.3671,21.6444 -61.4553,47.1558 -96.8613,61.7133 -19.0589,1.9582 -22.0323,-24.7349 -21.8319,-38.6102 -1.1391,-16.6114 4.9791,-36.7932 -0.5993,-51.6052 -17.502,-6.2617 -48.0194,-0.533 -51.46,-25.379 -1.4043,-49.2279 14.2558,-97.2524 14.5023,-146.3784 2.3306,-63.0871 7.3022,-127.2586 -3.6558,-189.7339 -10.6886,-27.5654 -31.2613,-51.4925 -32.9295,-82.2657 -15.9956,-60.2592 -21.6792,-122.3786 -30.1517,-183.9439 -0.5904,-16.1471 -12.4211,-27.2239 -26.8074,-32.3396 -30.3844,-22.1861 -40.1453,-62.031 -59.5276,-92.51 -5.6727,-7.2614 -9.1381,-22.3702 -19.3632,-23.5262 -11.8101,8.9836 -19.5729,34.7511 -38.4345,24.6708 -14.368,-2.9601 -30.9385,-21.0045 -44.3542,-6.9848 -22.059,15.7577 -42.6151,38.2642 -42.9439,66.6462 -6.5308,61.4984 -12.857,123.9301 -33.9677,182.6583 -17.4975,73.377 -48.1045,143.7484 -88.0666,207.6316 -10.0307,11.8637 -23.3936,37.7359 -42.3144,26.2567 -12.0283,-15.4833 3.2498,-36.1554 7.4811,-52.0411 9.7318,-24.1494 11.101,-36.4036 45.2896,-167.8146 37.8559,-142.103 -42.787,100.1998 -46.4699,102.9842 -48.6967,98.1544 -119.8869,183.1323 -197.923,259.2309 -20.7522,21.0577 -49.066,33.2924 -78.8,32.2729 -93.2427,4.3026 -187.5387,9.6811 -280.2942,-3.3229 -24.7978,-4.0289 -30.5189,-32.6312 -47.1808,-47.4895 -120.2808,-139.4236 -228.4325,-289.3113 -325.544,-445.6962 -19.9336,-36.3368 -43.5169,-70.5833 -61.1988,-107.8106 -5.2497,-9.3784 -5.8939,-27.7875 -18.2489,-30.203 -13.756,13.6106 -2.4205,35.897 0.9041,51.639 15.3653,35.6689 21.032,75.2049 42.0216,108.3882 12.8663,32.6628 24.7085,65.8355 42.5224,96.5239 41.8237,85.6852 95.85,164.4166 151.6419,241.4284 9.6288,15.4492 16.3612,32.3122 26.5895,47.3684 3.4059,14.9249 -18.7499,12.016 -26.5834,7.3237 -57.0045,-28.9427 -100.247,-78.3753 -144.1881,-123.5782 -59.8063,-66.0416 -108.6027,-141.2974 -154.378,-217.4478 -36.5644,-75.9613 -72.672,-152.4897 -101.8364,-231.6525 -10.739,-40.0298 -23.6756,-79.3208 -38.5933,-118.0188 -26.1779,-76.618 -32.3748,-158.1718 -57.8173,-234.9515 -10.9481,-38.2393 -7.8823,-80.4786 -21.2369,-117.3274 -21.5293,20.4666 -24.0957,52.9269 -30.3482,80.7187 -12.7744,97.7641 -8.0553,198.2148 1.882,296.2438 3.1708,37.143 17.8327,74.2964 11.6336,111.49 -14.0251,4.0347 -28.4732,-3.8824 -30.4208,-18.8603 -21.8336,-58.595 -36.1768,-120.156 -35.8789,-182.9607 -1.3859,-90.9613 -6.7684,-183.8834 14.9472,-273.0268 19.2575,-44.6342 16.3637,-93.9818 32.5452,-139.6456 4.9098,-25.0902 19.3705,-53.2679 6.6111,-77.705 -14.2086,-2.9772 -23.1211,15.2825 -31.6978,24.2713 -33.7911,47.9166 -69.8192,96.269 -87.6309,152.7821 -18.5878,41.1574 -23.7765,86.6207 -37.9871,129.0374 -21.1382,80.5944 -18.4623,166.9079 -47.8765,245.5156 -10.9426,11.6802 -29.9591,-1.431 -30.4329,-15.5615 -10.3278,-57.6378 -17.2238,-115.7955 -28.1692,-173.3795 -16.28683,-94.7302 -15.20363,-193.0508 -41.75753,-285.324 -1.0995,-8.9247 -10.8204,-14.9046 -16.1244,-5.3325 -28.1346,41.0134 -42.5542,89.7364 -57.5792,136.7066 -14.1555,41.3135 -11.7655,85.6271 -25.298,127.0945 -16.2914,56.6441 -13.9128,116.8888 -28.73448,173.6575 -10.91948,16.3134 -27.62961,-1.8875 -38.27121,-8.2861 -15.63417,-2.5278 -12.4189,20.4096 -17.03143,29.6629 -22.59735,101.3912 -45.4793,204.2033 -51.72107,307.8898 -2.69718,57.6745 2.78512,114.9732 17.10261,170.9782 1.09294,16.0565 10.18596,41.1037 -6.80092,51.6157 -20.99115,4.3694 -32.4759,-24.6756 -52.16819,-22.9517 -11.63253,32.9645 8.49221,67.573 31.37718,90.8448 18.24325,22.5078 45.38778,38.6401 58.49929,64.8002 4.92767,20.8983 -18.84736,30.8281 -36.03774,28.2843 -39.0481,0.6213 -77.47085,-13.3962 -116.26618,-10.8344 3.18763,27.0485 34.03092,39.0424 54.12523,52.9822 66.20553,43.4075 118.00269,104.3332 164.91462,167.225 88.82449,106.7956 182.87532,209.9122 288.44822,300.5081 22.0977,21.2002 62.2311,32.7606 63.4504,68.4541 1.03,13.908 -12.4463,22.9146 -25.1005,17.1836 -81.1949,-15.9817 -163.5225,-32.1882 -245.37623,-39.3425 -8.1084,17.2624 7.5727,34.5447 24.9976,35.5656 36.919,1.5595 72.92963,11.3936 106.58993,26.4598 70.0882,27.1786 144.4373,44.9624 208.7997,85.1987 52.2191,29.4737 108.4019,53.344 154.2328,92.735 55.5202,36.4123 114.7548,67.0922 176.9686,90.1004 24.7832,14.4634 52.2335,22.9228 78.4006,33.9738 16.499,10.4156 14.2875,35.3144 8.0259,50.7579 -29.74,21.8336 -67.7307,31.6356 -94.8578,57.3251 59.3109,10.935 120.4787,7.795 180.3724,15.521 32.6597,4.4481 64.6783,11.6741 97.8698,9.6505 4.5133,0.033 9.0266,0.066 13.5399,0.099 z m 367.6103,-1603.5346 c 13.712,-1.5897 31.9095,-22.7185 15.1135,-32.7269 -53.6869,-27.8849 -110.3911,-50.0168 -166.0979,-73.6311 -14.0391,-3.2624 -37.3081,-19.5833 -46.2365,0.2965 -9.3778,20.313 14.959,33.0212 30.0697,39.4575 52.8829,21.947 105.6411,44.4682 159.1072,64.9031 2.6299,0.6897 5.2863,1.7717 8.044,1.7008 z m 153.0605,-61.9978 c 39.6609,-12.7094 71.5943,-41.7882 108.0668,-61.5076 18.5107,-14.0831 44.6916,-20.9641 57.777,-40.7163 0.5195,-16.009 -22.031,-14.6415 -33.1105,-17.1211 -41.5893,-7.3067 -81.603,-20.7276 -123.9812,-23.662 -58.3939,-10.067 -115.823,-24.651 -173.9604,-35.8562 -17.6416,-3.4531 -45.4194,-14.8519 -38.023,-37.7869 8.4289,-21.2673 37.3482,-13.955 54.9887,-18.5092 96.1631,-10.3374 247.0933,-5.8016 342.8364,-19.0114 4.5467,-4.1416 -33.3996,-13.3816 -63.598,-15.5612 -26.1673,-19.3072 -19.3673,-59.0415 -35.425,-84.2005 -25.0827,-53.0524 -71.1461,-95.5718 -126.6363,-115.9981 -20.4292,-9.8476 -40.7298,-20.4102 -64.1797,-16.8356 -52.8835,0.1726 -110.2248,-9.3813 -154.5146,24.4446 -7.8368,6.2723 -60.406,43.8219 -62.4717,53.7336 30.8706,8.8165 99.0095,-37.1846 128.048,-46.6655 36.9507,-4.629 74.9631,-1.1541 109.1785,14.2541 54.7081,11.213 131.9253,109.3239 156.3145,157.9932 -42.1447,-3.8112 -37.2556,1.3237 -50.8519,-13.9578 -24.0091,-26.9848 -95.1859,-82.521 -118.5484,-77.6896 -9.4306,1.7319 -38.3082,1.6193 -52.1088,12.2066 -32.8582,31.3721 -17.4087,58.9224 -17.4087,58.9224 -53.4452,-6.32 -62.6626,1.4009 -81.8465,-2.2446 -37.4755,-31.2368 -139.9831,-187.9065 -51.7965,-20.3666 0,0 62.9127,40.8162 -26.0611,28.1434 -37.7077,-2.0928 -89.9852,-0.1188 -103.6827,-40.6499 -14.224,-50.0968 1.5259,-106.9974 -27.8364,-152.9758 -6.5559,-10.7062 -12.823,-27.5421 -23.2906,-32.164 -20.3442,39.5902 -25.1595,85.3065 -31.28,128.8156 -2.8473,34.7741 -6.7546,71.8962 12.1593,103.3548 16.8042,40.9802 24.3017,86.9102 50.9275,123.1349 23.4215,20.5173 57.4871,20.5474 83.618,37.1575 33.1851,13.4096 68.1639,22.5133 100.5534,38.822 27.4457,8.8432 55.7001,15.4081 82.0408,27.8886 58.0194,21.393 114.6589,48.0291 174.1031,64.6086 z m 716.1909,-82.8492 c 15.8362,-5.2404 28.3199,-19.0166 24.12,-36.7278 -7.1379,-67.6369 -16.0494,-136.4423 -30.8688,-203.0739 -15.871,-54.2097 -49.6626,-101.7245 -72.2461,-153.6363 -17.8096,-33.6367 -22.3853,-74.5733 -51.9369,-101.3396 -22.1445,-21.0001 -45.6546,-46.3406 -76.5122,-52.719 -8.7893,13.8745 7.5976,29.8184 15.3533,41.1001 35.386,36.4334 57.1569,84.0159 63.6671,134.2354 7.3625,44.8469 9.3733,90.3232 12.0909,135.6217 21.2863,26.9959 45.2547,52.5319 64.9212,80.4101 0,34.9121 -10.9037,71.2166 -1.3437,105.4924 10.9344,20.9503 27.7698,38.1816 43.5127,55.5517 3.0808,-1.6383 6.1616,-3.2766 9.2425,-4.9148 z m -1665.0716,-42.9439 c 40.452,-0.096 77.0004,-20.4015 117.156,-25.9963 16.5886,-5.1801 36.7157,-4.908 51.1937,-14.3328 10.3018,-21.6533 19.0639,-47.1926 15.8096,-71.1978 -15.8428,-22.6891 -47.2321,-6.305 -68.917,-4.5714 -43.5093,8.9431 -89.0748,10.7978 -131.185,25.3563 -21.2215,8.4626 -22.9951,34.9148 -16.6087,53.4453 4.4091,16.4804 10.006,40.7835 32.5514,37.2967 z m -44.4025,-154.9672 c 101.1152,-39.0965 95.3856,-33.7729 138.6028,-58.2714 17.3588,-12.9546 41.443,-23.8577 48.2438,-45.7381 -2.9971,-12.2113 -21.8328,-4.5042 -30.5578,-7.6177 -43.2224,0.091 -87.3862,-4.9643 -129.7961,2.7756 -21.9226,6.9213 -34.068,34.1268 -44.9958,50.1707 -27.1436,31.2343 -35.0658,50.8848 -30.1092,69.7287 5.3849,4.5804 48.6123,-11.0478 48.6123,-11.0478 z m 1258.385,-175.2497 c 14.3784,-6.0889 1.5534,-25.5729 -0.9978,-35.8627 -25.9509,-59.6538 -54.9513,-118.4016 -89.1933,-173.7301 -25.6709,-27.4989 -59.7801,-15.4049 -93.7531,-27.1017 -25.3321,-4.8446 -57.2281,-30.9127 -82.5981,-33.5099 -16.6933,1.8622 -7.965,24.1378 -6.4159,34.573 7.9903,34.6418 38.6779,57.8437 71.8578,66.21 65.4077,19.0217 122.2188,61.2775 161.981,116.2792 15.7865,14.9813 19.0124,39.7127 36.4804,52.6096 0.8285,0.3536 1.733,0.5837 2.639,0.5324 z m -1268.1181,-1.8487 c 50.7497,3.9608 134.717,15.7914 195.3272,36.8325 41.3606,2.5765 -76.8149,-65.4842 -118.0036,-59.473 -34.5068,-3.5555 -85.4856,-4.773 -119.7299,2.5287 -11.9559,4.1696 -43.347,54.1126 -33.662,51.6786 0,0 44.8637,-23.6483 76.0683,-31.5668 z m 696.0056,-41.4402 c 24.1351,2.7759 31.9243,-29.0986 21.3902,-46.1397 -9.7753,-17.7465 -15.573,-37.4783 -20.1252,-56.7561 -18.3723,-4.668 -18.5674,19.9076 -19.4682,31.9253 0.5083,22.0399 -6.6493,46.6528 2.9867,67.2844 4.0883,3.5676 10.1627,3.2611 15.2165,3.6861 z M 1588.7077,2474.492 c 9.1588,-18.8227 -7.7735,-39.1217 -15.8667,-55.3565 -15.1414,-22.2845 -77.9471,-151.5014 -94.4254,-172.9088 -11.2868,-7.346 39.1548,129.0374 39.1548,129.0374 14.1378,33.2947 41.554,58.7823 59.7219,89.8522 3.1921,3.4882 6.4338,8.4514 11.4154,9.3757 z m 467.6008,-0.5207 c 21.5708,-7.6728 34.5533,-30.0185 51.7383,-44.1739 31.0663,-34.3554 69.1012,-66.0731 86.6202,-110.0488 0.5139,-11.1964 -17.0005,-4.9329 -22.2012,-0.7263 -30.0537,16.5812 -50.2071,46.8613 -80.1195,63.0388 -26.8431,3.0085 -48.3511,-25.0285 -51.9624,-49.3839 -4.931,-18.9024 -18.6328,-35.8157 -33.296,-48.4155 -30.8727,-10.1454 -64.6602,-0.6838 -96.5479,-1.9464 -40.4672,-5.1196 -86.0051,10.6476 -121.1069,-26.9613 -29.6113,26.8136 -82.833,40.1122 -113.7083,44.9928 -42.758,-9.2973 -106.197,36.1701 -128.4673,62.764 -9.8688,9.8101 56.5461,-28.3911 74.0795,-26.3855 20.8492,-21.1245 38.9158,-20.0375 59.1225,-22.4655 25.0717,-3.0126 59.8116,3.759 84.3029,-5.0066 53.6936,-12.9386 98.4576,30.4273 149.9192,35.9834 29.3673,5.0912 60.8546,0.7143 89.0835,10.5619 24.0493,27.1261 34.9772,63.9211 42.5202,98.8102 1.3994,6.0847 1.0231,19.1677 10.0232,19.3626 z m 704.364,-159.8638 c 9.5539,-9.2905 3.6763,-26.8583 0.3632,-38.362 -14.5821,-27.4997 -26.8333,-56.0674 -37.8218,-85.2277 -57.0956,-125.1354 -134.0593,-239.4372 -199.0322,-360.4321 -18.8736,-33.2094 -36.9242,-69.4395 -71.5905,-89.0127 -83.0214,-59.0638 -175.7016,-103.2465 -262.6377,-156.3073 -77.5933,-44.9073 -155.067,-90.2925 -232.2676,-135.6609 -26.9471,-10.6971 -57.3359,-4.192 -85.7847,-6.5305 -66.6596,1.8525 -134.601,-3.1405 -199.4755,13.4195 -55.9591,18.9273 -95.3572,66.1763 -142.8226,99.0694 -32.2982,23.609 -66.7487,47.8216 -82.8804,86.0792 -29.4723,60.3848 -63.3029,118.9072 -87.1276,181.4378 -5.918,13.9668 15.6994,7.6756 19.756,1.6099 16.7985,-11.4916 29.158,-33.6695 50.3706,-36.4917 24.7238,10.354 38.9877,37.3839 62.2397,49.1542 14.5643,-14.5154 7.2291,-40.901 20.2705,-56.3627 27.5409,-7.692 56.9571,3.6812 82.9413,13.0709 16.1915,11.3304 31.5863,9.652 46.3867,-2.8056 59.3753,-33.3846 130.3543,-26.6937 195.8314,-31.9812 38.7614,-3.6034 78.0926,4.0136 111.3733,24.6475 21.034,9.5229 43.6192,30.7862 67.6602,18.1913 26.332,-5.0305 52.3198,-24.7292 79.7528,-16.8014 20.2434,8.6179 11.4499,37.7307 26.3474,49.747 18.4631,8.3285 39.8942,3.5266 52.4062,-12.2459 16.1899,-13.1989 29.1042,-33.9029 49.7148,-40.0008 33.2212,6.0871 58.4775,32.3841 85.7555,50.5385 39.0996,31.2811 83.4056,56.0842 116.675,94.2803 40.0823,39.6778 65.0825,91.4705 90.6866,140.9848 10.0419,30.3375 27.619,62.3773 58.8107,74.8462 22.3793,5.9256 48.6936,7.2662 64.8182,27.0132 41.2484,45.367 75.5469,96.8967 115.6004,143.0009 1.1129,0.6492 2.3651,1.199 3.6801,1.1319 z M 1693.952,2114.4714 c 29.5114,1.3935 54.758,-18.5873 84.6105,-15.5554 52.0767,-3.9641 105.5167,1.7963 156.511,-10.9537 45.725,-13.2361 86.4229,-39.4976 131.5246,-54.5243 17.5322,-5.7391 42.1058,-3.6511 53.6874,-20.1434 4.3608,-18.9138 -19.9505,-26.9995 -34.3733,-24.6526 -24.428,-5.5977 -39.6584,17.9726 -62.1067,21.4931 -32.1129,8.1469 -59.6495,33.2152 -94.3064,27.4715 -69.3709,1.03 -139.1413,-0.4428 -208.2643,2.1366 -36.1518,11.1333 -80.6908,30.2718 -115.1679,4.5836 -26.3793,-14.9578 -54.1413,-37.6951 -86.2873,-33.6167 -18.426,6.3707 -9.0513,28.5992 3.9722,35.3239 43.6593,31.6499 94.192,55.4183 147.1092,66.4159 7.6347,1.2339 15.3533,1.9849 23.091,2.0215 z m 250.1456,-148.8357 c 32.4696,1.3926 55.2736,-25.8867 75.8645,-46.8417 14.9535,-15.1221 -7.7962,-27.5798 -19.6169,-33.7015 -32.7093,-18.2434 -68.6233,-33.4073 -106.9438,-30.2916 -84.8186,0.039 -169.9342,-1.5997 -254.5713,2.6004 -27.039,13.497 -53.7281,30.3486 -73.0197,53.7419 -10.7847,19.5988 15.2238,33.842 27.0979,44.6266 13.9198,13.4512 34.9063,10.8328 49.4142,0.5386 19.4317,-12.3823 40.2443,-23.3972 64.092,-22.1165 63.1142,-2.8511 128.0221,-9.0187 190.0606,5.8832 15.3032,3.593 22.5648,20.0225 36.189,25.1247 3.7902,0.4932 7.6215,0.3862 11.4335,0.4361 z"
       id="path2609"
       sodipodi:nodetypes="ccccccccccccccccccccccccccccccccccccccccccccccccccccccccccccccccccccccccccccccccccccccccccccccccccccccccccccccccccccccccccccccccccccccccccccccccccccccccccccccccccccccccccccccccccccccccccccscccccssccccccccccccccccccsccccsccccccccccccccccccccccccccccccccccccccccsccccccccssccccccccccccccccccccccccccccccscccccccccccccccccccccccccccccccccccccccccccccccccccsccccccccccss" />
  </g>
</svg>
