<?xml version="1.0" encoding="UTF-8" standalone="no"?>
<svg
   xmlns:dc="http://purl.org/dc/elements/1.1/"
   xmlns:cc="http://creativecommons.org/ns#"
   xmlns:rdf="http://www.w3.org/1999/02/22-rdf-syntax-ns#"
   xmlns:svg="http://www.w3.org/2000/svg"
   xmlns="http://www.w3.org/2000/svg"
   xmlns:sodipodi="http://sodipodi.sourceforge.net/DTD/sodipodi-0.dtd"
   xmlns:inkscape="http://www.inkscape.org/namespaces/inkscape"
   width="512"
   height="512"
   viewBox="0 0 135.46666 135.46667"
   version="1.1"
   id="svg8"
   inkscape:version="1.0.1 (3bc2e813f5, 2020-09-07)"
   sodipodi:docname="Fuse Icon.svg">
  <defs
     id="defs2" />
  <sodipodi:namedview
     id="base"
     pagecolor="#ffffff"
     bordercolor="#666666"
     borderopacity="1.0"
     inkscape:pageopacity="0.0"
     inkscape:pageshadow="2"
     inkscape:zoom="0.7"
     inkscape:cx="136.86425"
     inkscape:cy="245.66605"
     inkscape:document-units="mm"
     inkscape:current-layer="layer1"
     inkscape:document-rotation="0"
     showgrid="false"
     units="px"
     inkscape:window-width="1600"
     inkscape:window-height="837"
     inkscape:window-x="-8"
     inkscape:window-y="-8"
     inkscape:window-maximized="1" />
  <metadata
     id="metadata5">
    <rdf:RDF>
      <cc:Work
         rdf:about="">
        <dc:format>image/svg+xml</dc:format>
        <dc:type
           rdf:resource="http://purl.org/dc/dcmitype/StillImage" />
        <dc:title></dc:title>
      </cc:Work>
    </rdf:RDF>
  </metadata>
  <g
     inkscape:label="Layer 1"
     inkscape:groupmode="layer"
     id="layer1">
    <path
       id="path849"
       style="fill:#273839;fill-opacity:1;stroke:none;stroke-width:0.881089px;stroke-linecap:butt;stroke-linejoin:miter;stroke-opacity:1"
       d="m 61.191605,3.175 c -3.12574,3.10679 -3.13661,6.60263 -2.75341,10.14803 0.22512,1.26177 -1.55684,3.39876 -2.67425,0.23575 l -1.57461,-5.26932 -2.20272,14.39515 c -1.43481,-3.29258 -1.58551,-6.86021 -1.57288,-10.46294 -1.66785,4.44971 -3.78775,8.53084 -6.60818,12.03755 -4.3422,4.87956 -9.71954,6.7468 -11.64347,12.90142 0.96576,4.31462 -4.200614,4.17516 -4.09053,5.74258 6.60684,-0.53208 1.312824,17.52457 1.810358,26.58931 -2.411015,-1.08142 -3.348328,0.29407 -3.539842,2.91173 -0.502776,12.49275 1.364166,12.04082 2.674242,14.63264 0.323686,3.4031 -0.100445,5.71896 0.161768,6.56171 0.160869,0.51703 1.673134,1.7499 1.961804,1.01188 0.36254,-0.92693 -0.49837,-4.22171 -0.39236,-7.57359 l -2.892807,-5.11446 c -0.210756,-4.05503 -1.324913,-12.43205 1.633119,-11.01362 1.873998,0.41223 1.812538,2.31425 1.810368,4.16969 -2.230349,7.47628 0.61615,8.5591 2.12356,11.32854 l 3.30409,25.80287 c 4.56229,5.33876 9.62745,10.10273 15.65484,13.76704 -3.76305,-6.31421 -1.5335,-7.87231 1.65205,-0.94477 6.99622,11.16758 22.25673,8.06771 26.90423,0 4.60297,-8.51334 3.3117,-2.81436 1.65204,0.94477 5.60503,-3.92783 11.064,-8.09329 15.49824,-13.92364 2.044455,-8.70599 2.885275,-17.41179 3.460685,-26.11778 l 2.28189,-3.22665 0.31492,-10.46295 c 0.0796,-1.95364 2.11816,-1.21496 2.51764,0 0.76123,3.3303 0.48546,6.66112 0.23576,9.99142 l -2.7534,4.09054 -0.1566,5.27105 c -0.58743,4.12317 1.41904,4.21987 1.25796,0 l 0.23576,-4.87698 c 1.24267,-1.30094 2.48864,-2.59813 3.22492,-4.40545 0.79144,-3.3914 0.55522,-7.1488 -0.0774,-10.14802 -0.69422,-2.46724 -2.164,-3.65475 -4.56377,-3.30409 V 38.33945 l -3.53985,3.14749 C 97.569305,23.07179 78.344525,17.69974 75.509345,10.64878 l -0.62984,4.24885 c -4.00408,-1.82706 -4.98831,-5.07542 -6.60817,-8.02446 l -0.31493,5.11273 C 64.118855,9.40856 61.766335,6.49388 61.191635,3.175 Z m -0.18242,4.80985 6.62023,7.23114 c 1.29797,6.43743 2.59637,6.9176 3.89434,9.06732 l -2.11496,-11.23562 c 5.59464,4.48211 9.43731,10.07882 12.73968,16.01966 l -5.22976,-12.84981 c 7.35127,6.9101 20.35891,9.67244 16.18832,25.03192 1.62429,-1.81841 2.82323,-3.8248 3.50371,-6.06266 2.77524,2.81826 1.53362,6.55577 0.77955,10.18072 1.24233,0.31836 2.48338,-0.86227 3.725705,-1.61418 0.57894,1.64267 0.10834,3.37738 -1.724315,5.22975 0.46731,0.26275 0.879935,0.59451 2.058165,-0.0568 l 0.94648,17.91264 c 0.40408,6.48894 -2.409235,3.5555 -3.114785,-0.222 l -2.50388,-16.91109 c -0.54204,-2.54702 -2.11539,-3.76184 -5.17296,-3.05971 l -3.22665,0.55584 -4.67219,-5.00604 -2.94958,3.83756 -2.33524,0.0568 -6.73035,-6.34144 -0.27879,2.61402 h -2.2251 l -7.06421,-3.56051 -0.11185,5.06283 c 0.0849,1.58164 0.007,2.06954 -1.44555,1.50233 l -3.67235,-2.8928 0.0551,2.11324 c 0.0799,1.01515 -1.05803,1.86914 -2.94786,-0.0551 l -5.72881,-5.61867 -2.05817,2.44709 -6.06438,0.11187 c -2.57755,6.99154 -0.5852,19.6057 -5.72881,29.14825 -0.54667,0.81204 -1.76798,1.54372 -1.89124,-0.222 l 2.0031,-26.14532 c -0.015,-1.21258 -0.78817,-1.99165 -1.83618,-2.61401 5.37178,-6.75815 -3.107054,-1.66151 13.40566,-17.24494 -0.0546,6.61566 2.68538,12.41766 8.39961,17.35507 l -1.89125,-9.34437 6.50836,8.39961 c -0.96526,-11.69093 -0.70183,-22.80419 1.89125,-32.82062 z m 20.13774,46.89397 3.33678,4.78405 6.2313,0.16692 4.28327,6.11945 c 1.28363,1.88631 0.56951,2.60929 -0.83462,1.72432 l -4.72898,-3.7825 -4.00448,0.0551 1.05661,6.11946 c 9.23035,0.21919 11.2043,7.74771 3.44865,10.40271 l 1.66925,2.89108 0.11014,2.11496 -3.33679,-4.56206 -1.16847,0.0551 1.05662,5.22976 -2.94788,-5.00604 c -2.56134,-0.38327 -6.0302,1.45078 -7.67684,-1.16848 l -4.45019,-8.06576 c 3.62086,-2.83019 7.15571,-0.78503 10.23579,-2.28188 V 66.617 c 0,3.0595 -4.5299,-0.13677 -10.84671,3.89263 -0.68556,-2.84437 -1.43221,-5.70541 9.95701,-5.17296 V 63.7242 l -8.95545,0.6677 v -4.56205 h 8.06576 z m -35.88034,4.78405 16.46537,0.0551 v 4.6739 c -5.41329,-0.88784 -10.23968,-0.60213 -15.24183,-0.6677 l -5.39495,4.45019 -1.11342,-0.61263 z m 3.88918,6.1728 h 8.85049 c 1.79153,1.9202 1.97642,4.37445 2.59509,6.68561 l -4.09054,-4.05095 -7.35504,-0.0792 z m 1.93599,4.4106 c 3.16154,-0.11002 5.41334,1.2577 7.22769,3.33679 -7.29406,1.86902 -11.30391,0.8273 -14.00279,-1.37671 2.65402,-1.2963 4.87818,-1.89403 6.7751,-1.96008 z m -14.62059,14.25061 c 0.51084,-0.004 1.18126,0.29131 1.8706,0.90518 4.23704,-0.22212 3.93206,2.7236 3.7825,5.56189 0.74695,2.93485 -0.64772,2.77539 -1.78112,1.61418 l -4.45019,-5.67546 c -0.68294,-1.56667 -0.27319,-2.3999 0.57821,-2.40579 z m 62.34402,0.12734 c 0.85141,0.006 1.259435,0.84084 0.5765,2.40752 l -4.45019,5.67373 c -1.1334,1.16121 -2.52637,1.3224 -1.77939,-1.61246 -0.14959,-2.83828 -0.45455,-5.78572 3.78248,-5.5636 0.68934,-0.61388 1.35976,-0.90872 1.8706,-0.90519 z m -24.11468,0.79677 c 1.09814,0.0729 3.6301,1.91134 5.44486,3.2232 4.29017,3.22731 9.41244,10.9222 -1.3354,1.6142 -0.80442,2.47442 -2.43898,2.66734 -4.06127,2.89279 l 2.22165,1.77423 c 9.7641,-1.04632 10.1808,9.02114 17.19331,13.74466 -6.16169,2.03396 -9.26245,-0.47584 -12.01518,-3.50371 l -0.50078,3.00294 c -9.64192,-4.96769 -18.91434,-4.89566 -27.81457,0.22371 l -0.61092,-3.00466 c -3.07994,2.81418 -6.42026,5.04888 -11.40426,3.61558 3.14814,-2.89081 5.8996,-6.12224 8.01069,-9.90195 3.02583,-4.69774 7.15751,-4.30456 10.8467,-5.9508 h -2.50216 l -1.55911,-2.22509 c -3.79646,3.83914 -11.79819,6.71508 -1.16676,-2.61574 8.82291,-6.38258 3.71137,-0.25956 4.45019,1.39047 l 4.56033,3.45036 c 2.52888,2.33624 4.60591,1.73565 6.50837,0 l 4.78405,-3.61557 c -1.89081,-3.15878 -1.90384,-4.17132 -1.04974,-4.11462 z m 0.54896,25.19712 c -5.51552,11.13417 -10.33683,10.87438 -14.51734,0.0551 5.00428,2.61692 9.80894,2.06198 14.51734,-0.0551 z" />
  </g>
</svg>
