<?xml version="1.0" encoding="UTF-8" standalone="no"?>
<svg
   xmlns:dc="http://purl.org/dc/elements/1.1/"
   xmlns:cc="http://creativecommons.org/ns#"
   xmlns:rdf="http://www.w3.org/1999/02/22-rdf-syntax-ns#"
   xmlns:svg="http://www.w3.org/2000/svg"
   xmlns="http://www.w3.org/2000/svg"
   xmlns:sodipodi="http://sodipodi.sourceforge.net/DTD/sodipodi-0.dtd"
   xmlns:inkscape="http://www.inkscape.org/namespaces/inkscape"
   version="1.1"
   id="Layer_4_1_"
   x="0px"
   y="0px"
   viewBox="0 0 37 37"
   style="enable-background:new 0 0 37 37;"
   xml:space="preserve"
   sodipodi:docname="Gibraltar_Icon.svg"
   inkscape:version="1.0.1 (3bc2e813f5, 2020-09-07)"><metadata
   id="metadata17"><rdf:RDF><cc:Work
       rdf:about=""><dc:format>image/svg+xml</dc:format><dc:type
         rdf:resource="http://purl.org/dc/dcmitype/StillImage" /><dc:title></dc:title></cc:Work></rdf:RDF></metadata><defs
   id="defs15" /><sodipodi:namedview
   pagecolor="#ffffff"
   bordercolor="#666666"
   borderopacity="1"
   objecttolerance="10"
   gridtolerance="10"
   guidetolerance="10"
   inkscape:pageopacity="0"
   inkscape:pageshadow="2"
   inkscape:window-width="1600"
   inkscape:window-height="837"
   id="namedview13"
   showgrid="false"
   inkscape:zoom="18.108108"
   inkscape:cx="18.5"
   inkscape:cy="18.5"
   inkscape:window-x="-8"
   inkscape:window-y="-8"
   inkscape:window-maximized="1"
   inkscape:current-layer="Layer_4_1_" />
<style
   type="text/css"
   id="style2">
	.st0{fill:#241C1C;}
</style>
<path
   class="st0"
   d="M4.9,15.9c0,0-1.4,0.5-1.4,2v2.6c0,0,0.6,6.4,2.1,6.4c0,0,0.4,0,0-0.4c-0.4-0.4-1-2.9-1-2.9s0.7,1.7,1.1,1.7  s0.6-1.3,0.6-1.6s0.2-3.2-0.7-3.2s0.3,1.3,0.3,1.9s-0.2,1.1-0.4,1.1s-1-2.8-1-3.5s0.2-2.1,0.4-2.1s0.5,0.8,0.6,0.6  c0.1-0.1-0.1-1-0.5-1.3C5,17,5.3,15.9,4.9,15.9z"
   id="path4"
   style="fill:#273839;fill-opacity:1" />
<path
   class="st0"
   d="M21.1,0.9c-0.8-0.2-1.7-0.3-2.5-0.3c0,0,0,0-0.1,0c0,0,0,0-0.1,0c-0.8,0-1.7,0.1-2.5,0.3  c-3.4,0.9-11.1,4-11.1,14.8c0,0.4,0.3,0.7,0.7,0.7c0,0,0,0,0,0c0,0,0,0,0,0c0.4,0,0.7-0.3,0.7-0.7c0-9.9,6.8-12.7,9.9-13.5  C16.9,2,17.7,2,18.5,2c0.8,0,1.6,0.1,2.3,0.3c3.1,0.8,9.9,3.6,9.9,13.5c0,0.4,0.3,0.7,0.7,0.7c0,0,0,0,0,0c0,0,0,0,0,0  c0.4,0,0.7-0.3,0.7-0.7C32.1,4.9,24.4,1.7,21.1,0.9z"
   id="path6"
   style="fill:#273839;fill-opacity:1" />
<path
   class="st0"
   d="M32.1,15.9c0,0,1.4,0.5,1.4,2v2.6c0,0-0.6,6.4-2.1,6.4c0,0-0.4,0,0-0.4c0.4-0.4,1-2.9,1-2.9s-0.7,1.7-1.1,1.7  c-0.4,0-0.6-1.3-0.6-1.6s-0.2-3.2,0.7-3.2c1,0-0.3,1.3-0.3,1.9s0.2,1.1,0.4,1.1c0.2,0,1-2.8,1-3.5s-0.2-2.1-0.4-2.1  s-0.5,0.8-0.6,0.6c-0.1-0.1,0.1-1,0.5-1.3C32,17,31.7,15.9,32.1,15.9z"
   id="path8"
   style="fill:#273839;fill-opacity:1" />
<path
   class="st0"
   d="M23.9,20.4c0.6,0.6,2.8,2.4,3.3,2.4c0.6,0,1-0.1,1.8-0.9c0.8-0.8,1.3-5.7,1.3-5.7c-0.6,0-1.9,1.4-2.3,1.4  c-0.4,0-1.1-0.9-1.7-0.9c-0.6,0-2.3,0.5-2.8,0c-0.5-0.5-3.3-0.4-3.3-0.4c0-0.9,1.4-1.9,1.6-2.1c0.2-0.2,2.6-0.5,3.8-0.5  c1.3,0,2,2.1,2.6,2.1c0.6,0,1.1-0.6,1.1-1.8s-0.9-0.9-0.9-3.1s-2.1-5.7-2.8-5.7c-0.6,0-3.8,3.2-3.8,4.6s0.5,1.9,0.5,1.9  c0.4-0.4,3-1.5,3-1c0,0.5-1.7,2.3-2.8,2.3c-1.1,0-2.6-1.8-2.6-3c0-1.2,3.4-6,3.4-6h-0.9c-1.6,0-3.2,3.7-3.2,3.7  c0-1.1,1.1-3.9,1.1-3.9h-1.9h-1.9c0,0,1.1,2.8,1.1,3.9c0,0-1.7-3.7-3.2-3.7h-0.9c0,0,3.4,4.8,3.4,6c0,1.2-1.5,3-2.6,3  s-2.8-1.8-2.8-2.3c0-0.5,2.7,0.7,3,1c0,0,0.5-0.6,0.5-1.9s-3.2-4.6-3.8-4.6c-0.6,0-2.8,3.6-2.8,5.7S7.7,12.9,7.7,14s0.5,1.8,1.1,1.8  s1.4-2.1,2.6-2.1c1.3,0,3.6,0.3,3.8,0.5c0.2,0.2,1.6,1.2,1.6,2.1c0,0-2.8-0.1-3.3,0.4c-0.5,0.5-2.2,0-2.8,0c-0.6,0-1.3,0.9-1.7,0.9  s-1.8-1.4-2.3-1.4c0,0,0.6,4.9,1.3,5.7c0.8,0.8,1.2,0.9,1.8,0.9c0.6,0,2.7-1.7,3.3-2.4c0,0-1.2,5-5.3,5h-1c0,0,0.4,3.3,1.3,3.3  s4.9-4.7,5-4.6c0.1,0.1,0.2,1-0.3,1.5c-0.6,0.6-3.8,4.4-3.8,5.3c0,0.8,0.3,0.7,0.5,0.7c0.2,0,2-3,2.2-2.8s0.1,3.2,0.1,3.2  s0.4,2.3,1.6,2.3s1.5-1.5,1.5-2.8c0,0,0.2-0.2,0.6,0.2c0.4,0.4,1.1,1.9,1.1,2.1c0,0.3-1.8,1.9-1.5,2.2c0.3,0.3,0.7,0.5,1.2,0  c0.5-0.5,1.8-1.3,1.8-3.1s-1.4-3.3-1.4-3.7c0-0.3,0.1-0.4,0.1-0.4h2h2c0,0,0.1,0.1,0.1,0.4c0,0.3-1.4,1.9-1.4,3.7s1.3,2.6,1.8,3.1  s0.9,0.3,1.2,0c0.3-0.3-1.5-1.9-1.5-2.2c0-0.3,0.7-1.7,1.1-2.1c0.4-0.4,0.6-0.2,0.6-0.2c0,1.4,0.3,2.8,1.5,2.8s1.6-2.3,1.6-2.3  s-0.1-3,0.1-3.2c0.2-0.2,2,2.8,2.2,2.8c0.2,0,0.5,0.1,0.5-0.7c0-0.8-3.2-4.7-3.8-5.3c-0.6-0.6-0.4-1.4-0.3-1.5  c0.1-0.1,4.1,4.6,5,4.6c0.9,0,1.3-3.3,1.3-3.3h-1C25.1,25.4,23.9,20.4,23.9,20.4z M15.3,17.1c1.4,0,1.6,2.8,1.6,4.1  c0,1.3,1.6,1.3,1.6,1.3s1.6,0,1.6-1.3c0-1.3,0.2-4.1,1.6-4.1c1.4,0,0.3,0.7,0.2,0.8c-0.1,0.1-1,1.2-1,2.7c0,1.5,0.4,1.3,0.4,1.7  c0,0.4-1.5,2.1-2.8,2.1s-2.8-1.8-2.8-2.1c0-0.4,0.4-0.2,0.4-1.7c0-1.5-0.9-2.6-1-2.7C15,17.8,14,17.1,15.3,17.1z M24.2,28  c0,0.2-0.5,0.8-1.3,0c-0.8-0.8-4.4-0.8-4.4-0.8s-3.6-0.1-4.4,0.8c-0.8,0.8-1.3,0.2-1.3,0c0-0.2,0.6-1,1.2-1s3-1.1,4.5-1.1  S22.4,27,23,27S24.2,27.8,24.2,28z"
   id="path10"
   style="fill:#273839;fill-opacity:1" />
</svg>
