<?xml version="1.0" encoding="UTF-8" standalone="no"?>
<!-- Generator: Adobe Illustrator 22.1.0, SVG Export Plug-In . SVG Version: 6.00 Build 0)  -->

<svg
   xmlns:dc="http://purl.org/dc/elements/1.1/"
   xmlns:cc="http://creativecommons.org/ns#"
   xmlns:rdf="http://www.w3.org/1999/02/22-rdf-syntax-ns#"
   xmlns:svg="http://www.w3.org/2000/svg"
   xmlns="http://www.w3.org/2000/svg"
   xmlns:sodipodi="http://sodipodi.sourceforge.net/DTD/sodipodi-0.dtd"
   xmlns:inkscape="http://www.inkscape.org/namespaces/inkscape"
   version="1.1"
   id="Layer_4_1_"
   x="0px"
   y="0px"
   viewBox="0 0 37 37"
   style="enable-background:new 0 0 37 37;"
   xml:space="preserve"
   sodipodi:docname="Lifeline_Icon.svg"
   inkscape:version="0.92.4 (5da689c313, 2019-01-14)"><metadata
   id="metadata23"><rdf:RDF><cc:Work
       rdf:about=""><dc:format>image/svg+xml</dc:format><dc:type
         rdf:resource="http://purl.org/dc/dcmitype/StillImage" /></cc:Work></rdf:RDF></metadata><defs
   id="defs21" /><sodipodi:namedview
   pagecolor="#ffffff"
   bordercolor="#666666"
   borderopacity="1"
   objecttolerance="10"
   gridtolerance="10"
   guidetolerance="10"
   inkscape:pageopacity="0"
   inkscape:pageshadow="2"
   inkscape:window-width="1366"
   inkscape:window-height="705"
   id="namedview19"
   showgrid="false"
   inkscape:zoom="6.3783784"
   inkscape:cx="-1.0190678"
   inkscape:cy="18.5"
   inkscape:window-x="-8"
   inkscape:window-y="-8"
   inkscape:window-maximized="1"
   inkscape:current-layer="Layer_4_1_" />
<style
   type="text/css"
   id="style2">
	.st0{fill:#241C1C;}
</style>
<path
   class="st0"
   d="M35.8,3.3c0-0.6-0.7-1.2-1.4-1.9c-0.6-0.6-4.6-0.6-6.3-0.6s-3.1,3-3.6,2.5c-0.5-0.5-1.9-0.7-3-0.7  s-1.5,0.9-2,0.9c-0.4,0-1,0-1,0s-0.6,0-1,0c-0.4,0-0.9-0.9-2-0.9s-2.5,0.2-3,0.7C12,3.8,10.6,0.8,8.9,0.8s-5.6,0-6.3,0.6  S1.2,2.7,1.2,3.3s-0.6,4-0.6,5.6c0,0,0,0.7,0.7,1.4s2.4,2.3,3.7,2.3s0.8-1,1.9-1s-1-0.7-1.8-0.7S4.7,9.4,4,9.4S2.1,8.7,2.1,7.4  s0.9-4.7,1.4-4.7S8,1.8,8.4,2.2c0.4,0.4,3.4,2.8,4.1,2.8c0.7,0,1.4-1.1,2.6-1.1s2,0.9,2.4,0.9s1,0,1,0s0.7,0,1,0S20.6,4,21.9,4  s2,1.1,2.6,1.1s3.6-2.4,4.1-2.8s4.4,0.5,4.9,0.5s1.4,3.4,1.4,4.7S33.8,9.4,33,9.4c-0.7,0-0.4,1.4-1.2,1.4s-2.9,0.7-1.8,0.7  s0.7,1,1.9,1s3-1.6,3.7-2.3c0.7-0.7,0.7-1.4,0.7-1.4C36.4,7.2,35.8,3.9,35.8,3.3z"
   id="path4"
   style="fill:#2b3b3c;fill-opacity:1" />
<path
   class="st0"
   d="M18.3,10.7c-0.2,0-0.4-0.2-0.4-0.4c0,0-0.3-0.3-0.4-0.5C17.1,9.3,17,9.1,17,8.9c0-0.2,0-0.4,1.4-1.4L18,6.1  c-0.1-0.2,0.1-0.4,0.3-0.5c0.2-0.1,0.4,0.1,0.5,0.3l0.5,1.9l-0.2,0.2c-0.5,0.4-1,0.8-1.2,1C17.9,9,18,9.2,18.1,9.3  c0.4,0.5,0.5,0.8,0.5,1C18.7,10.5,18.5,10.7,18.3,10.7z"
   id="path6"
   style="fill:#2b3b3c;fill-opacity:1" />
<path
   class="st0"
   d="M18.5,16.9H7.8c0,0-0.7-0.1-0.7-1c0-0.9,0-0.9-0.6-0.9S6,13.8,6.2,13.6c0.2-0.2,1.1-1,1.4-0.8  c0.2,0.2,0.7,0.5,1.2,0.1s5.5-1.8,9.7-1.8s12.4,1.7,12.4,2.9c0,0,0.2,0.3-0.5,0.3s-0.4,2-0.4,2.2s-0.3,0.4-0.6,0.4  S18.5,16.9,18.5,16.9z"
   id="path8"
   style="fill:#2b3b3c;fill-opacity:1" />
<path
   class="st0"
   d="M26.9,17.9c0,0,0.4,0.6,0.4,1c0,0-1-0.5-2-0.5s-3.2,0.5-3.8,1C21,20,20.7,19.2,21,19c0.3-0.3,1.5-1.1,1.5-1.1  h-4h-4c0,0,1.3,0.8,1.5,1.1c0.3,0.3-0.1,1-0.7,0.4c-0.6-0.6-2.7-1-3.7-1s-2,0.5-2,0.5c0-0.4,0.4-1,0.4-1H8.6v0.2c0,0.8,0,1.9,0.1,3  l0,0c0,0-1.5-2.1-2.7-2.1s-0.6,1.3-0.6,1.6c0,0.3,2.1,4,2.1,4.7c0,0.7,1.2,1,1.3,0.9c0.1-0.1-0.2-1.5-0.5-1.5c-0.3,0-1.2-1-1.2-1.7  c0-0.7-0.3-2.2-0.8-2.2c0,0,0.4-0.1,0.9,0.3c0.5,0.5,0.9,1.2,0.9,1.6s-0.4,0.7-0.4,0.9c0,0.2,0.6,0.7,0.9,0.7c0.2,0,0.7,1.2,1,1.9  c0.1,0.2,0.1,0.4,0.2,0.6c0,0,0,0,0,0c0,0,0,0,0,0c0.6,1.8,1.3,3.5,2.4,4.6c3,3,6.3,3.1,6.3,3.1s3.3-0.2,6.3-3.1s3.6-9.9,3.6-13.4  v-0.2H26.9z M16.9,26.9c0.3,0,0.9,0.4,1.6,0.4s1.3-0.4,1.6-0.4c0.3,0,0.7,0,0.7,0c-1.3,1.3-2.3,1.2-2.3,1.2s-1,0.1-2.3-1.2  C16.2,26.9,16.6,26.9,16.9,26.9z M13.3,22.3c-0.7,0-2.7-0.2-2.7-1.9h3.3c0,0,2,0.7,2,1.6c0,0-1.1,0-1.6,0C13.9,22,14,22.3,13.3,22.3  z M18.5,31.6c0,0-1.4,0.2-3.8-2.2c0,0,3-0.7,3.8,0.1c0.8-0.8,3.8-0.1,3.8-0.1C19.9,31.8,18.5,31.6,18.5,31.6z M23.7,22.3  c-0.7,0-0.6-0.3-1.1-0.3c-0.5,0-1.6,0-1.6,0c0-0.9,2-1.6,2-1.6h3.3C26.4,22.1,24.4,22.3,23.7,22.3z"
   id="path10"
   style="fill:#2b3b3c;fill-opacity:1" />
<path
   class="st0"
   d="M29.5,18.7l1.4,0.6c0,0-1.2,5.7-1.2,6.7s-0.3,4.8-0.3,4.8l-3.8,3.6v-0.7l3.1-3.2l0.3-4c0,0-0.3-0.4-0.6-0.4  C28.5,26,28.7,21.2,29.5,18.7z"
   id="path12"
   style="fill:#2b3b3c;fill-opacity:1" />
<path
   class="st0"
   d="M31.3,20.1l0.8,0.5c0,0-0.8,3.1-0.8,3.7l-0.8,0.2C30.5,24.6,31,21.3,31.3,20.1z"
   id="path14"
   style="fill:#2b3b3c;fill-opacity:1" />
<path
   class="st0"
   d="M24.9,33.8v1.4l-1,0.9c0,0-0.7-0.9-0.4-1.2C23.8,34.8,24.7,33.9,24.9,33.8z"
   id="path16"
   style="fill:#2b3b3c;fill-opacity:1" />
</svg>