<?xml version="1.0" encoding="UTF-8" standalone="no"?>
<svg
   version="1.1"
   id="Layer_1"
   x="0px"
   y="0px"
   width="512"
   height="512"
   viewBox="0 0 512 512"
   enable-background="new 0 0 89 108"
   xml:space="preserve"
   sodipodi:docname="Loba_Icon (1).svg"
   inkscape:version="1.1 (c68e22c387, 2021-05-23)"
   xmlns:inkscape="http://www.inkscape.org/namespaces/inkscape"
   xmlns:sodipodi="http://sodipodi.sourceforge.net/DTD/sodipodi-0.dtd"
   xmlns="http://www.w3.org/2000/svg"
   xmlns:svg="http://www.w3.org/2000/svg"><defs
   id="defs6" /><sodipodi:namedview
   id="namedview4"
   pagecolor="#505050"
   bordercolor="#eeeeee"
   borderopacity="1"
   inkscape:pageshadow="0"
   inkscape:pageopacity="0"
   inkscape:pagecheckerboard="0"
   showgrid="false"
   inkscape:zoom="0.625"
   inkscape:cx="164.8"
   inkscape:cy="236"
   inkscape:window-width="1366"
   inkscape:window-height="697"
   inkscape:window-x="-8"
   inkscape:window-y="-8"
   inkscape:window-maximized="1"
   inkscape:current-layer="Layer_1"
   inkscape:object-nodes="false" />  
<g
   id="g7280"><g
     id="g5269" /><g
     id="g7177" /></g><g
   id="g8364"
   transform="matrix(4.7020808,0,0,4.7020808,49.220399,1.8627307)"><path
     style="fill:#273839;fill-opacity:1;stroke:none;stroke-width:1px;stroke-linecap:butt;stroke-linejoin:miter;stroke-opacity:1"
     d="m 73.293433,60.5 -0.461434,-5.557803 -1.060661,2.687006 0.282843,4.879037 z"
     id="path5665" /><path
     style="fill:none;stroke:#273839;stroke-width:1px;stroke-linecap:round;stroke-linejoin:round;stroke-opacity:1"
     d="m 22.3,13 c 0.246094,2.528693 0.859614,4.923777 4,6.4"
     id="path3735"
     sodipodi:nodetypes="cc" /><g
     id="g8238"><path
       style="fill:#273839;fill-opacity:1;stroke:none;stroke-width:1px;stroke-linecap:butt;stroke-linejoin:miter;stroke-opacity:1"
       d="m 30.6,25.5 c -2.049711,-2.036116 -2.745203,-4.097311 -1.2,-6.2 -0.01375,2.066667 0.556754,4.133333 1.2,6.2 z"
       id="path3865"
       sodipodi:nodetypes="ccc" /><path
       style="fill:none;stroke:#273839;stroke-width:1px;stroke-linecap:round;stroke-linejoin:round;stroke-opacity:1"
       d="m 8.35,20.9 c 0.3744109,1.791298 1.3461275,3.306916 3.45,4.3"
       id="path2379"
       sodipodi:nodetypes="cc" /><path
       style="fill:none;stroke:#273839;stroke-width:1px;stroke-linecap:round;stroke-linejoin:round;stroke-opacity:1"
       d="m 13.50574,12.727922 c -2.073363,3.816057 -3.349948,7.612681 2.192031,11.242998"
       id="path2547"
       sodipodi:nodetypes="cc" /><path
       style="fill:none;stroke:#273839;stroke-width:1px;stroke-linecap:round;stroke-linejoin:round;stroke-opacity:1"
       d="m 14.5,26.4 c -4.8992177,4.471387 -4.4262,12.748108 -3,21.7"
       id="path2677"
       sodipodi:nodetypes="cc" /><path
       style="fill:none;stroke:#273839;stroke-width:1px;stroke-linecap:round;stroke-linejoin:round;stroke-opacity:1"
       d="m 15.414928,14.142136 c -0.383844,7.266101 3.513628,10.409453 10.323759,10.748023"
       id="path3437"
       sodipodi:nodetypes="cc" /><path
       style="fill:none;stroke:#273839;stroke-width:1px;stroke-linecap:round;stroke-linejoin:round;stroke-opacity:1"
       d="m 17,11.3 c 2.505744,-2.1356869 5.12769,-2.2959355 7.9,0.1"
       id="path3567"
       sodipodi:nodetypes="cc" /><path
       style="fill:#273839;fill-opacity:1;stroke:none;stroke-width:1px;stroke-linecap:butt;stroke-linejoin:miter;stroke-opacity:1"
       d="m 32.173359,18.667619 c 4.407055,0.02857 8.753596,0.581598 12.374368,7.424621 3.098734,-6.54319 7.940226,-7.393371 13.010765,-7.495332 -4.04902,0.309469 -7.743685,-2.469009 -12.657211,5.374012 L 44.83057,5.7982756 44.052753,23.900209 c -3.456632,-6.356554 -7.636229,-6.085922 -11.879394,-5.23259 z"
       id="path4033"
       sodipodi:nodetypes="ccccccc" /><path
       style="fill:#273839;fill-opacity:1;stroke:none;stroke-width:1px;stroke-linecap:butt;stroke-linejoin:miter;stroke-opacity:1"
       d="M 25.809398,13.435029 C 33.554644,9.4766168 39.13514,11.290871 42.921382,17.889802 38.126926,11.516109 32.096917,11.783511 25.809398,13.435029 Z"
       id="path4353"
       sodipodi:nodetypes="ccc" /><path
       style="fill:#273839;fill-opacity:1;stroke:none;stroke-width:1px;stroke-linecap:butt;stroke-linejoin:miter;stroke-opacity:1"
       d="m 47.305444,17.111984 c 3.522164,-6.778279 9.362257,-5.940508 15.485638,-4.17193 -5.591041,-0.571241 -11.182843,-1.145954 -15.485638,4.17193 z"
       id="path4483"
       sodipodi:nodetypes="ccc" /><path
       style="fill:#273839;fill-opacity:1;stroke:none;stroke-width:1px;stroke-linecap:butt;stroke-linejoin:miter;stroke-opacity:1"
       d="m 58.580073,25.7 c 2.049711,-2.036116 2.745203,-4.097311 1.2,-6.2 0.01375,2.066667 -0.556754,4.133333 -1.2,6.2 z"
       id="path3865-0"
       sodipodi:nodetypes="ccc" /><path
       style="fill:none;stroke:#273839;stroke-width:1px;stroke-linecap:round;stroke-linejoin:round;stroke-opacity:1"
       d="m 80.392785,21.157515 c -0.374411,1.791298 -1.346128,3.306916 -3.45,4.3"
       id="path2379-5"
       sodipodi:nodetypes="cc" /><path
       style="fill:none;stroke:#273839;stroke-width:1px;stroke-linecap:round;stroke-linejoin:round;stroke-opacity:1"
       d="m 75.237045,12.985438 c 2.073363,3.816057 3.349948,7.612681 -2.192031,11.242997"
       id="path2547-5"
       sodipodi:nodetypes="cc" /><path
       style="fill:none;stroke:#273839;stroke-width:1px;stroke-linecap:round;stroke-linejoin:round;stroke-opacity:1"
       d="m 74.242785,26.657515 c 4.899218,4.471387 4.4262,12.748108 3,21.7"
       id="path2677-1"
       sodipodi:nodetypes="cc" /><path
       style="fill:none;stroke:#273839;stroke-width:1px;stroke-linecap:round;stroke-linejoin:round;stroke-opacity:1"
       d="m 73.327857,14.399652 c 0.383844,7.2661 -3.513628,10.409452 -10.323759,10.748023"
       id="path3437-7"
       sodipodi:nodetypes="cc" /><path
       style="fill:none;stroke:#273839;stroke-width:1px;stroke-linecap:round;stroke-linejoin:round;stroke-opacity:1"
       d="m 71.742785,11.557516 c -2.505744,-2.1356872 -5.12769,-2.2959358 -7.9,0.1"
       id="path3567-2"
       sodipodi:nodetypes="cc" /><path
       style="fill:none;stroke:#273839;stroke-width:1px;stroke-linecap:round;stroke-linejoin:round;stroke-opacity:1"
       d="m 66.442785,13.257516 c -0.246094,2.528693 -0.859614,4.923777 -4,6.399999"
       id="path3735-0"
       sodipodi:nodetypes="cc" /><path
       style="fill:#273839;fill-opacity:1;stroke:none;stroke-width:1px;stroke-linecap:butt;stroke-linejoin:miter;stroke-opacity:1"
       d="m 51.901638,64.700271 c 1.844523,-2.559444 9.191546,1.141915 12.020815,-1.626346 l 6.363961,-7.566043 1.06066,0.636396 -6.788225,7.566043 c -1.347575,2.039207 -7.592411,1.163377 -12.657211,0.98995 z"
       id="path5733"
       sodipodi:nodetypes="cccccc" /><path
       style="fill:#273839;fill-opacity:1;stroke:none;stroke-width:1px;stroke-linecap:butt;stroke-linejoin:miter;stroke-opacity:1"
       d="m 36.422718,65.228533 c -1.844523,-2.559444 -9.391546,0.541915 -12.220815,-2.226346 -2.757887,-5.265829 -5.614891,-6.765169 -8.463961,-8.566043 l 1.198439,2.078338 c 3.371695,1.791621 4.575838,3.731557 6.629126,7.124101 1.347575,2.039207 7.792411,1.763377 12.857211,1.58995 z"
       id="path5733-8"
       sodipodi:nodetypes="cccccc" /><g
       id="g7985"><path
         style="fill:#273839;fill-opacity:1"
         d="M 33.258376,102.11 C 26.91026,97.092103 20.572689,88.874628 18.483006,82.951833 15.525755,74.570091 13,63.155353 13,58.172281 13,53.822796 12.60266,52.843447 9.9232747,50.588894 8.2310758,49.165002 6.2382187,48 5.4947033,48 4.7511879,48 3.4309461,47.288089 2.5608325,46.417975 1.2429314,45.100074 1.0620683,42.986888 1.4775141,33.760594 1.8142618,26.282042 2.4672178,21.935881 3.4881102,20.377802 4.3196496,19.108713 5,16.540221 5,14.670042 5,9.9506157 7.9626079,6.6533333 14.636987,3.9444009 20.261788,1.6614615 20.383405,1.6554179 24.914572,3.4336721 27.436557,4.4234238 30.4,5.1709568 31.5,5.0948565 44.24494,4.2131351 52.940461,4.2268431 55.21425,5.1322407 c 2.21395,0.8815698 3.516331,0.6925035 7.065725,-1.0257283 5.494551,-2.6598664 6.462114,-2.6376005 13.108286,0.3016522 6.047658,2.6745614 8.591445,5.7260164 8.955987,10.7433494 0.133809,1.841667 0.781972,4.323701 1.440361,5.51563 0.803341,1.454344 1.059492,5.724293 0.778785,12.98204 C 86.1908,43.28267 85.906601,44.657212 83.96177,46.232041 82.760934,47.204418 80.851218,48 79.717957,48 c -1.133262,0 -2.949154,0.7875 -4.035316,1.75 -1.553411,1.376551 -1.874555,1.429901 -1.504898,0.25 0.258467,-0.825 1.786712,-2.085887 3.396099,-2.80197 5.272583,-2.345993 5.92233,-2.876479 6.252922,-5.1052 0.17972,-1.211603 -0.212881,-2.853145 -0.872445,-3.647872 -0.408334,-0.492013 -2.778841,-1.78752 -2.798947,-2.024409 C 80.13479,36.178048 82.473895,37 82.858503,37 c 1.642357,0 2.544271,-4.809758 1.204606,-6.423958 -0.247828,-0.822993 -4.254645,0.02641 -4.353138,-0.115498 -0.106095,-0.13733 3.787728,-1.16271 4.241471,-1.930533 1.543042,-0.953653 1.276017,-4.760255 -0.513102,-7.31458 -0.858912,-1.22627 -1.482093,-3.013898 -1.384845,-3.972506 C 82.553705,12.312164 79.47355,7.342456 75.5,6.6691203 74.298941,5.9843772 75.718831,11.656996 74.959855,11.400439 73.946258,9.6324513 72.599017,5.57433 70.769029,5.0132608 68.327909,3.8360845 67.508364,3.9711251 63.047294,6.2856108 58.327883,8.7341282 57.88849,8.7910818 54.965912,7.3331079 53.015507,6.3601178 50.699283,6.0204252 48.687647,6.4123504 44.746468,7.1802064 44.252502,7.1808168 40.38228,6.4226135 38.436792,6.0414788 36.153205,6.3865346 34.30875,7.3403391 31.534511,8.774954 31.035725,8.7118595 26.188948,6.3132164 L 21.024955,3.757585 17.449249,5.2088578 C 15.777215,6.9688165 15.088608,9.1070169 14.631026,11.334072 14.502485,9.6271939 13.748066,8.0341115 15.565484,5.9734222 9.4523276,8.4545706 7.0152172,11.357743 6.9681966,16.214817 c 0.3387298,2.476039 0.6336753,2.736014 -1.5,5.226313 -1.7431293,2.304623 -1.9265305,6.157572 -0.3397804,7.138236 0.4029081,0.24901 2.6559094,1.76187 4.4749459,1.880959 -2.7940001,1.087299 -3.3419194,0.0692 -4.9749459,-0.272252 -2.0282712,1.135079 -2.1101389,4.167243 -0.156295,5.78879 0.7093063,1.363865 4.55322,0.357197 4.5428558,0.507557 0.00828,0.483824 -3.8866014,2.111988 -4.5428558,2.186316 C 3.6624545,39.480403 3,40.815298 3,41.63717 3,43.87464 4.9047912,46.996969 6.2851838,47.022236 6.9533327,47.034466 8.625,47.924459 10,49 c 1.375,1.075541 2.781776,1.965534 3.12617,1.977764 C 13.470563,50.989994 13.952907,48.6375 14.198045,45.75 15.152228,34.510593 21.281094,27.64002 30.320034,27.67695 33.169015,27.68859 40.225,27.717903 46,27.742089 c 5.775,0.02419 12.133712,0.04649 14.13047,0.04957 7.761895,0.01196 13.330862,7.773234 12.711722,17.715871 -0.188206,3.022358 -0.03298,5.494582 0.344937,5.493832 1.225893,-0.0024 -0.392694,7.453879 -1.953388,8.998637 -0.833511,0.825 -1.213317,0.958195 -0.844013,0.295989 0.369303,-0.662207 0.387248,-2.336404 0.03988,-3.72044 -0.555765,-2.214342 -0.808104,-2.339908 -2.102023,-1.045989 -1.586642,1.586642 -2.397471,1.774997 -6.497703,1.509415 -3.136792,-0.203178 -7.555667,1.895554 -10.242776,4.864777 -2.266404,2.504347 -1.578061,3.696959 1.257804,2.179251 1.566846,-0.838551 2.374844,-0.720394 3.625394,0.530157 0.885057,0.885056 3.896847,2.478433 6.692867,3.540837 4.510175,1.713732 5.012877,1.747156 4.456125,0.296283 -0.431255,-1.123833 0.02577,-1.806207 1.461114,-2.181558 1.272195,-0.332687 1.655474,-0.813922 0.980492,-1.231083 -0.728119,-0.450003 -0.363841,-1.345543 1.062182,-2.611263 L 73.293433,60.5 72.727825,66 C 71.723907,75.762149 67.40269,87.322319 62.514306,93.323323 55.285534,102.1974 50.665785,105.32422 44.079622,105.80062 38.727034,106.18779 38.182014,106.00191 33.258376,102.11 Z M 52.324224,92.943193 54.5,89.9862 51.654597,87.629464 C 48.035947,84.632278 41.781422,84.442025 37.25,87.1913 35.4625,88.275801 34,89.45906 34,89.820767 c 0,0.361706 1.2375,1.874283 2.75,3.361282 2.283842,2.245337 3.66819,2.713324 8.166667,2.760793 4.284438,-0.319785 4.880966,-0.705269 7.407557,-2.999649 z M 45,81.5 C 45,81.225 44.775,81 44.5,81 44.225,81 44,81.225 44,81.5 c 0,0.275 0.225,0.5 0.5,0.5 0.275,0 0.5,-0.225 0.5,-0.5 z m -2.668213,-1.515313 c 0.716756,-0.0094 0.623581,-0.360092 -0.241103,-0.90748 -0.775124,-0.490691 -2.012624,-0.660656 -2.75,-0.377698 C 37.788643,79.295083 37.484289,76.436761 39,75.5 c 0.55,-0.339919 0.985029,-1.153976 0.966731,-1.809017 -0.0183,-0.655041 -0.902874,-0.147679 -1.965724,1.127471 -1.599862,1.919429 -1.723572,2.652928 -0.718787,4.261844 0.667517,1.068865 1.813897,1.71306 2.547511,1.431546 0.733614,-0.281514 1.85954,-0.518735 2.502056,-0.527157 z m 9.33238,-1.551904 c 0.330769,-0.86197 0.04107,-2.09947 -0.643779,-2.75 -0.980883,-0.931733 -1.10596,-0.721184 -0.589279,0.991965 0.522166,1.731334 0.188271,2.264271 -1.637605,2.613818 L 46.5,79.727636 l 2.281385,0.136182 c 1.254761,0.0749 2.552014,-0.569066 2.882782,-1.431035 z M 28.973278,67.394015 C 31.260352,66.47891 32.70784,65.336293 32.33804,64.737943 31.906605,64.039867 32.914445,63.886709 35.344525,64.281057 37.355036,64.607318 39,64.698005 39,64.482584 39,63.73465 33.94508,59.040975 32.043645,58.023358 30.991956,57.460511 28.733972,57 27.025903,57 25.317835,57 22.156178,56.1 20,55 c -4.965546,-2.533233 -5.783342,-2.523064 -3.461054,0.04303 1.803251,1.992571 1.800904,2.024997 -0.09501,1.31277 C 14.72171,55.708822 14.656532,55.817965 15.872448,57.312765 17.052794,58.763846 17.022196,59 15.65383,59 c -2.422843,0 -0.833425,2.975563 2.232555,4.179587 L 20.5,64.205966 18.25,65.070759 c -3.273059,1.258008 -2.753823,2.230185 0.904373,1.693276 2.848906,-0.418131 2.975656,-0.332283 1.30887,0.886501 C 18.771669,68.887445 18.882217,69 21.788634,69 c 1.743991,0 4.977081,-0.722693 7.184644,-1.605985 z M 39,55.133325 c 0,-4.085049 -16.145242,-8.073098 -18.958758,-4.683018 -1.020827,1.23002 -0.697673,1.37494 2.127555,0.95411 2.404431,-0.358149 5.000459,0.329869 9.331203,2.473023 7.229422,3.577622 7.5,3.622931 7.5,1.255885 z M 57,54 c 3.268632,-1.65 7.107357,-3 8.5305,-3 1.470379,0 2.320701,-0.431745 1.9695,-1 C 65.68946,47.070484 50.708202,51.249477 50.180449,54.831255 49.772864,57.597477 49.905453,57.581316 57,54 Z M 11.268722,73.515695 C 10.606828,72.332957 9.0833836,71.566691 7.3434952,71.541375 4.2926103,71.496982 3.9672935,70.067946 5.556119,63.689872 6.1381981,61.353213 5.897591,60.78598 4.1280714,60.32324 2.9576321,60.017164 2,59.321076 2,58.77638 2,58.231683 2.675,58.045044 3.5,58.361626 5.1485683,58.994241 5.6290081,56.103009 4.15,54.45 3.6636723,53.906457 4.0523083,52.790477 5.0583469,51.841653 c 1.5603648,-1.471624 1.9938578,-1.493389 3.85,-0.193296 1.5979051,1.119217 2.0645071,2.454904 1.9766541,5.658347 L 10.770002,61.5 10.034154,57.699153 c -0.4047157,-2.090465 -1.3191965,-4.340465 -2.0321791,-5 -1.0305988,-0.95334 -1.1756874,-0.85498 -0.7077888,0.479833 0.3236988,0.923443 0.8900101,3.285943 1.2584695,5.25 C 8.921115,60.393044 9.5902286,62 10.039575,62 c 1.02948,0 3.374926,10.256496 2.764335,12.088271 -0.333243,0.999727 -0.740232,0.847933 -1.535188,-0.572576 z M 8.6712441,69.4375 C 8.8341783,68.921875 8.5248033,67.825 7.9837441,67 7.1451458,65.721316 6.8661066,65.707936 6.0925202,66.909316 5.5934063,67.68444 5.4238495,68.940959 5.7157273,69.701581 6.2802923,71.172813 8.1764328,71.00339 8.6712441,69.4375 Z M 73,72.7651 c 0,-0.349196 0.408219,-1.708598 0.907153,-3.020895 0.498935,-1.312297 1.162072,-5.919729 1.473639,-10.238738 0.311567,-4.31901 1.077284,-8.337107 1.701594,-8.929106 0.842558,-0.798952 1.027037,0.522915 0.715786,5.128911 -0.381002,5.638207 -0.231017,6.242607 1.641253,6.613818 1.625848,0.322353 1.508176,0.437277 -0.557756,0.544728 -2.280984,0.118636 -2.689548,0.667145 -3.171084,4.257266 -0.304015,2.266597 -1.038266,4.606597 -1.631669,5.2 C 73.485512,72.914488 73,73.114295 73,72.7651 Z M 79.333333,58.333333 C 79.7,57.966667 80.3,57.966667 80.666667,58.333333 81.033333,58.7 80.733333,59 80,59 79.266667,59 78.966667,58.7 79.333333,58.333333 Z M 74,57 c 0,-0.733333 0.3,-1.033333 0.666667,-0.666667 0.366666,0.366667 0.366666,0.966667 0,1.333334 C 74.3,58.033333 74,57.733333 74,57 Z"
         id="path859"
         sodipodi:nodetypes="ssssssssssssssssssssssssccccccsscccssssssccccccccccccssssssssscssssssssssssscssssccssssccsssssssssssssssssscsssssssssssssscssssssssssssssssssssssssscssssssssssssssssssssssssssssss" /><path
         style="fill:#273839;fill-opacity:1;stroke:none;stroke-width:1px;stroke-linecap:butt;stroke-linejoin:miter;stroke-opacity:1"
         d="m 34.139654,88.729769 c 5.952676,1.457534 13.131564,0.871187 19.741883,0.224264 l 0.494975,0.682843 c -4.995402,1.449836 -18.086437,0.838502 -20.576808,0.377817 z"
         id="path7315"
         sodipodi:nodetypes="ccccc" /></g></g></g></svg>
