<?xml version="1.0" encoding="UTF-8" standalone="no"?>
<svg
   width="256mm"
   height="256mm"
   viewBox="0 0 725.5036 725.50387"
   version="1.1"
   id="svg1206"
   sodipodi:docname="Mad_Maggie_Icon_Fandom.svg"
   inkscape:version="1.1 (c68e22c387, 2021-05-23)"
   xmlns:inkscape="http://www.inkscape.org/namespaces/inkscape"
   xmlns:sodipodi="http://sodipodi.sourceforge.net/DTD/sodipodi-0.dtd"
   xmlns="http://www.w3.org/2000/svg"
   xmlns:svg="http://www.w3.org/2000/svg">
  <defs
     id="defs1210" />
  <sodipodi:namedview
     id="namedview1208"
     pagecolor="#572f57"
     bordercolor="#666666"
     borderopacity="1.0"
     inkscape:pageshadow="2"
     inkscape:pageopacity="0"
     inkscape:pagecheckerboard="0"
     inkscape:document-units="mm"
     showgrid="false"
     inkscape:zoom="0.63925854"
     inkscape:cx="337.1093"
     inkscape:cy="584.27065"
     inkscape:window-width="2560"
     inkscape:window-height="1387"
     inkscape:window-x="-8"
     inkscape:window-y="-8"
     inkscape:window-maximized="1"
     inkscape:current-layer="svg1206" />
  <g
     inkscape:groupmode="layer"
     id="layer5"
     inkscape:label="Layer 2" />
  <g
     inkscape:groupmode="layer"
     id="layer4"
     inkscape:label="Layer 1"
     sodipodi:insensitive="true" />
  <path
     id="Selection #1-6"
     fill="none"
     stroke="#000000"
     stroke-width="2.89305"
     d="m 302.61081,77.471947 c 13.6943,-23.797473 25.30462,-47.213649 46.10568,-56.384629 11.13826,-4.918192 26.10353,5.427177 36.46065,10.200716 l 54.81559,31.351922 c 33.87766,20.858919 50.46106,37.366684 63.0748,45.438304 15.70925,10.09676 17.46783,6.00937 29.12683,23.85952 6.74082,10.29927 8.38948,21.12787 12.98941,29.37307 5.58359,10.0389 13.82003,12.75099 19.98224,27.50556 9.29567,14.82281 8.10853,20.06083 8.61132,42.41157 11.47668,31.37033 42.09425,62.1165 65.41195,87.07994 -1.03242,2.05904 0.003,5.45248 -1.02351,6.77836 -7.97539,10.29106 -9.96014,3.5523 -31.92019,-13.62492 17.32939,27.10792 24.53067,78.56386 21.30118,103.10014 -3.9789,1.78588 -9.00764,3.33552 -12.98654,2.32234 -8.33825,-26.67005 -6.90364,-31.18938 -13.71542,-36.11 -5.18453,-24.46054 -9.28497,-34.52666 -30.87673,-56.04355 -1.15722,16.39399 4.27877,34.11122 -3.25957,51.30282 l -12.09236,43.74379 c -6.10434,36.65499 -16.69292,82.1338 -38.41976,112.8291 44.75543,-57.67459 8.93329,48.25831 -1.85155,71.83453 -21.29288,43.82977 -70.21442,89.68468 -119.65672,98.39277 -7.11691,0.72326 -18.5734,0.54968 -26.03748,0 -38.07259,0 -63.7629,-19.81742 -89.53998,-45.39202 -11.08038,-10.96467 -22.36327,-21.7847 -30.60847,-35.1506 -8.91059,-14.40741 -18.1105,-38.39083 -22.39222,-54.96803 -3.61631,-14.00238 -12.05425,-49.33476 -12.13986,-63.37544 9.43037,10.90701 10.5407,18.16797 27.38625,28.65879 -14.81243,-23.52053 -25.71924,-44.69768 -31.76573,-72.32635 l -8.94911,-76.14399 c 24.67775,-0.0868 26.80944,1.35855 36.12505,-22.21984 -10.35711,0 -26.56839,-1.67797 -34.69788,5.03391 -8.33199,6.82761 -9.60493,19.67277 -9.86531,29.68273 l 16.83757,130.18743 c 2.15044,25.48761 -10.16538,24.31123 -21.12886,17.81103 -8.97706,-6.88526 -16.47864,-49.48479 -14.30885,-57.49855 l 21.46427,33.90142 -0.0596,-21.9481 -3.81765,13.76935 c -12.21346,-11.33039 -14.83352,-50.70621 -19.26713,-78.61287 l 7.28732,79.4347 -9.08202,-18.8462 -8.3208,-41.66932 c -0.95471,-16.83757 -3.48865,-21.95787 6.22903,-31.82359 l -6.89386,-28.43013 c 2.02514,-27.07899 7.6293,-56.75096 25.2456,-85.95984 -15.73601,6.44075 -26.04506,6.17198 -35.33177,4.89904 -6.1622,-0.83898 -9.26856,-7.47287 -4.23465,-14.30048 3.96349,-5.43894 17.75378,-4.61989 24.81283,-7.51294 14.55206,-5.98863 24.19412,-14.9565 32.11191,-23.58837 16.31165,5.89802 -30.43492,28.4014 -49.18191,36.47302 26.15321,-0.26038 25.2456,-4.52234 47.00136,-13.05685 -8.88167,31.18712 -30.37649,64.80221 -30.31862,102.46978 1.04338,17.76147 9.83178,44.43632 17.13408,62.5061 -4.14893,-18.92572 -3.41308,-38.2955 -3.34295,-57.60475 -4.41263,-24.84413 12.82939,-46.76735 21.14822,-69.4333 4.62889,-12.93195 12.66157,-36.2423 21.83255,-45.93403 13.59734,-14.37848 15.05602,-14.16519 31.31496,-17.63686 7.72445,-1.64904 22.12966,-6.99101 30.1434,-6.84636 l 14.14801,7.6648 c 10.29926,-1.3308 20.48121,-15.3703 28.35033,-14.35773 7.81125,1.01257 11.72585,6.94373 12.54588,16.10414 38.07259,0 33.58776,-4.67697 53.9838,-5.94992 22.36331,-1.35973 34.63006,8.30307 54.33175,-11.83259 29.76953,4.22386 24.30264,14.51256 34.42833,17.81064 11.48542,3.73204 23.75157,-16.2859 31.8998,-20.91578 8.12948,4.42637 11.58219,8.58219 17.31044,16.27772 17.76335,23.8677 20.08798,82.97378 20.93553,111.15253 11.17798,-20.38544 -1.59856,-44.73561 7.7546,-61.3142 43.71717,23.0491 46.20702,68.14389 54.75593,93.6382 -1.15722,-52.50893 -14.04109,-61.10211 -31.39941,-104.49792 13.24139,-9.68643 28.50373,11.99897 42.97163,19.75097 -19.09416,-19.09416 -40.51253,-32.94329 -53.03946,-57.36067 -3.1245,-6.13327 -13.88625,-27.04008 -15.1592,-32.88405 -2.16979,-9.92317 1.31163,-16.88526 -3.23047,-30.62726 -5.23642,-15.79608 -16.25876,-25.07301 -24.4461,-38.03389 -6.7698,-10.7043 -3.65566,-15.07381 -11.95873,-25.69131 C 510.84423,119.88292 496.48572,120.11436 486.36003,113.46034 460.49612,96.478116 460.76547,84.240498 420.7256,63.207996 407.30183,56.148944 370.29967,31.384402 357.07841,31.644777 c -23.63625,0.491819 -32.1141,35.250951 -52.48256,54.582549 -6.87622,1.670927 -9.61038,-1.748964 -9.61274,-1.776934 -1.27317,-15.060009 -6.35019,-17.70315 -16.01711,-17.626079 0.27389,6.856538 3.31323,19.286895 -1.93933,24.37867 -16.89205,6.046682 -24.41636,5.766953 -33.1823,19.306447 -7.92695,12.23761 1.92798,22.58497 -6.9537,29.00755 -5.52573,4.72869 -20.24979,2.31501 -29.99938,6.39425 -6.88547,4.31065 -9.79866,13.2015 -15.15081,19.27692 -14.79826,16.74786 -23.30282,29.96503 -16.30823,59.65059 7.9353,14.29994 28.31441,41.6063 30.74017,45.4405 -7.59394,0.36322 -17.08782,-10.94894 -23.54812,-18.81996 -22.7552,-27.72416 -26.50541,-61.72992 0.86218,-90.99679 14.88647,-16.55446 12.40125,-17.79089 18.82383,-21.32041 11.82762,-7.61097 4.23705,-3.31349 30.07859,-7.12629 -18.86271,-32.313477 27.68489,-42.763264 36.5863,-45.143012 6.71188,-7.52194 -6.30388,-20.916381 9.11391,-28.745387 11.91936,-4.165998 24.02988,9.768547 24.5217,19.344556 z m 40.36686,-36.277506 c 2.12111,-0.814808 5.39553,-2.378799 6.42238,0.636272 -3.28324,7.616379 -13.61315,27.631079 -20.2892,37.707236 -3.44209,5.195141 -6.11282,5.068868 -6.11282,5.068868 -4.80739,1.630652 -14.08062,-3.593955 19.97964,-43.412376 z m -0.0165,32.264345 c 3.83682,-28.301413 28.75272,-35.079127 48.06181,-16.45031 -13.05132,9.570159 -31.0691,17.565903 -48.06181,16.45031 z m 33.09615,-17.222455 c -12.38227,-2.806262 -13.43434,-4.878886 -20.17516,6.346163 z m -4.51364,198.636489 c -16.52871,-2.10255 -24.99598,-8.38986 -37.6097,-18.05266 -32.30159,-19.44001 -44.47605,-77.49222 -27.6959,-113.13557 18.25517,-42.450021 89.23735,-59.205855 125.51625,-24.748377 -45.43194,-5.30227 -45.25356,-4.512165 -63.1037,3.617317 -18.68913,8.53451 -41.35272,27.2751 -39.93512,49.11766 0.60754,9.25777 4.09078,39.88245 9.09576,47.80942 1.88048,-22.50796 0.71568,-39.91417 38.47463,-58.30183 -6.22884,16.45151 -14.90641,25.80385 -10.74041,41.71565 7.11691,-18.54447 18.91878,-32.45827 37.55004,-40.4431 l -16.61492,41.74216 -0.47166,62.00017 -15.66159,-17.57042 z M 272.90816,113.09661 c 1.00319,14.64783 -15.20608,45.87147 -13.93314,66.55681 2.28551,36.97323 23.26872,46.31779 46.52884,69.43329 -18.16835,-2.83519 -47.74392,-13.22126 -60.58906,-26.64503 -10.78885,-7.80485 -10.40121,-22.90211 -15.55484,-20.62807 -0.58127,-10.56589 -2.31676,-25.71053 13.19271,-29.29507 1.74903,4.49138 -0.26457,11.07311 5.99819,13.05686 -1.95682,-34.18545 5.01927,-47.00344 24.3573,-72.47879 z m -64.70759,47.00135 c -1.02136,15.23563 -10.68315,16.27053 -8.47526,39.80683 1.44653,25.1985 17.21367,45.99956 30.05883,66.54025 -28.81482,-13.62629 -44.49577,-44.26552 -38.98798,-82.49015 6.84555,-14.84896 9.22783,-16.71108 17.40441,-23.85693 z m 225.31013,-0.28832 c -12.11443,30.36096 -12.23125,30.53357 -15.72684,47.3573 3.66761,19.63269 3.46559,19.86397 7.20011,31.69631 -33.29404,-14.5793 -21.3926,-59.77021 8.52673,-79.05361 z m 18.3724,64.86008 c -17.13712,-27.02482 6.24399,-55.09073 46.28886,-37.75435 30.6154,18.37769 37.08884,36.04627 40.82088,58.93033 l -48.34212,-34.658 c -8.78462,-5.94003 -9.84747,-11.56224 -18.66159,-10.12469 -7.92697,3.24022 -14.37807,13.66519 -20.10603,23.60672 z m 91.41122,74.05402 c -0.72327,-8.50558 -2.50698,-7.28272 -4.99501,-14.92038 -1.3308,-4.07921 -3.7899,-10.7043 -5.93076,-14.29169 -8.99739,-14.92816 -24.67775,-8.79488 -30.0299,5.8729 -2.083,5.72825 3.82743,7.8711 5.73684,13.48363 1.50439,4.36851 -0.90544,14.23183 3.5788,15.79408 6.62509,3.87669 24.08916,-5.56245 31.64003,-5.93854 z m -291.63831,-24.66 c -23.63657,7.80127 -22.30742,15.22783 -29.91476,32.73162 24.50455,3.21846 25.90378,2.79529 29.91476,-32.73162 z m 296.36397,44.45627 -32.8675,1.40842 c -1.43394,28.98979 5.15282,22.55645 33.21544,22.29608 z m -304.61894,3.10514 c -32.0261,0.0289 -26.23122,-2.57401 -37.74558,26.38546 28.95947,0 36.1544,7.78151 37.74558,-26.38546 z m 307.51199,37.39761 c -8.3797,0 -25.16957,-1.15722 -29.97204,2.95092 -2.6665,4.34389 0.97739,14.71106 4.74461,17.96586 10.23982,-1.79178 9.96466,-2.95074 23.7428,-5.04308 z m -207.66361,48.68151 c 6.8276,-26.38465 -13.05666,-23.56063 -33.94451,-28.76812 -30.9267,-7.6666 -60.16625,-9.75877 -70.84161,26.37548 8.83417,-8.72606 18.80503,-15.02314 31.18728,-15.94892 30.97202,2.40963 52.85563,11.42716 73.59884,18.34156 z m 165.81208,-5.78611 c -10.35713,-35.12167 -48.12245,-29.26911 -76.76368,-21.42894 -7.9559,2.19872 -36.13425,8.88168 -25.83498,23.08657 5.13141,7.4622 7.99027,-3.0309 28.40988,-5.0425 16.29718,-4.49401 21.58678,-11.31173 46.45458,-10.76095 10.3854,-0.22768 18.99021,7.2607 27.7342,14.14582 z m -171.67441,40.71485 c -7.72804,-21.91654 -41.72678,-35.46346 -67.10024,-35.29625 -25.80363,5.17776 -15.44968,18.45688 -22.19048,24.85053 -4.02135,3.76097 -10.52113,1.20672 -15.55503,3.4633 27.25537,8.01749 59.55485,9.91204 94.97026,7.27074 l -14.08968,0.009 c -1.11614,-5.12175 0.24663,-9.93365 3.65414,-14.48998 7.88021,4.96113 13.52458,6.498 20.31103,14.19353 z m 185.36753,-7.33039 c -27.97505,1.57952 -12.83671,-17.0865 -30.02091,-25.825 -25.63257,-8.04234 -62.37745,12.46557 -73.12821,33.5796 7.04516,-4.87338 7.47076,-9.87848 20.09894,-14.19356 2.51759,4.16643 2.89204,8.76147 2.60028,13.48976 l -8.31019,1.55215 c 29.45968,1.87132 61.9724,4.17616 88.76009,-8.60295 z m 44.65897,-20.23044 c 17.64763,-1.24401 26.62449,10.63687 26.21946,26.28829 -0.46289,16.98222 -18.61012,72.34793 -21.234,78.62942 -8.32416,13.6614 4.24839,22.8557 -10.55048,27.54346 -18.23969,-0.42077 -16.54867,-15.51458 -15.39084,-23.60651 0.138,-11.57222 3.06536,-22.72025 6.92417,-40.65519 l 6.0852,-33.07959 c 0.46326,-9.48959 -0.90625,-28.3212 7.94649,-35.11988 z m 7.76218,11.76336 2.76547,14.33642 0.20367,11.41278 c -8.78528,41.61504 -6.90806,33.34939 -11.63007,48.04523 -0.51598,3.45165 -0.23289,7.43611 -3.96508,8.74354 -1.28275,-4.03078 2.68918,-6.48513 -3.94193,-12.12043 l -1.90881,23.78071 c 12.87409,-4.51317 14.91858,-16.22923 18.99779,-28.58257 7.14584,-21.6979 14.1175,-53.25036 -0.52115,-65.61568 z m -289.92326,-1.34891 2.39264,14.5415 c -5.91828,-1.87913 -7.06961,1.40588 -20.32757,-5.78611 4.9417,-3.37917 8.23468,-7.4911 17.93493,-8.75539 z m 185.07919,0.6363 c 6.91729,2.18605 12.98611,4.93774 18.20668,8.25495 -5.84324,3.96076 -12.57561,6.14323 -20.11549,6.7107 -0.65748,-4.77293 -0.78899,-9.63352 1.90881,-14.96565 z m -123.43216,74.95943 c -30.54548,30.01486 -37.57548,33.04114 -40.73992,60.19786 7.36063,-14.42451 13.4945,-30.41503 24.58136,-37.75968 6.28281,16.91554 13.71778,16.18863 19.45874,16.23397 1.34586,0.0116 -1.0498,-4.49914 5.42259,-6.29144 6.26963,-2.24255 14.38741,10.60813 22.50094,14.9237 l 19.11608,-14.72055 c 2.1927,-2.06801 8.23322,-0.65956 8.00618,5.65983 -1.12072,1.40087 10.43784,2.29144 18.37314,-6.72005 l 3.83648,-4.49913 c 8.64633,8.06468 14.09913,21.45182 19.20158,35.4229 -4.94712,-28.75525 -17.84057,-46.74984 -42.68956,-61.99751 9.52833,5.9918 31.83479,26.33451 9.40986,34.3731 -10.01896,-0.87188 -6.25203,-10.00664 -14.47505,-8.5311 -14.75568,4.45108 -14.59992,13.33108 -20.97229,14.03152 -8.75746,0.49248 -4.18463,-10.8211 -24.88577,-14.03716 -4.03788,-0.6273 -2.09706,13.28571 -12.98026,6.98852 -11.17903,-16.81148 -4.07703,-15.73223 6.8359,-33.27478 z M 195.0675,680.15176 c -9.86532,-33.67515 -6.1231,-51.79606 -4.7055,-84.45864 0.51366,-15.5738 -5.37778,-46.12537 13.38466,-37.04963 0,31.82359 9.54707,94.63179 -2.89306,121.50827 z m 355.84553,-2.89306 c -3.55846,-13.39484 -8.96847,-47.56181 -8.38986,-60.75413 l 2.51696,-23.14443 c 0.78113,-14.4942 -0.18371,-38.94711 13.7037,-37.89803 10.0766,0.0289 8.63068,92.57675 -2.04469,121.79659 z M 440.97698,599.14624 c -10.7558,-6.92568 -30.29366,-16.05023 -44.84063,-23.16205 -6.85654,0.0868 -7.28937,8.48033 -19.09666,8.42544 -10.42444,0.21178 -9.8111,-8.76071 -18.68873,-8.58181 -18.04458,8.78511 -29.70874,14.95443 -40.28626,24.63554 50.15485,26.73573 64.6036,23.17221 107.12618,11.6538 6.50938,-3.52952 11.30186,-7.35833 15.7861,-12.97086 z m -83.89857,49.18192 -4.72565,1.27254 c -13.91534,44.24206 -11.70689,22.1612 -12.63267,42.12327 16.28789,-12.38227 20.62747,-23.20229 17.35832,-43.39581 z"
     sodipodi:nodetypes="ccccccccccscccccccccccccccccccccccccccccccccccccccccccccccccccccccccccccccccccccsccccccccsccccccccscccccccccccccccccccccccccccccccccccccccccccccccccccccccccccccccccccccccccccccccccccccccccccccccccccccccccccccccccccccccccccscccccccccccsccccccccccccccccccccccccc"
     style="fill:#223536;fill-opacity:1;stroke:none" />
  <path
     style="fill:#223536;fill-opacity:1;stroke:none;stroke-width:2.1693px;stroke-linecap:butt;stroke-linejoin:miter;stroke-opacity:1"
     d="m 320.96014,602.56277 c 9.24041,-1.82367 22.6889,-3.15086 32.76805,-4.13577 6.43947,0.43642 12.59273,0.56909 23.5421,3.92368 9.23879,-2.14653 16.59918,-3.50563 24.70861,-3.39344 l 37.22195,3.49947 c -7.04497,-5.42833 -18.08929,-8.88726 -39.76706,-10.07428 l -22.1635,2.96925 -18.55796,-3.18134 c -18.84596,1.49279 -35.8446,4.9584 -37.75219,10.39243 z"
     id="path53780"
     sodipodi:nodetypes="ccccccccc" />
</svg>
