<?xml version="1.0" encoding="UTF-8" standalone="no"?>
<svg
   width="512"
   height="512"
   viewBox="0 0 135.46666 135.46667"
   version="1.1"
   id="svg8"
   inkscape:version="1.1 (c68e22c387, 2021-05-23)"
   sodipodi:docname="Mirage_Icon.svg"
   xmlns:inkscape="http://www.inkscape.org/namespaces/inkscape"
   xmlns:sodipodi="http://sodipodi.sourceforge.net/DTD/sodipodi-0.dtd"
   xmlns="http://www.w3.org/2000/svg"
   xmlns:svg="http://www.w3.org/2000/svg"
   xmlns:rdf="http://www.w3.org/1999/02/22-rdf-syntax-ns#"
   xmlns:cc="http://creativecommons.org/ns#"
   xmlns:dc="http://purl.org/dc/elements/1.1/">
  <defs
     id="defs2" />
  <sodipodi:namedview
     id="base"
     pagecolor="#ffffff"
     bordercolor="#666666"
     borderopacity="1.0"
     inkscape:pageopacity="0.0"
     inkscape:pageshadow="2"
     inkscape:zoom="0.49497475"
     inkscape:cx="373.75644"
     inkscape:cy="411.13209"
     inkscape:document-units="mm"
     inkscape:current-layer="layer1"
     inkscape:document-rotation="0"
     showgrid="false"
     units="px"
     inkscape:window-width="1366"
     inkscape:window-height="697"
     inkscape:window-x="-8"
     inkscape:window-y="-8"
     inkscape:window-maximized="1"
     inkscape:pagecheckerboard="0" />
  <metadata
     id="metadata5">
    <rdf:RDF>
      <cc:Work
         rdf:about="">
        <dc:format>image/svg+xml</dc:format>
        <dc:type
           rdf:resource="http://purl.org/dc/dcmitype/StillImage" />
      </cc:Work>
    </rdf:RDF>
  </metadata>
  <g
     inkscape:label="Layer 1"
     inkscape:groupmode="layer"
     id="layer1">
    <g
       id="g940"
       transform="matrix(3.6163226,0,0,3.6163198,-199.20165,-179.98677)">
      <g
         id="g958">
        <g
           id="g947">
          <path
             id="path918"
             style="fill:#273839;fill-opacity:1;stroke:none;stroke-width:0.999999px;stroke-linecap:butt;stroke-linejoin:miter;stroke-opacity:1"
             d="m 264.84961,285.36719 c -7.02328,0.88115 -7.6164,5.11258 -6.62891,10.16601 3.55856,7.41829 -1.11457,9.38425 5.42969,15.15235 h 7.13281 c 3.47459,-2.66176 6.62417,-7.07494 11.86914,-0.88477 2.2004,1.59381 6.7236,1.52722 8.71289,-0.56836 l 2.71485,-3.97656 0.56836,-7.13477 c 3.79027,-7.10694 2.69867,-11.80442 -6.12305,-12.68945 z m 21.59766,2.25586 c 4.44032,0.0499 8.26294,0.77757 7.06445,4.5 -0.32939,1.15475 0.097,3.52787 -2.27149,1.38867 -8.12217,5.02339 -22.53466,3.79019 -28.28515,-0.125 -1.067,0.30531 -2.1629,0.75436 -2.9043,-0.56836 -1.87794,-5.51262 4.96517,-5.24301 15.2793,-5.05274 0.96827,1.7446 2.10517,1.79095 3.41015,0 2.15616,0.0411 5.04284,-0.17254 7.70704,-0.14257 z m -17.78711,11.39453 c 4.80423,2.85936 10.2203,4.36243 17.23046,0 -3.71663,6.81232 -12.14763,8.98035 -17.23046,0 z"
             transform="scale(0.26458333)" />
          <path
             style="fill:#273839;fill-opacity:1;stroke:none;stroke-width:0.264583px;stroke-linecap:butt;stroke-linejoin:miter;stroke-opacity:1"
             d="m 70.041,77.024 h 6.431493 c -0.03443,0.575886 -1.05863,0.54888 -3.239555,0.551693 -2.413529,0.0031 -3.197129,0.13522 -3.191938,-0.551693 z"
             id="path912"
             sodipodi:nodetypes="ccsc" />
          <path
             id="path907"
             style="fill:#273839;fill-opacity:1;stroke:none;stroke-width:0.999999px;stroke-linecap:butt;stroke-linejoin:miter;stroke-opacity:1"
             d="m 276.2168,239.76953 c -3.66915,-0.0571 -7.33825,1.43365 -7.64453,5.67774 1.3381,3.86801 10.45554,9.49927 1.51757,13.92773 -5.99057,3.91207 -17.41997,2.10479 -6.25,-0.0898 l -0.71484,-2.14258 c -2.08104,1.00289 -4.34812,3.43759 -7.76758,0.17969 l -0.625,2.85546 -0.89258,-1.51757 c -8.07774,1.48594 -2.3937,-4.27901 -0.625,-4.82032 3.84392,-1.05303 7.6577,-2.14783 12.32032,-2.05468 -0.43423,-3.64233 -7.65113,-5.80306 -14.73243,-0.17774 -2.11388,1.9047 -4.32614,4.14126 -4.64257,0 v -3.30469 l -3.66016,4.375 c 1.88655,11.51721 -4.14306,11.02861 -5.44727,2.94727 l 0.0899,-4.73242 -3.75,-0.0899 c -1.07807,6.3882 -1.29582,13.46001 4.10742,25 l 1.78516,-0.17773 c 1.47295,9.7703 4.07174,19.26991 9.73242,28.03516 6.30835,10.46939 12.61743,17.65724 18.92578,21.10351 6.38977,2.4237 12.94532,1.84537 19.57226,0 11.47402,-8.36985 16.60777,-19.63947 19.44532,-23.61133 4.74852,-7.91174 3.55276,-11.43806 6.06054,-23.73828 l 2.27149,-0.2539 c 6.38535,-11.24041 3.31558,-19.27144 4.79687,-22.69532 L 316.51758,252.5 v 6.07227 c -4.86823,2.60897 -6.70674,6.17358 -5.17774,10.80273 l -1.69726,2.67773 c -2.06327,2.05002 -3.8894,-0.14947 -3.03516,-4.10546 l 2.41016,-8.75 c 2.02141,-1.87501 1.36066,-3.75 -1.16016,-5.625 v -4.73243 l 0.98242,-1.16211 0.0879,-3.39257 -7.94531,1.875 c 3.606,2.15796 8.82939,10.467 0,3.83984 -6.50427,-3.00014 -13.25488,-2.26379 -12.5,1.78516 6.75719,-0.33309 12.77998,0.5271 15.53516,6.69726 l -5.35742,0.44531 c -0.45395,-2.30941 -1.17522,-1.5285 -1.96289,0 -2.76929,0.38875 -4.83791,-0.1248 -6.42969,-1.25 l -1.875,2.14454 c 11.61543,0.49424 2.21258,3.7559 -2.94531,0.17773 -8.02308,-6.99244 -8.00604,-10.33734 -2.23243,-14.91016 2.43614,-2.61634 -2.28057,-5.24695 -6.99804,-5.32031 z m -7.78321,31.9668 c 1.58436,0.15914 0.56491,2.66062 1.15039,3.71875 2.0882,0.5587 4.13002,1.2119 5.55664,3.09375 h 4.10352 c 1.84351,-1.27112 3.50396,-2.7232 6.3125,-3.0293 l -0.125,-2.46289 c 0.21109,-3.5547 10.55178,3.30872 5.42969,3.72461 l -2.52539,-0.18945 -1.89453,2.33593 c -2.35168,-0.0444 -2.93241,1.03818 -3.47266,2.14649 7.84739,-1.39585 14.40675,-0.48583 15.91016,9.4707 l 2.08398,-0.12695 c 2.55966,-5.55746 6.19442,-3.93116 9.2168,-13.38281 1.44546,22.79359 -19.3891,41.05596 -21.84375,43.11914 -3.07896,3.51436 -16.70294,4.60266 -21.84571,0 -15.1576,-13.35261 -23.28484,-31.8707 -23.42187,-43.49805 2.21126,8.3937 7.26666,10.949 12.62695,12.87891 l 0.37891,-4.29297 c 4.19603,-5.82681 9.37999,-6.48838 15.08789,-4.41992 -2.48794,-2.03147 -3.72451,-4.72567 -8.83789,-5.36719 l 4.54492,-3.4082 c 0.69471,-0.25946 1.19883,-0.34728 1.56445,-0.31055 z"
             transform="scale(0.26458333)" />
        </g>
        <path
           style="fill:#273839;fill-opacity:1;stroke:none;stroke-width:0.264583px;stroke-linecap:butt;stroke-linejoin:miter;stroke-opacity:1"
           d="m 62.366072,61.610118 0.04725,3.992374 c -0.650207,-1.466746 -1.133389,-2.897702 -0.04725,-3.992374 z"
           id="path922"
           sodipodi:nodetypes="ccc" />
        <path
           style="fill:#273839;fill-opacity:1;stroke:none;stroke-width:0.264583px;stroke-linecap:butt;stroke-linejoin:miter;stroke-opacity:1"
           d="m 73.138392,54.971912 h 2.196986 c 1.223367,0.129578 0.08215,1.959195 1.771764,1.748139 -0.551528,-0.311297 -0.686296,-0.686711 -0.661459,-1.08668 -0.04282,-1.724105 -2.336177,-0.779893 -3.307291,-0.661459 z"
           id="path924"
           sodipodi:nodetypes="ccccc" />
        <path
           style="fill:#273839;fill-opacity:1;stroke:none;stroke-width:0.264583px;stroke-linecap:butt;stroke-linejoin:miter;stroke-opacity:1"
           d="m 76.185826,57.901227 c -1.111973,-0.873928 -1.164815,1.372511 -4.84282,-0.02362 -0.883034,-0.485262 -1.983288,-0.380927 -3.307292,0.33073 -1.591317,0.649633 -3.159812,1.326652 -4.134114,2.716704 -0.820361,1.252752 -0.302151,1.836218 -0.04725,2.551338 1.619589,1.800244 5.666286,1.153939 6.709077,-0.259858 1.298174,-1.96579 3.143931,-3.688061 5.031808,-0.779577 2.481993,3.731175 7.326226,1.904056 3.354538,-1.275667 z"
           id="path926"
           sodipodi:nodetypes="ccccccccc" />
        <path
           style="fill:#273839;fill-opacity:1;stroke:none;stroke-width:0.264583px;stroke-linecap:butt;stroke-linejoin:miter;stroke-opacity:1"
           d="m 64.077868,57.813738 -0.634765,0.99391 c -0.234045,0.434273 0.176032,0.734442 0.542891,0.300678 l 0.593005,-0.918739 c 0.303538,-0.711426 -0.313926,-0.738043 -0.501131,-0.375849 z"
           id="path930"
           sodipodi:nodetypes="ccccc" />
        <path
           style="fill:#273839;fill-opacity:1;stroke:none;stroke-width:0.264583px;stroke-linecap:butt;stroke-linejoin:miter;stroke-opacity:1"
           d="m 61.939712,57.780329 c -0.445296,1.10176 -0.86981,1.143161 -0.651468,-0.317381 1.382296,-2.502793 1.825018,-1.638779 2.722808,-2.405427 0.824651,-1.057157 3.588128,-4.942488 7.884451,-4.04245 0.503599,0.445205 0.88755,0.09276 1.302938,-0.05011 1.855379,-0.310455 3.712991,-0.644362 5.445617,0.334087 3.126105,3.315431 3.019466,1.39599 4.092565,2.906557 0.230742,0.472354 0.103536,0.837323 0.03341,1.219417 -0.435513,-0.925372 -0.964434,-1.623893 -1.837479,-1.486686 l -2.65599,-2.355313 c -0.544424,-0.224836 -0.621939,0.200014 -0.484426,0.350792 1.110484,0.916454 2.181462,1.844195 3.073599,2.823033 0.601987,0.01504 0.95039,0.325931 0.985557,1.002263 1.023809,0.534236 2.937468,0.0056 2.823032,1.987814 -0.07179,1.549323 0.824203,1.849895 1.703845,2.171565 -0.963606,-0.02556 -2.213194,0.735328 -2.104747,-2.23838 -0.07868,-0.659137 -0.464098,-0.60529 -0.334089,-0.01669 0.262531,1.475228 -0.425668,2.085664 -0.320249,2.74154 0.698927,1.990598 1.007279,1.399223 0.838086,0.415582 0.840133,-0.261429 1.652233,1.333756 0.768398,2.488946 0.890619,1.210842 1.770863,2.643575 0.634767,3.424391 0.02423,-1.368884 -0.403212,-2.284178 -1.186011,-2.605876 -0.361503,-0.839982 -0.162289,-2.295324 -1.386459,-2.756217 l 0.03341,-3.558027 c -0.01404,-0.658129 -1.887979,-1.647422 -2.772923,-1.904294 0.784527,0.904474 1.525,1.846393 1.870887,3.123711 0.172928,0.783413 -0.292528,2.032117 -0.335918,2.016675 -0.04892,-0.01741 0.168532,-0.900364 -0.265437,-1.749404 l -1.80407,-2.956671 c -1.024218,-1.629164 -1.581476,-2.6378 -0.952148,-0.567946 l 0.434314,2.088044 c 1.405929,0.851921 1.490912,1.703842 1.570207,2.555763 C 79.827528,58.213511 79.254128,58.8459 79.044965,58.348299 78.113435,57.057222 77.623439,55.840424 77.34112,55.057541 76.6133,53.333878 75.53523,53.073757 74.184,53.955057 c -1.287365,0.773584 -2.457306,-0.153601 -3.22394,-0.267271 -1.504707,-0.170581 -3.024099,-0.194315 -4.660511,0.952148 0.232881,-0.778367 1.007713,-1.65351 2.121451,-2.589173 -1.460427,0.281544 -2.768321,1.565441 -4.009044,3.290755 -2.141479,0.904849 -2.169741,1.662265 -2.472244,2.438813 z"
           id="path932"
           sodipodi:nodetypes="ccccccccccccccccccccccccccsccccccccccccc" />
      </g>
    </g>
  </g>
</svg>
