<?xml version="1.0" encoding="UTF-8" standalone="no"?>
<svg
   xmlns:dc="http://purl.org/dc/elements/1.1/"
   xmlns:cc="http://creativecommons.org/ns#"
   xmlns:rdf="http://www.w3.org/1999/02/22-rdf-syntax-ns#"
   xmlns:svg="http://www.w3.org/2000/svg"
   xmlns="http://www.w3.org/2000/svg"
   xmlns:sodipodi="http://sodipodi.sourceforge.net/DTD/sodipodi-0.dtd"
   xmlns:inkscape="http://www.inkscape.org/namespaces/inkscape"
   version="1.1"
   id="Layer_4_1_"
   x="0px"
   y="0px"
   viewBox="0 0 37 37"
   style="enable-background:new 0 0 37 37;"
   xml:space="preserve"
   sodipodi:docname="Octane_Icon.svg"
   inkscape:version="1.0.1 (3bc2e813f5, 2020-09-07)"><metadata
   id="metadata45"><rdf:RDF><cc:Work
       rdf:about=""><dc:format>image/svg+xml</dc:format><dc:type
         rdf:resource="http://purl.org/dc/dcmitype/StillImage" /><dc:title></dc:title></cc:Work></rdf:RDF></metadata><defs
   id="defs43" /><sodipodi:namedview
   pagecolor="#ffffff"
   bordercolor="#666666"
   borderopacity="1"
   objecttolerance="10"
   gridtolerance="10"
   guidetolerance="10"
   inkscape:pageopacity="0"
   inkscape:pageshadow="2"
   inkscape:window-width="1600"
   inkscape:window-height="837"
   id="namedview41"
   showgrid="false"
   inkscape:zoom="18.108108"
   inkscape:cx="18.5"
   inkscape:cy="18.5"
   inkscape:window-x="-8"
   inkscape:window-y="-8"
   inkscape:window-maximized="1"
   inkscape:current-layer="Layer_4_1_" />
<style
   type="text/css"
   id="style2">
	.st0{fill:#241C1C;}
</style>

















<g
   id="g888"><polygon
     class="st0"
     points="6.9,6.8 6.3,7.4 6.6,14.2 7.3,14.1 "
     id="polygon4"
     style="fill:#273839;fill-opacity:1" /><path
     class="st0"
     d="M30.3,14.4C30.3,14.4,30.3,14.4,30.3,14.4L29.8,20l-0.6,0l0.5-5.6c-0.5-0.1-0.7-0.2-0.7-0.6  c0-0.5,0.5-3.1,0.4-3.6c-0.1-0.5-0.4-2.8-0.9-3.8c-0.5-1-1.2-2.3-2.1-3c-0.9-0.7-2.1-1.7-3.1-2s-2.9-1-4.8-1s-3.8,0.6-4.8,1  s-2.2,1.3-3.1,2c-0.9,0.7-1.6,2-2.1,3c-0.5,1-0.8,3.3-0.9,3.8C7.6,10.7,8,13.3,8,13.8c0,0.4-0.2,0.5-0.7,0.6l-0.3,0l0,0.6l0.3,0  l0.4,5l-0.6,0l-0.5-5.6c0,0,0,0,0,0c-0.9,0-1.2,0.9-1.2,0.9s0.4,5.3,0.4,6.2c0,0.9,0.9,1.2,0.9,1.2L8,22.7l-0.2-2.6l0.6,0l0.2,2.6  l0.1,0h0.4c0.1,0.9,0.4,3.1,0.7,3.9c0.4,1,0.9,2.4,1.5,3.3c0.6,0.9,3.8,4.2,4.7,4.7c0.9,0.5,2.9,1.8,3.1,2.1c0,0,0.7-1,1.5-1.6  c0.8-0.6,3.3-3,3.8-3.6c0.5-0.6,1.7-1.5,2.6-3.9c0.6-1.7,1-3.8,1.2-4.9h0.4l0.1,0l0.2-2.6l0.6,0L29,22.7l1.2,0.1  c0,0,0.9-0.4,0.9-1.2c0-0.9,0.4-6.2,0.4-6.2S31.2,14.5,30.3,14.4z M10.1,5.2c1.3-1.6,4.3-3.7,8.4-3.7s7.1,2.1,8.4,3.7  c1.3,1.6,1.5,3.7,1.6,5.4c0.1,1.6-0.5,2.2-0.5,2.2c-0.1-0.5-0.3-0.8-1.1-0.9c-0.8-0.1-1-0.4-1-0.4c-1.6-3.2-7.3-3.2-7.3-3.2  s-5.8-0.1-7.3,3.2c0,0-0.2,0.2-1,0.4s-1,0.4-1.1,0.9c0,0-0.5-0.6-0.5-2.2C8.6,8.9,8.9,6.8,10.1,5.2z M27.1,23.6  c-0.2,0.7-1.2,4.5-1.3,4.9c-0.1,0.4-0.3,0.6-1.1,1.5c-0.7,0.9-3,2.8-3.4,3.2c-0.4,0.4-2.4,2.2-2.6,2.1c-0.2,0-1-0.5-1.9-1.2  c-0.9-0.6-4.4-3.7-4.9-4.4c-0.4-0.7-1.4-3.3-1.8-4.8c-0.4-1.5-0.7-4.4-0.7-4.4c3.8,2.2,7.1,3.1,7.7,3.1s1.1,0.5,1.1,0.5H19  c1.7,0,8.4-2.7,8.4-2.7S27.3,22.9,27.1,23.6z M15.9,17.9c0,1.4-1.1,2.5-2.5,2.5c-1.4,0-2.5-1.1-2.5-2.5c0-1.4,1.1-2.5,2.5-2.5  C14.7,15.3,15.9,16.5,15.9,17.9z M14.5,14c0-0.4,0.3-0.6,0.6-0.6c0.4,0,0.6,0.3,0.6,0.6s-0.3,0.6-0.6,0.6  C14.8,14.6,14.5,14.3,14.5,14z M16.6,19.1c0-0.4,0.3-0.7,0.7-0.7c0.4,0,0.7,0.3,0.7,0.7c0,0.4-0.3,0.7-0.7,0.7  C16.9,19.7,16.6,19.4,16.6,19.1z M19.1,19.1c0-0.4,0.3-0.7,0.7-0.7c0.4,0,0.7,0.3,0.7,0.7c0,0.4-0.3,0.7-0.7,0.7  C19.4,19.7,19.1,19.4,19.1,19.1z M23.7,15.3c1.4,0,2.5,1.1,2.5,2.5c0,1.4-1.1,2.5-2.5,2.5c-1.4,0-2.5-1.1-2.5-2.5  C21.1,16.5,22.3,15.3,23.7,15.3z M21.2,14c0-0.4,0.3-0.6,0.6-0.6c0.4,0,0.6,0.3,0.6,0.6s-0.3,0.6-0.6,0.6  C21.5,14.6,21.2,14.3,21.2,14z M28.7,15l-0.1,2.2h-0.7c0,0,0-1.9,0-2.3c0-0.4-1-0.5-1.3-0.5c-0.3,0-0.4-0.4-0.4-0.4V13l-7.7-0.2  L10.8,13v0.8c0,0-0.1,0.4-0.4,0.4s-1.3,0.1-1.3,0.5c0,0.4,0,2.3,0,2.3H8.4L8.3,15c0,0-0.1-0.2-0.2-0.2c0,0,0-1,1.1-1.5  c1.1-0.5,1.1-0.1,1.4-0.5c0.3-0.3,0.9-1.8,2.4-2.5c1.4-0.7,2.7-1,5.5-1s4.1,0.3,5.5,1c1.4,0.7,2.1,2.1,2.4,2.5  c0.3,0.3,0.4,0,1.4,0.5c1.1,0.5,1.1,1.5,1.1,1.5C28.8,14.8,28.7,15,28.7,15z"
     id="path6"
     style="fill:#273839;fill-opacity:1" /><path
     class="st0"
     d="M10.8,21.8l1.3,0.6c0,0-0.5,0.7-0.6,1.1c0,0.4-0.2,1.5-0.2,1.5S10.7,23.1,10.8,21.8z"
     id="path8"
     style="fill:#273839;fill-opacity:1" /><path
     class="st0"
     d="M12.9,22.6l1.5,0.5c0,0-0.5,1.3-0.5,1.8s0,1.9,0,1.9s-0.6-1.4-0.7-2.1C13.1,24,12.7,23.5,12.9,22.6z"
     id="path10"
     style="fill:#273839;fill-opacity:1" /><path
     class="st0"
     d="M15.2,23.3l1.3,0.5c0,0-0.9,1.5-1.1,3.7C15.5,27.5,15,24.5,15.2,23.3z"
     id="path12"
     style="fill:#273839;fill-opacity:1" /><path
     class="st0"
     d="M17.2,24l1.7,0.4c0,0,0.1,0.2-0.3,0.9c-0.4,0.7-1.1,2.7-1.2,3.4C17.3,28.8,17.1,24.6,17.2,24z"
     id="path14"
     style="fill:#273839;fill-opacity:1" /><path
     class="st0"
     d="M19.5,24.4l1.4-0.3c0,0-0.4,3.7-0.5,4.3c0,0-0.2-1.2-0.4-1.8C19.8,26.1,19.6,24.8,19.5,24.4z"
     id="path16"
     style="fill:#273839;fill-opacity:1" /><path
     class="st0"
     d="M23,23.6l-1.3,0.5c0,0,0.4,0.6,0.4,1.5c0,0.8,0.1,1.3,0.1,1.3s0.2-1.3,0.6-2.3S23,23.6,23,23.6z"
     id="path18"
     style="fill:#273839;fill-opacity:1" /><path
     class="st0"
     d="M24.6,23.1l-1.1,0.4c0,0,0.4,0.3,0.4,1.1c0,0.7,0.1,1.1,0.1,1.1s0.4-0.4,0.4-1.1S24.6,23.3,24.6,23.1z"
     id="path20"
     style="fill:#273839;fill-opacity:1" /><path
     class="st0"
     d="M26.2,22.4l-1,0.5c0,0,0.4,0.3,0.4,0.9c0,0.6,0.2,0.8,0.1,1c0,0,0.2-0.2,0.3-1C26,22.9,26.4,23.3,26.2,22.4z"
     id="path22"
     style="fill:#273839;fill-opacity:1" /><path
     class="st0"
     d="M13,30.2l-1-1.2c0,0,0.5-0.6,0.7-1.6C12.7,27.4,13,29.3,13,30.2z"
     id="path24"
     style="fill:#273839;fill-opacity:1" /><path
     class="st0"
     d="M13.5,30.7l1,0.9c0,0-0.4-1.4,0.1-2.9C14.6,28.7,13.9,29.5,13.5,30.7z"
     id="path26"
     style="fill:#273839;fill-opacity:1" /><path
     class="st0"
     d="M16.4,33l-1.2-0.9c0,0,0.5-2,1.1-3.4C16.3,28.6,16.2,32.1,16.4,33z"
     id="path28"
     style="fill:#273839;fill-opacity:1" /><path
     class="st0"
     d="M18.2,34.6l-1.3-1.3c0,0,0.5-0.4,0.6-0.9c0.1-0.5,0.7-2.2,0.8-3.7C18.3,28.6,19,30.9,18.2,34.6z"
     id="path30"
     style="fill:#273839;fill-opacity:1" /><path
     class="st0"
     d="M20.5,32.8l-1.2,1.4c0,0,0.7-3.9,0.5-4.8C19.8,29.4,20.5,31.5,20.5,32.8z"
     id="path32"
     style="fill:#273839;fill-opacity:1" /><path
     class="st0"
     d="M22.6,31.2l-1.5,1.3c0,0,0.3-0.6,0.3-1c0-0.4,0.5-2.3,0.4-3C21.9,28.5,22.5,30.1,22.6,31.2z"
     id="path34"
     style="fill:#273839;fill-opacity:1" /><path
     class="st0"
     d="M24.2,29.8l-1,0.8c0,0,0.3-0.6,0.4-1.2s0.2-1,0-1.4C23.5,28,24.2,28.6,24.2,29.8z"
     id="path36"
     style="fill:#273839;fill-opacity:1" /><path
     class="st0"
     d="M25.6,28l-0.9,1.4c0,0,0.2-0.4,0.2-1.2s0.2-0.9,0.1-1.5C25,26.7,25.7,27.3,25.6,28z"
     id="path38"
     style="fill:#273839;fill-opacity:1" /></g>
</svg>
