<?xml version="1.0" encoding="UTF-8" standalone="no"?>
<svg
   xmlns:dc="http://purl.org/dc/elements/1.1/"
   xmlns:cc="http://creativecommons.org/ns#"
   xmlns:rdf="http://www.w3.org/1999/02/22-rdf-syntax-ns#"
   xmlns:svg="http://www.w3.org/2000/svg"
   xmlns="http://www.w3.org/2000/svg"
   xmlns:sodipodi="http://sodipodi.sourceforge.net/DTD/sodipodi-0.dtd"
   xmlns:inkscape="http://www.inkscape.org/namespaces/inkscape"
   width="512"
   height="512"
   viewBox="0 0 135.46666 135.46667"
   version="1.1"
   id="svg8"
   inkscape:version="1.0.1 (3bc2e813f5, 2020-09-07)"
   sodipodi:docname="Rampart Icon.svg">
  <defs
     id="defs2" />
  <sodipodi:namedview
     id="base"
     pagecolor="#ffffff"
     bordercolor="#666666"
     borderopacity="1.0"
     inkscape:pageopacity="0.0"
     inkscape:pageshadow="2"
     inkscape:zoom="0.7"
     inkscape:cx="181.96855"
     inkscape:cy="216.83629"
     inkscape:document-units="mm"
     inkscape:current-layer="layer1"
     inkscape:document-rotation="0"
     showgrid="false"
     units="px"
     inkscape:window-width="1366"
     inkscape:window-height="705"
     inkscape:window-x="-8"
     inkscape:window-y="-8"
     inkscape:window-maximized="1" />
  <metadata
     id="metadata5">
    <rdf:RDF>
      <cc:Work
         rdf:about="">
        <dc:format>image/svg+xml</dc:format>
        <dc:type
           rdf:resource="http://purl.org/dc/dcmitype/StillImage" />
        <dc:title></dc:title>
      </cc:Work>
    </rdf:RDF>
  </metadata>
  <g
     inkscape:label="Layer 1"
     inkscape:groupmode="layer"
     id="layer1">
    <g
       id="g859"
       style="fill:#273839;fill-opacity:1"
       transform="matrix(3.1039935,0,0,3.103995,-194.53615,-73.061249)">
      <path
         id="path847"
         style="fill:#273839;fill-opacity:1;stroke-width:1.33333"
         d="m 405.03906,92.839844 c -3.13413,-0.09096 -8.05181,0.33342 -15.18359,1.259765 -11.20415,1.4553 -21.12382,5.386888 -29.25781,11.595701 -3.15763,2.41027 -5.74024,3.9008 -5.74024,3.3125 0,-0.5883 2.1007,-4.55694 4.66797,-8.82031 4.05196,-6.72895 4.27119,-7.500798 1.66602,-5.841797 -1.65061,1.051125 -4.54072,5.034833 -6.42383,8.851567 -1.88311,3.81672 -3.83377,6.52951 -4.33399,6.02929 -1.69996,-1.69996 -0.90775,-6.45179 1.82227,-10.929685 1.49702,-2.455472 1.9989,-4.222311 1.11523,-3.927734 -2.87686,0.958953 -6.67437,9.518009 -5.9414,13.392579 0.80935,4.27834 0.4616,4.40692 -4.01367,1.47461 -2.94717,-1.93106 -4.01639,-1.97878 -8.95313,-0.38867 -3.08342,0.99316 -9.20547,1.63707 -13.60547,1.42968 -6.76982,-0.3191 -9.55124,0.33349 -18.08398,4.24024 -9.34859,4.28029 -14.58203,8.95834 -14.58203,13.03515 0,0.85359 -2.01979,3.78546 -4.48633,6.51563 -4.466,4.94333 -4.48722,5.03772 -5.44531,22.36133 -1.05115,19.0061 -1.19234,18.42513 7.26367,30.12109 3.29885,4.56283 4.79896,5.80216 5.11718,4.23242 0.24762,-1.22132 -0.41992,-3.22435 -1.48242,-4.45312 -5.03396,-5.82173 -8.96679,-14.72138 -8.96679,-20.28516 0,-6.20834 1.36055,-5.94588 3.71484,0.7168 0.77738,2.2 2.63851,7.30065 4.13477,11.33398 l 2.7207,7.33203 0.0469,-6.21289 c 0.1043,-13.47513 8.86128,-31.73529 17.84766,-37.21484 4.90509,-2.99093 6.0768,-3.10049 11.11328,-1.02734 3.71291,1.52832 3.68252,1.55707 -2.91211,2.58398 -5.49892,0.85629 -7.53661,2.01168 -11.63476,6.5918 -8.75176,9.78102 -11.86853,18.01444 -12.85743,33.97656 -0.47996,7.74739 -1.46461,14.51074 -2.18945,15.0293 -1.81861,1.30105 -6.08096,9.60899 -4.92383,9.59765 0.5159,-0.005 2.38639,-2.13379 4.15625,-4.73242 2.61142,-3.83425 3.41333,-7.23385 4.25,-18.03515 0.83371,-10.76304 1.84454,-15.0778 5.28907,-22.55079 4.10925,-8.91514 9.24414,-15.64441 9.24414,-12.11523 0,1.00809 1.35031,0.57433 3.51562,-1.12891 2.68399,-2.11123 5.4432,-2.76695 11.66602,-2.77148 4.48306,-0.003 9.93051,-0.081 12.10547,-0.17383 3.04683,-0.13007 4.98115,1.01711 8.42578,5.00195 4.18737,4.84408 4.37659,4.92809 3.00195,1.3125 -1.31549,-3.46002 -1.24724,-3.67808 0.65234,-2.10156 2.52241,2.09341 7.96785,11.3451 9.30274,15.80469 1.40052,4.67887 -1.25146,2.4444 -4.01758,-3.38477 -2.23789,-4.716 -2.42445,-4.81578 -4.31641,-2.35351 -1.08726,1.415 -2.21066,1.97161 -2.49609,1.23828 -3.49491,-8.97938 -9.82171,-12.93093 -16.60352,-10.3711 -2.08109,0.78553 -4.39487,0.87962 -5.43164,0.22266 -3.34437,-2.11918 -8.47456,-1.20746 -12.09375,2.14844 -1.97717,1.83333 -4.1706,3.33398 -4.87304,3.33398 -0.70244,0 -3.12278,2.99935 -5.37891,6.66602 l -4.10156,6.66601 h 3.38086 c 4.37846,0 20.60067,4.07025 20.57422,5.16211 -0.0112,0.46085 -0.50572,1.60249 -1.09766,2.53516 -0.83943,1.32262 -3.32463,0.90151 -11.29492,-1.9082 -5.6204,-1.98133 -10.59617,-3.2222 -11.0586,-2.75977 -0.46242,0.46243 -1.14947,3.56904 -1.52539,6.9043 l -0.68359,6.06445 6.02734,-0.82617 c 4.56163,-0.62524 7.03668,-0.23206 10.17383,1.62109 2.27999,1.34683 4.14649,2.84273 4.14649,3.32422 0,1.37893 -10.35938,2.67744 -14.02344,1.75781 -1.82042,-0.45689 -3.31055,-1.3657 -3.31055,-2.01953 0,-0.65383 -0.60065,-1.1875 -1.33398,-1.1875 -0.73334,0 -1.33203,2.01856 -1.33203,4.48633 0,2.46793 -1.20121,6.01227 -2.66797,7.87695 -1.46667,1.86457 -2.66602,3.83037 -2.66602,4.36719 0,0.53682 -1.05065,1.78212 -2.33398,2.76758 -2.19822,1.68798 -2.17825,1.8389 0.33398,2.60742 1.56617,0.47911 4.25203,4.13204 6.50781,8.85352 4.37795,9.16328 18.12169,23.99912 24.99805,26.98437 2.47197,1.07317 5.60314,1.97518 6.95899,2.00391 7.97024,0.16873 22.27219,-13.26568 30.20117,-28.36914 4.80379,-12.2764 4.18719,-12.61743 4.48828,-15.91211 -0.0987,-1.65 -0.58026,-4.4987 -1.07031,-6.33203 -0.63733,-2.38433 -0.13728,-1.97832 1.75586,1.42773 1.45565,2.61895 3.67836,5.6183 4.9414,6.66602 2.11502,1.75446 2.10742,1.53631 -0.0957,-2.76172 -1.31565,-2.56667 -3.01273,-5.0658 -3.77149,-5.55469 -0.75875,-0.4889 -1.81005,-7.43293 -2.33789,-15.43164 -0.78217,-11.85289 -1.6124,-15.82847 -4.48242,-21.49219 -5.42724,-10.71015 -12.06708,-17.30755 -19.23828,-19.11328 -6.02818,-1.51791 -6.06419,-1.56063 -2.41992,-2.77539 11.28726,-3.76242 25.82372,15.041 27.27148,35.27539 0.36043,5.03745 1.17316,9.47958 1.80664,9.8711 0.63348,0.39151 1.15235,-0.11932 1.15235,-1.13477 0,-1.01545 1.54656,-3.29766 3.43554,-5.07227 2.69928,-2.53583 3.26766,-4.06015 2.65625,-7.11718 -0.53213,-2.66068 -0.0583,-4.68612 1.50196,-6.41016 3.04127,-3.36057 2.27786,-20.31029 -1.10547,-24.53906 -0.65779,-0.82214 -0.7122,-2.80246 -0.1211,-4.40039 1.05927,-2.86346 1.16088,-2.83919 7.0586,1.66406 6.04021,4.61203 10.61184,10.4579 15.81836,20.23047 1.48497,2.78727 2.81577,8.30059 2.80217,7.658 -0.0218,-1.03235 -0.83721,-7.84163 -4.96819,-15.44511 -1.78423,-3.54949 -5.69478,-9.11053 -8.68945,-12.35938 -2.99467,-3.24884 -5.20383,-6.14766 -4.91016,-6.4414 0.91525,-0.91527 18.81671,8.59748 24.19532,12.85742 2.8137,2.2285 5.40437,3.76552 5.75585,3.41406 1.58797,-1.588 -17.55268,-15.02011 -26.0957,-18.3125 -7.49116,-2.88702 -8.10767,-4.49474 -1.33398,-3.48047 3.30002,0.49413 10.76675,2.9553 16.59179,5.46875 5.82509,2.51347 10.84848,4.31161 11.16407,3.9961 1.82369,-1.8237 -2.02609,-4.74593 -10.63672,-8.07227 -7.62112,-2.9441 -12.21836,-3.82227 -20.78711,-3.97265 -11.38793,-0.19987 -14.21328,-1.80146 -6.67188,-3.78321 6.3842,-1.67765 20.54875,-0.26319 29.58008,2.95508 8.4209,3.00064 9.24445,2.9987 8.08399,-0.0254 -1.87401,-4.88365 -29.66109,-8.18154 -39.80664,-4.72461 -3.37458,1.14983 -6.456,1.57121 -6.84766,0.9375 -0.93373,-1.51082 -0.0379,-1.98457 8.57226,-4.5293 9.10236,-2.6902 24.6718,-2.75855 32.0918,-0.14062 6.89647,2.43319 6.66602,2.42968 6.66602,0.12109 0,-4.04471 -24.40353,-5.81002 -38.66602,-2.79687 -2.41368,0.50992 -2.04516,0.0852 1.33399,-1.53906 5.05465,-2.42959 26.70073,-3.3076 33.79687,-1.3711 2.84497,0.77637 3.65388,0.60283 3.22656,-0.68945 -0.31377,-0.94891 -4.11784,-2.26398 -8.45507,-2.92383 -10.75764,-1.63663 -27.73909,0.76553 -37.25977,5.26953 -4.11353,1.94601 -7.761,3.25462 -8.10547,2.91016 -1.09601,-1.09602 8.7496,-8.94804 14.54492,-11.59961 9.08951,-4.158788 16.91262,-5.69917 28.58399,-5.628908 8.68664,0.05229 11,-0.334272 11,-1.841797 0,-1.133335 -1.35024,-1.741067 -4.48438,-1.832031 z M 339.21094,110.4707 c 1.47906,0.047 2.64896,0.78036 4.8164,2.38282 2.28924,1.6925 4.16407,3.4732 4.16407,3.95703 0,1.37748 -7.86294,1.25238 -8.72266,-0.13867 -0.42269,-0.68393 0.16727,-1.24415 1.31055,-1.24415 1.14328,0 2.07812,-0.59869 2.07812,-1.33203 0,-2.82666 -2.8087,-1.11411 -6.47656,3.94922 -2.10483,2.90563 -5.1642,9.05498 -6.79688,13.66602 -5.16088,14.57544 -4.79485,13.86867 -5.80273,11.24218 -0.4859,-1.2662 -2.60783,-3.0273 -4.7168,-3.91406 l -3.83593,-1.61328 2.63867,-6.9414 c 3.51646,-9.25459 10.17272,-16.80642 16.71875,-18.9668 2.13885,-0.70589 3.47461,-1.08342 4.625,-1.04688 z m 27.57422,2.10547 c 0.13321,-0.0171 0.23811,-0.0163 0.30664,0.006 0.18273,0.0592 0.11173,0.2658 -0.34571,0.66602 -0.30555,0.26733 -2.05533,1.20109 -3.88867,2.07422 -3.14302,1.49685 -3.1865,1.46884 -0.74609,-0.48633 1.39387,-1.11673 3.74134,-2.14011 4.67383,-2.25977 z m -45.28711,0.19141 c 2.35871,0.0496 4.02539,0.47039 4.02539,1.32812 0,0.73334 -0.45,1.33463 -1,1.33594 -1.51207,0.004 -7.69438,10.52658 -10.28321,17.50391 -2.10567,5.67516 -7.7259,10.59441 -9.76953,8.55078 -0.3896,-0.38961 0.023,-3.97244 0.91602,-7.96289 1.26949,-5.67268 2.77152,-8.29174 6.88476,-12.00782 2.89347,-2.61405 6.25841,-4.7539 7.47852,-4.7539 1.2201,0 1.86331,-0.35544 1.42969,-0.78906 -1.37374,-1.37374 -6.33989,0.88669 -11.0625,5.0332 -4.63097,4.06604 -8.59375,13.78374 -8.59375,21.07617 0,1.92674 -0.83539,4.64722 -1.85742,6.04492 -1.73776,2.37652 -1.95367,2.1976 -3.32618,-2.74609 -2.00263,-7.21341 -1.85408,-11.81555 0.56836,-17.61328 2.64641,-6.33373 5.45219,-9.36189 11.5625,-12.48047 3.24521,-1.65629 9.09615,-2.60226 13.02735,-2.51953 z m -21.1543,4.66015 -3.39453,6 c -3.67882,6.50437 -4.48898,15.64014 -2.1211,23.89649 0.71689,2.49966 0.95121,5.94604 0.52149,7.6582 -0.42973,1.71217 -1.2572,3.11328 -1.83789,3.11328 -2.08241,0 -4.31893,-13.75431 -3.63086,-22.32617 0.6263,-7.80233 1.19267,-9.17289 5.58008,-13.51172 z m 40.12891,1.75782 c 0.88768,-0.0256 1.94915,0.007 3.23437,0.0859 3.53964,0.21767 7.90301,1.16444 9.69531,2.10352 l 3.25782,1.70703 -2.99414,1.60352 c -1.64673,0.8813 -6.25763,4.55813 -10.24805,8.17187 -3.99043,3.61375 -7.86973,6.57031 -8.62109,6.57031 -2.43752,0 1.04877,-4.82356 7.71093,-10.66796 3.49206,-3.06342 4.86895,-4.8255 3.06055,-3.91602 -1.8084,0.90948 -6.4571,4.82428 -10.33203,8.69922 -3.87494,3.87493 -7.04492,6.89854 -7.04492,6.71875 0,-0.82467 6.46611,-16.71411 7.69726,-18.91406 0.8287,-1.48082 1.92094,-2.08546 4.58399,-2.16211 z m 15.74414,5.57617 c 0.58883,0 2.58437,1.8 4.43554,4 1.85118,2.2 4.26898,4 5.37305,4 5.78908,0 3.67564,7.38876 -3.71875,13 -3.14071,2.38333 -5.95118,4.30036 -6.24609,4.25976 -0.80842,-0.11123 -6.53711,-7.55993 -6.53711,-8.5 0,-0.45016 2.81814,-2.60521 6.26172,-4.78906 3.44357,-2.18385 5.66106,-3.9707 4.92773,-3.9707 -0.73333,0 -4.10332,1.75567 -7.48828,3.90234 -5.68518,3.60544 -11.70117,4.32446 -11.70117,1.39844 0,-1.31936 13.23603,-13.30078 14.69336,-13.30078 z m -69.44922,10 0.0449,6.04297 c 0.0244,3.32351 1.01195,9.32417 2.19531,13.33398 1.18336,4.00982 2.12871,9.21316 2.09961,11.56445 -0.029,2.35131 -0.62011,5.29053 -1.31445,6.53126 -1.91088,3.41453 -7.2234,-11.39433 -7.94922,-22.16016 -0.49591,-7.35556 -0.16262,-9.19622 2.16992,-12 z m 82.95898,8.18164 c 0.0529,0.003 0.0965,0.0163 0.13086,0.0371 0.55,0.33297 1,2.55211 1,4.93164 0,3.14347 -1.20187,5.49155 -4.39648,8.58789 -2.41825,2.34386 -4.68673,4.26172 -5.04102,4.26172 -0.35431,0 -1.37501,-1.93416 -2.26758,-4.29883 -1.57261,-4.16633 -1.44754,-4.45084 4.04102,-9.19336 2.92042,-2.52346 5.73916,-4.37866 6.5332,-4.32617 z m 2.48438,12.20703 c 0.15704,0.0175 0.28721,0.0721 0.38672,0.16992 0.59062,0.58035 0.70795,2.49198 0.25976,4.24805 -0.44819,1.75607 -2.54275,5.2927 -4.65234,7.85937 -4.01749,4.88794 -3.79488,4.96405 -5.97852,-2.01367 -0.70029,-2.23774 7.6287,-10.52559 9.98438,-10.26367 z m -14.82227,16.20313 c 0.27806,-0.0288 0.60257,0.0967 0.94141,0.43554 0.44307,0.44306 0.55293,1.56386 0.24414,2.49024 -0.45164,1.35498 -0.76738,1.3535 -1.60742,-0.006 -0.83403,-1.34949 -0.41232,-2.83347 0.42187,-2.91992 z m 9.81836,0.22656 c 1.39944,0.12354 1.87057,2.03454 0.71875,4.5625 -0.82339,1.80715 -1.99961,3.28515 -2.61523,3.28515 -1.58197,0 -1.39815,-6.33635 0.21289,-7.33203 0.64681,-0.39975 1.21711,-0.5568 1.68359,-0.51562 z m -15.22265,0.0156 c 1.15604,-0.0507 2.87304,1.29995 2.87304,2.57813 0,0.69005 -0.5658,1.2539 -1.25586,1.2539 -1.57314,0 -3.25586,-2.5996 -2.30078,-3.55468 0.17908,-0.17908 0.41681,-0.26564 0.6836,-0.27735 z m -5.91602,0.57227 c 0.50095,-0.0159 0.89035,0.0348 1.12305,0.16992 2.48543,1.44375 0.56927,4.1423 -4,5.63281 -2.75,0.89706 -5.6388,1.90399 -6.41797,2.23828 -1.73802,0.74569 -3.25,-0.63269 -3.25,-2.96289 0,-1.53121 9.03823,-4.96712 12.54492,-5.07812 z m -18.66797,2.50781 c 0.37558,-0.0199 0.74072,0.0543 1.06055,0.25195 0.58501,0.36156 1.0625,1.52336 1.0625,2.58008 0,2.26256 -3.43489,2.57805 -4.75782,0.4375 -0.81665,-1.32139 1.00725,-3.18313 2.63477,-3.26953 z m -23.0957,7.41211 c 2.62152,-0.0105 6.0745,0.9646 8.07226,2.62891 3.78492,3.15315 3.14031,3.32428 -2.01172,0.5332 -2.10346,-1.13954 -5.23464,-1.80231 -6.95898,-1.47266 -1.72435,0.32963 -2.81744,0.0864 -2.42969,-0.54101 0.48215,-0.78014 1.75521,-1.14216 3.32813,-1.14844 z m 45.0957,0.11523 c 2.09117,-0.12447 3.99014,0.27375 5.45703,1.20899 1.38414,0.88248 0.52456,1.03669 -2.79297,0.50391 -3.14699,-0.50541 -6.23852,-0.0218 -9,1.40625 -2.31351,1.19634 -4.20703,1.87446 -4.20703,1.50781 0,-0.36667 1.77001,-1.58234 3.9336,-2.70117 2.23464,-1.15558 4.5182,-1.8013 6.60937,-1.92579 z m 17.57311,2.23135 c 0,-1.23351 -1.8502,1.61255 -2.375,5.4414 -0.43804,3.19664 -0.56133,7.15726 -0.0332,8.72852 0.33342,0.99197 1.17773,2.76953 1.17773,2.76953 1.62075,-1.20854 0.39062,-4.64086 3.72266,-6.79688 1.8874,-1.88637 2.65783,-7.93725 -1.92578,-10.10742 -0.20175,-0.0382 -0.56641,0.14113 -0.56641,-0.0351 z m -82.72044,1.33506 c 0,-0.12481 -0.24372,-0.0164 -0.35938,0.01 -0.26436,0.0597 -0.50751,0.24338 -0.71484,0.57031 -1.688,2.66165 -1.3731,5.87292 1.14258,11.67969 2.54185,5.86718 4.32183,4.92088 4.35547,-2.31446 0.0206,-4.42816 -4.42383,-8.07321 -4.42383,-9.94531 z m 65.12194,0.40235 c 0.37234,-0.005 0.73889,0.003 1.09766,0.0234 1.72208,0.0988 3.26403,0.49639 4.38476,1.20508 1.77778,1.12418 1.77778,1.48196 0,3.22461 -2.78268,2.7277 -7.88137,3.51536 -13,2.00586 -2.38333,-0.70285 -4.33398,-1.54619 -4.33398,-1.87305 0,-0.32686 1.77001,-1.51007 3.93359,-2.6289 2.42555,-1.25431 5.31161,-1.92047 7.91797,-1.95703 z m -14.13867,20.23046 c 0.3858,-0.003 1.19972,0.29999 2.57617,1.00782 2.99614,1.64213 3.19284,7.61079 -4.55273,7.32226 -2.26685,2.0651 -4.16226,3.26166 -5.71485,3.66016 -2.59459,0.11782 -5.14825,-2.97675 -7.72265,-4.46485 -1.90052,-0.50697 -1.06638,-0.90287 -0.0449,-1.29296 4.20711,-0.35969 4.77576,5.29292 12.41016,0.625 5.08543,-0.0996 6.19147,-2.52102 4.0625,-4.73243 -1.11075,-1.26288 -1.65667,-2.12024 -1.01367,-2.125 z m -20.35352,10.27539 c 0.88959,-7.6e-4 1.6112,0.70598 1.61133,1.57813 -1.4e-4,0.87215 -0.72174,1.57888 -1.61133,1.57812 -0.88882,-3e-4 -1.60923,-0.70672 -1.60937,-1.57812 1.3e-4,-0.8714 0.72054,-1.57783 1.60937,-1.57813 z m 11.86328,7.58008 c 4.71335,-0.0651 9.46463,0.36221 12.11133,1.31055 3.07624,1.10225 3.75786,1.71178 2,1.78711 -2.17813,0.0934 -2.30567,0.34153 -0.69922,1.35742 1.53175,0.96865 0.64702,1.84327 -4,3.95117 -3.28172,1.4886 -7.1681,2.68756 -8.63476,2.66602 -4.34065,-0.0642 -12.66602,-4.03771 -12.66602,-6.04492 0,-1.02158 -0.74935,-1.89488 -1.66601,-1.94141 -0.91667,-0.0465 -0.16732,-0.69573 1.66601,-1.44336 2.4999,-1.01946 7.17532,-1.57744 11.88867,-1.64258 z"
         transform="scale(0.26458333)"
         sodipodi:nodetypes="ssssssssssssssssssssssscccsssssssssssscssssssscssssccsssssscssssssssssssscccsssssssssssssssssssscscssssscssscsssssssssssssssssssssssssscccsssssssssscssssssssssssscccsssccscsccsssssssssssssssssssccsssscccsssssscscsssssssssssssssssssscsssssssssssssssssssscsccsccscssssssssssssscscccccccscccccssssscssssscsscssss" />
      <path
         style="fill:#273839;fill-opacity:1;stroke:none;stroke-width:0.264583px;stroke-linecap:butt;stroke-linejoin:miter;stroke-opacity:1"
         d="m 96.501002,55.358201 c 0.05714,0.480317 -0.04256,0.803794 -0.517835,0.751695 0.02029,-0.440971 -0.01786,-0.954986 0.517835,-0.751695 z"
         id="path855"
         sodipodi:nodetypes="ccc" />
    </g>
  </g>
</svg>
