<?xml version="1.0" encoding="UTF-8" standalone="no"?>
<svg
   version="1.0"
   width="512"
   height="512"
   viewBox="0 0 384 384"
   preserveAspectRatio="xMidYMid meet"
   id="svg16"
   sodipodi:docname="Revenant_Icon.svg"
   inkscape:version="1.1 (c68e22c387, 2021-05-23)"
   xmlns:inkscape="http://www.inkscape.org/namespaces/inkscape"
   xmlns:sodipodi="http://sodipodi.sourceforge.net/DTD/sodipodi-0.dtd"
   xmlns="http://www.w3.org/2000/svg"
   xmlns:svg="http://www.w3.org/2000/svg"
   xmlns:rdf="http://www.w3.org/1999/02/22-rdf-syntax-ns#"
   xmlns:cc="http://creativecommons.org/ns#"
   xmlns:dc="http://purl.org/dc/elements/1.1/">
  <metadata
     id="metadata22">
    <rdf:RDF>
      <cc:Work
         rdf:about="">
        <dc:format>image/svg+xml</dc:format>
        <dc:type
           rdf:resource="http://purl.org/dc/dcmitype/StillImage" />
      </cc:Work>
    </rdf:RDF>
  </metadata>
  <defs
     id="defs20" />
  <sodipodi:namedview
     pagecolor="#ffffff"
     bordercolor="#666666"
     borderopacity="1"
     objecttolerance="10"
     gridtolerance="10"
     guidetolerance="10"
     inkscape:pageopacity="0"
     inkscape:pageshadow="2"
     inkscape:window-width="1366"
     inkscape:window-height="697"
     id="namedview18"
     showgrid="false"
     inkscape:zoom="0.5512295"
     inkscape:cx="136.05948"
     inkscape:cy="329.26395"
     inkscape:window-x="-8"
     inkscape:window-y="-8"
     inkscape:window-maximized="1"
     inkscape:current-layer="svg16"
     inkscape:document-rotation="0"
     inkscape:pagecheckerboard="0"
     inkscape:document-units="px"
     units="px" />
  <g
     transform="matrix(0.12281866,0,0,-0.12281866,-33.986531,436.13834)"
     fill="#000000"
     stroke="none"
     id="g14"
     style="fill:#273839;fill-opacity:1">
    <path
       d="m 1215,3124 c -219,-21 -401,-60 -620,-131 -44,-14 -85,-30 -92,-35 -6,-5 -14,-39 -18,-76 -11,-122 -36,-255 -86,-450 -27,-106 -49,-210 -49,-230 0,-44 77,-277 119,-359 32,-63 72,-106 111,-121 14,-5 57,-13 95,-16 152,-16 262,-55 299,-108 9,-12 19,-19 22,-15 13,13 -23,241 -45,289 -20,42 -21,49 -8,70 22,33 41,229 25,240 -7,5 -47,26 -88,47 -59,31 -91,57 -148,120 l -74,81 87,40 c 48,22 89,40 92,40 2,0 19,11 36,24 94,72 205,84 367,41 96,-26 169,-66 253,-138 34,-30 41,-44 73,-162 31,-109 36,-141 32,-201 -4,-64 -10,-79 -51,-145 -71,-112 -127,-229 -127,-264 0,-74 64,-206 206,-426 87,-134 94,-139 217,-139 h 101 l 41,44 c 53,57 217,332 250,419 14,37 25,83 25,103 0,39 -40,123 -111,234 -26,41 -52,88 -58,103 -19,51 -13,138 21,271 l 33,129 71,57 c 88,70 140,96 244,121 155,37 260,21 359,-55 19,-14 38,-26 42,-26 5,0 42,-16 84,-35 l 77,-35 -74,-80 c -59,-65 -90,-88 -160,-125 -49,-25 -88,-49 -88,-53 3,-81 23,-209 36,-232 16,-26 16,-29 -5,-63 -21,-34 -51,-190 -51,-266 v -33 l 35,31 c 64,56 141,82 290,97 39,3 81,11 95,16 39,15 79,58 110,119 41,80 120,318 120,361 0,20 -16,96 -35,169 -54,206 -83,343 -96,464 -7,61 -17,115 -23,121 -23,24 -290,101 -461,133 -109,21 -389,51 -470,51 h -42 l -6,-82 c -13,-171 -65,-265 -182,-326 -46,-25 -59,-27 -175,-27 -116,0 -128,2 -175,27 -121,64 -185,190 -185,366 v 42 l -62,-1 c -35,-1 -126,-7 -203,-15 z m -172,-245 c 112,-28 252,-81 396,-148 158,-75 198,-88 310,-102 167,-21 298,7 521,114 222,105 471,177 568,162 73,-11 155,-60 227,-137 94,-99 113,-142 131,-299 10,-90 23,-148 39,-185 26,-58 24,-67 -6,-31 -48,56 -67,102 -74,182 -8,109 -47,189 -134,276 -91,89 -124,104 -236,103 -77,0 -105,-5 -199,-38 -104,-36 -250,-97 -449,-187 -56,-26 -125,-47 -193,-60 -104,-20 -104,-20 -208,0 -68,13 -137,34 -193,60 -206,93 -355,155 -453,189 -89,30 -119,36 -195,36 -114,1 -162,-21 -249,-115 -88,-95 -126,-184 -126,-297 0,-41 -28,-104 -66,-146 -24,-27 -48,-30 -26,-3 24,28 43,105 53,207 12,129 22,160 69,230 69,102 178,188 265,211 41,11 134,2 228,-22 z M 736,2659 c 22,-18 17,-29 -33,-93 -43,-54 -47,-57 -60,-40 -7,11 -22,29 -34,41 -22,24 -21,27 20,81 22,30 29,33 59,28 19,-3 40,-10 48,-17 z m 2327,-26 30,-43 -24,-23 c -13,-13 -29,-32 -36,-43 -11,-19 -12,-19 -26,1 -8,11 -29,38 -46,59 -36,45 -36,65 -1,83 41,21 69,12 103,-34 z M 2006,2375 c 33,-50 36,-60 29,-100 -3,-25 -10,-45 -15,-45 -4,0 -22,22 -39,48 -27,43 -30,53 -24,100 3,29 7,52 9,52 2,0 19,-25 40,-55 z m -282,0 c 6,-40 3,-50 -31,-102 l -37,-58 -9,51 c -9,49 -8,54 24,103 19,28 37,51 40,51 4,0 10,-20 13,-45 z m -12,-254 c -17,-30 -35,-57 -40,-59 -5,-1 -12,18 -16,44 -5,43 -3,52 31,103 l 38,56 9,-44 c 8,-39 6,-49 -22,-100 z m 282,84 c 41,-62 40,-57 25,-109 l -11,-40 -34,55 c -18,30 -34,65 -34,79 0,24 10,70 15,70 1,0 19,-25 39,-55 z M 562,2125 c 55,-110 108,-192 136,-207 22,-11 23,-16 17,-68 -4,-30 -9,-58 -11,-61 -2,-4 -23,-10 -48,-13 -55,-9 -88,6 -119,53 -28,44 -127,262 -127,281 0,21 104,123 109,108 2,-7 21,-49 43,-93 z m 2664,44 52,-51 -52,-117 c -94,-213 -117,-238 -202,-225 -37,5 -45,10 -50,33 -3,14 -10,39 -15,56 -10,30 -5,38 38,63 10,6 113,166 113,176 0,11 52,116 58,116 3,0 30,-23 58,-51 z M 1887,2007 c 71,-52 135,-141 211,-293 l 31,-61 -43,-75 c -113,-197 -201,-289 -262,-274 -56,14 -147,125 -236,286 l -37,66 53,101 c 82,155 183,273 236,273 9,0 30,-10 47,-23 z M 864,1964 c 13,-5 16,-22 16,-85 0,-77 -1,-79 -24,-79 -18,0 -31,11 -50,46 -14,26 -26,50 -26,54 0,12 50,70 60,70 5,0 15,-3 24,-6 z m 2012,-29 27,-36 -26,-47 c -19,-34 -33,-48 -51,-50 l -26,-3 v 80 c 0,78 4,88 37,90 7,1 24,-15 39,-34 z"
       id="path2"
       style="fill:#273839;fill-opacity:1" />
    <path
       d="m 1749,1813 c -34,-43 -70,-85 -79,-94 -16,-14 -13,-20 49,-94 78,-93 110,-119 135,-109 10,4 54,48 97,98 75,86 78,91 61,106 -10,8 -47,50 -82,93 -51,63 -68,77 -91,77 -23,0 -39,-14 -90,-77 z m 46,-151 c -3,-3 -22,10 -41,30 l -36,36 38,42 39,43 3,-73 c 2,-40 0,-75 -3,-78 z m 134,101 31,-37 -32,-33 c -18,-18 -36,-33 -40,-33 -4,0 -8,32 -8,70 0,39 4,70 9,70 5,0 23,-17 40,-37 z"
       id="path4"
       style="fill:#273839;fill-opacity:1" />
    <path
       d="m 1565,3131 c -10,-17 15,-141 37,-185 27,-54 54,-83 103,-109 33,-18 57,-22 136,-22 89,0 99,2 145,30 82,51 113,115 127,270 2,19 -5,20 -270,23 -167,1 -274,-1 -278,-7 z"
       id="path6"
       style="fill:#273839;fill-opacity:1" />
    <path
       d="m 1057,2442 c -22,-24 -21,-35 2,-56 25,-23 118,-23 160,-1 26,13 30,19 21,35 -21,39 -154,55 -183,22 z"
       id="path8"
       style="fill:#273839;fill-opacity:1" />
    <path
       d="m 2483,2449 c -18,-5 -37,-18 -43,-29 -9,-16 -6,-22 21,-35 42,-22 135,-22 160,1 58,53 -32,94 -138,63 z"
       id="path10"
       style="fill:#273839;fill-opacity:1" />
    <path
       d="m 1385,2284 c -22,-13 -96,-44 -165,-70 -69,-25 -131,-52 -138,-58 -7,-7 -17,-55 -23,-107 -6,-52 -15,-104 -22,-117 -8,-18 -8,-28 2,-44 12,-19 20,-85 36,-278 4,-41 22,-122 40,-180 18,-58 42,-136 54,-175 70,-244 129,-401 158,-418 5,-3 27,-1 49,4 51,12 877,12 928,0 22,-5 44,-7 49,-4 13,8 70,135 96,213 11,36 50,160 85,275 59,195 64,221 76,365 7,85 19,172 27,192 10,25 12,42 5,55 -6,10 -16,62 -23,116 -7,53 -17,101 -23,106 -6,4 -63,28 -126,51 -63,24 -137,55 -165,69 -27,14 -53,27 -58,29 -12,6 -66,-120 -78,-183 -17,-91 -7,-130 64,-252 79,-135 91,-169 84,-244 -9,-103 -139,-359 -272,-537 -63,-84 -91,-95 -227,-90 -78,3 -103,8 -125,24 -36,26 -168,222 -232,344 -71,136 -101,222 -101,289 0,61 9,82 99,239 62,107 70,147 47,245 -16,68 -60,168 -74,166 -4,0 -25,-12 -47,-25 z"
       id="path12"
       style="fill:#273839;fill-opacity:1" />
  </g>
</svg>
