<?xml version="1.0" encoding="UTF-8" standalone="no"?>
<svg
   xmlns:dc="http://purl.org/dc/elements/1.1/"
   xmlns:cc="http://creativecommons.org/ns#"
   xmlns:rdf="http://www.w3.org/1999/02/22-rdf-syntax-ns#"
   xmlns:svg="http://www.w3.org/2000/svg"
   xmlns="http://www.w3.org/2000/svg"
   xmlns:sodipodi="http://sodipodi.sourceforge.net/DTD/sodipodi-0.dtd"
   xmlns:inkscape="http://www.inkscape.org/namespaces/inkscape"
   width="512"
   height="512"
   viewBox="0 0 135.46666 135.46667"
   version="1.1"
   id="svg8"
   inkscape:version="1.0.1 (3bc2e813f5, 2020-09-07)"
   sodipodi:docname="Seer Icon.svg"
   inkscape:export-filename="C:\Users\deeev\Downloads\Rampage Icon.png"
   inkscape:export-xdpi="97.545326"
   inkscape:export-ydpi="97.545326">
  <defs
     id="defs2" />
  <sodipodi:namedview
     id="base"
     pagecolor="#ffffff"
     bordercolor="#666666"
     borderopacity="1.0"
     inkscape:pageopacity="0.0"
     inkscape:pageshadow="2"
     inkscape:zoom="0.7"
     inkscape:cx="119.03757"
     inkscape:cy="316.48337"
     inkscape:document-units="mm"
     inkscape:current-layer="layer1"
     inkscape:document-rotation="0"
     showgrid="false"
     units="px"
     inkscape:window-width="1366"
     inkscape:window-height="705"
     inkscape:window-x="-8"
     inkscape:window-y="-8"
     inkscape:window-maximized="1"
     inkscape:object-nodes="false" />
  <metadata
     id="metadata5">
    <rdf:RDF>
      <cc:Work
         rdf:about="">
        <dc:format>image/svg+xml</dc:format>
        <dc:type
           rdf:resource="http://purl.org/dc/dcmitype/StillImage" />
        <dc:title></dc:title>
      </cc:Work>
    </rdf:RDF>
  </metadata>
  <g
     inkscape:label="Layer 1"
     inkscape:groupmode="layer"
     id="layer1">
    <path
       style="fill:#273839;stroke-width:0.725474;fill-opacity:1"
       d="m 62.28087,128.60557 c -1.215038,-0.35326 -5.132593,-3.12952 -8.705691,-6.16952 C 39.56453,110.5158 36.834206,106.9868 33.571932,96.581365 c -1.802767,-5.75014 -1.97482,-7.01717 -1.295481,-9.54005 0.430861,-1.60009 0.586358,-3.89439 0.345549,-5.09843 l -0.437833,-2.18917 2.27932,2.14146 c 1.253625,1.1778 3.050997,3.77377 3.99416,5.76882 0.989366,2.09279 1.714838,3.01354 1.714838,2.17642 0,-2.15248 -3.166172,-8.47128 -5.165684,-10.30927 -1.503816,-1.38234 -1.736227,-2.23318 -1.684421,-6.16653 0.07564,-5.742416 1.175347,-8.00844 3.592165,-7.401857 2.141114,0.537385 5.448533,-2.42213 5.448533,-4.875404 0,-0.887583 0.386214,-2.681839 0.858253,-3.987239 0.665771,-1.841152 0.659914,-2.808757 -0.02612,-4.314415 -0.831301,-1.824507 -0.78712,-1.915535 0.73635,-1.517139 1.408253,0.368267 16.387526,-1.546654 17.248566,-2.205023 0.421327,-0.322163 -5.89665,-6.741596 -6.635063,-6.741596 -0.315934,0 -0.574431,0.95607 -0.574431,2.1246 0,2.531442 -1.659973,4.404657 -3.903256,4.404657 -3.512,0 -5.266986,-3.238138 -3.705239,-6.836574 0.485314,-1.118217 0.369017,-1.304714 -0.585258,-0.938525 -0.655009,0.251351 -1.361755,0.180598 -1.570547,-0.157236 -0.665994,-1.077601 4.418303,-1.564945 7.985776,-0.765457 1.894509,0.424566 4.457165,1.481497 5.694804,2.348736 1.723847,1.207946 2.007042,1.27404 1.210576,0.282541 -1.888858,-2.35136 -6.486113,-4.157279 -10.966821,-4.30804 -3.858105,-0.129804 -4.304142,-0.304531 -4.310055,-1.688282 -0.01481,-3.485986 2.770664,-3.587676 14.140127,-0.516202 5.057676,1.366333 6.792772,2.754595 7.678592,6.143674 0.505951,1.935679 0.57184,1.53237 0.316201,-1.935282 -0.373083,-5.060375 -1.764216,-8.826777 -4.011329,-10.860391 -1.331619,-1.205094 -2.640473,-1.428853 -8.401006,-1.436215 -3.752988,-0.0047 -6.824446,-0.103564 -6.825455,-0.219466 -10e-4,-0.115902 0.693072,-1.150654 1.542404,-2.299438 1.191837,-1.612045 1.410667,-2.557286 0.958924,-4.142092 -0.692037,-2.427801 -0.439072,-7.78795 0.489645,-10.375283 l 0.658575,-1.8347357 -1.446824,1.8136817 c -0.795753,0.997526 -1.454083,2.508249 -1.462954,3.357166 -0.0088,0.848917 -0.512139,1.95513 -1.118366,2.458255 -0.7892,0.654978 -0.970143,1.618886 -0.637124,3.394028 0.367929,1.961225 0.133854,2.831858 -1.120275,4.166817 -0.936894,0.997277 -1.611536,2.686993 -1.649315,4.130901 -0.03517,1.343835 -0.55748,3.202015 -1.160703,4.129288 -0.630627,0.9694 -1.14832,3.59025 -1.218065,6.166519 -0.06671,2.464312 -0.422382,5.296727 -0.79038,6.29425 -0.367995,0.997527 -0.57588,2.956304 -0.461965,4.352838 0.494856,6.06671 -0.237218,13.058513 -1.367288,13.058513 -0.618412,0 -1.084276,-6.09157 -0.58256,-7.617466 0.131202,-0.399011 0.330706,-3.010713 0.44336,-5.803783 0.311881,-7.732552 0.625269,-10.756626 1.262167,-12.179455 0.319405,-0.713547 0.371199,-2.607741 0.1151,-4.209317 -0.328331,-2.053263 -0.140436,-3.376263 0.637193,-4.486477 0.606559,-0.865985 1.102836,-2.772802 1.102836,-4.23737 0,-1.652544 0.397689,-2.815459 1.048184,-3.065078 0.576499,-0.221224 1.268339,-1.643618 1.537419,-3.160875 0.269081,-1.517259 1.389634,-3.738042 2.490119,-4.935072 1.100483,-1.197031 2.14027,-2.637588 2.310639,-3.2012407 0.346203,-1.145394 0.03856,-1.075066 11.331726,-2.590535 13.884286,-1.863183 27.622607,-1.067072 42.480485,2.461665 8.96112,2.1282617 11.20443,3.2026187 11.77676,5.6400907 0.26383,1.123571 1.64461,4.491328 3.06842,7.483905 1.42381,2.992575 2.51277,5.723873 2.4199,6.069553 -0.0927,0.345678 0.35425,1.426825 0.99356,2.402549 0.63933,0.975722 1.09315,2.488438 1.00849,3.361594 -0.0847,0.873154 0.0294,2.077245 0.25339,2.67576 0.22403,0.598516 0.95642,4.679419 1.62755,9.068675 1.19122,7.790959 1.1853,8.083825 -0.24988,12.333038 -3.10474,9.192422 -6.85745,17.082526 -9.61465,20.214856 -3.02848,3.44054 -5.70089,8.57454 -5.71558,10.98022 -0.004,0.82859 0.73054,-0.10492 1.71497,-2.17642 0.94809,-1.99505 3.59458,-5.42291 5.88112,-7.61747 l 4.15734,-3.9901 -0.47784,2.70874 c -0.81783,4.63621 -5.30172,20.34315 -6.78595,23.771025 -0.77744,1.79555 -2.75682,4.96019 -4.39864,7.03254 -4.42311,5.58301 -19.069088,17.93977 -22.471538,18.95918 -3.26992,0.97969 -19.723692,1.0352 -23.017255,0.0777 z m 21.292602,-23.4395 c 2.20534,-1.15653 2.37985,-1.50142 2.17643,-4.3014 l -0.22117,-3.044055 H 73.921148 62.313588 l -0.221234,3.045485 c -0.207352,2.85443 -0.05614,3.13012 2.408649,4.39469 3.57503,1.8341 15.507449,1.77484 19.072469,-0.0947 z M 59.774437,99.997035 c 0,-1.56726 -0.320355,-1.81057 -2.357792,-1.79075 l -2.357792,0.0229 2.035504,1.790755 c 2.525064,2.22145 2.68008,2.22012 2.68008,-0.02291 z m 31.887925,-0.68586 c 0.81263,-0.97915 0.63742,-1.12782 -1.32923,-1.12782 -1.94101,0 -2.26525,0.26327 -2.26525,1.839215 0,1.55827 0.20297,1.73054 1.32923,1.12782 0.73109,-0.39126 1.75046,-1.218915 2.26525,-1.839215 z m -0.14847,-3.20924 c 3.22333,-0.12987 3.02412,-1.58801 -0.64618,-4.72965 -3.67907,-3.14914 -9.25814,-5.14025 -12.46252,-4.44774 -1.26918,0.27429 -3.286979,0.4987 -4.484023,0.4987 -1.197024,0 -3.214822,-0.22441 -4.484006,-0.4987 -3.204396,-0.69251 -8.783446,1.2986 -12.462513,4.44774 -3.639891,3.11561 -3.821723,4.46057 -0.646201,4.7796 2.144599,0.21546 29.564023,0.17653 35.185443,-0.05 z m -15.05355,-15.35545 c 0,-1.77622 3.00465,-3.60185 5.92801,-3.60185 1.7978,0 3.56467,-0.48736 4.35284,-1.20065 1.42912,-1.29332 1.75704,-4.99107 0.60123,-6.779545 -0.52376,-0.810454 -0.70608,-0.400337 -0.71435,1.606785 -0.0123,3.07943 -1.37882,4.18319 -5.2231,4.22006 -1.32302,0.0127 -3.0392,0.50239 -3.81372,1.08821 -0.77453,0.58583 -2.426069,1.06514 -3.670083,1.06514 -1.243993,0 -2.895536,-0.47931 -3.67006,-1.06514 -0.774545,-0.58582 -2.490701,-1.07551 -3.813724,-1.08821 -3.844303,-0.0369 -5.210409,-1.14063 -5.223098,-4.22006 -0.0082,-2.007122 -0.190633,-2.417239 -0.714372,-1.606785 -1.097491,1.698275 -0.848022,5.191355 0.475186,6.653495 0.812239,0.89751 2.2204,1.3267 4.352845,1.3267 2.245345,0 3.517429,0.41742 4.421757,1.45095 0.698271,0.79802 1.848366,2.11135 2.555788,2.91852 1.026852,1.17165 1.575433,1.31279 2.720531,0.69994 0.78886,-0.42219 1.43432,-1.08259 1.43432,-1.46756 z M 104.84474,50.813526 c 1.04756,-0.480765 2.95857,-1.779286 4.24667,-2.885601 1.97667,-1.69771 2.19706,-2.186136 1.41281,-3.131094 -1.22559,-1.476758 -4.10138,-2.886524 -7.02001,-3.441351 -2.57977,-0.490407 -2.71938,-0.339253 -1.6068,1.739629 1.30497,2.438347 -1.06524,5.723332 -4.145178,5.744981 -2.19953,0.01542 -3.86055,-1.87488 -3.86055,-4.393548 0,-1.16853 -0.2585,-2.1246 -0.57441,-2.1246 -0.74678,0 -7.05156,6.418913 -6.63506,6.755185 0.33166,0.267789 13.29572,2.443932 15.189678,2.549731 0.59851,0.03344 1.94531,-0.332564 2.99285,-0.813332 z M 52.105146,46.260223 c 1.944644,-1.944639 1.248491,-4.094611 -1.615309,-4.988646 -2.083952,-0.650581 -3.773919,0.65558 -3.773919,2.91683 0,2.81436 3.356371,4.104673 5.389228,2.071816 z m 48.606604,-1.229159 c 0.97688,-2.789067 -0.59454,-4.345474 -3.584678,-3.550426 -2.5492,0.677817 -3.2121,2.957382 -1.38989,4.779585 1.74521,1.745226 4.14004,1.15349 4.974568,-1.229159 z M 83.935692,38.881875 c 3.58169,-3.243824 22.269188,-6.419087 27.351478,-4.647395 2.30579,0.803807 2.323,0.793226 1.27558,-0.7843 -1.95875,-2.950021 -4.47333,-4.160105 -10.34814,-4.979821 -7.228908,-1.008652 -14.573798,-0.427336 -16.487948,1.304948 -2.05909,1.863458 -3.48317,5.776144 -3.76426,10.342507 -0.13594,2.209796 -0.10612,3.160336 0.0664,2.112313 0.17254,-1.048025 1.03068,-2.554736 1.90683,-3.348252 z m 11.72451,1.269284 c 3.66685,-0.821761 9.815578,-0.09433 12.904838,1.526714 1.62176,0.850998 1.62298,0.847539 0.24498,-0.704373 -3.79161,-4.270185 -16.070358,-3.161847 -20.065198,1.81118 -0.79646,0.991499 -0.51329,0.925405 1.21058,-0.282541 1.23764,-0.86724 3.8048,-1.92518 5.7048,-2.35098 z M 25.096819,108.92035 c -0.478811,-0.4788 -0.870567,-2.55931 -0.870567,-4.62334 0,-2.16061 -0.608216,-5.127765 -1.433576,-6.993625 -1.138857,-2.57458 -1.290021,-3.74139 -0.735295,-5.67561 0.536948,-1.87222 0.440864,-2.82763 -0.415867,-4.13516 -1.288668,-1.96675 -1.56736,-6.12035 -0.791665,-11.79892 l 0.545046,-3.9901 -1.468489,3.91191 c -0.807668,2.15156 -1.604081,4.04752 -1.769807,4.21325 -0.612702,0.61269 -3.315652,-3.9923 -3.732661,-6.35932 -0.237128,-1.34598 -0.5656,-2.5817 -0.729936,-2.74604 -0.164331,-0.16433 0.0146,-0.884474 0.397763,-1.600314 0.435469,-0.813684 0.443138,-1.933611 0.02036,-2.987873 -0.660239,-1.646791 -0.677174,-1.638546 -0.722081,0.351523 -0.02628,1.164832 -0.356783,1.845783 -0.771458,1.589499 -1.032758,-0.638278 -0.890428,-2.568465 0.367206,-4.979869 0.596056,-1.142887 1.094122,-3.264895 1.106813,-4.715573 0.01275,-1.450679 0.502382,-3.271303 1.088208,-4.045835 0.585828,-0.774531 1.065139,-2.285254 1.065139,-3.357165 0,-1.071911 0.436473,-2.311169 0.969941,-2.75391 0.803409,-0.66677 0.854761,-0.02809 0.29909,3.719903 -0.368972,2.488685 -0.968679,4.835022 -1.332681,5.214083 -0.906061,0.943536 -0.83513,3.833634 0.108396,4.416767 0.423623,0.261811 1.071648,1.268833 1.440059,2.237824 0.36841,0.968991 1.185248,1.959582 1.815197,2.201317 1.561576,0.599234 4.680199,-0.916583 4.680199,-2.274825 0,-0.607071 0.326462,-1.103763 0.725473,-1.103763 0.89646,0 0.91052,0.760602 0.0395,2.137329 -1.155506,1.8264 0.515875,3.856098 2.888591,3.507858 1.140469,-0.167396 1.925255,-0.06435 1.743967,0.228986 -0.181276,0.293329 -0.0019,1.395224 0.398598,2.448658 0.544941,1.4333 0.453163,2.44721 -0.364678,4.02874 -0.819113,1.58399 -0.977925,3.35036 -0.633968,7.05122 0.379092,4.07888 0.251088,5.1103 -0.735873,5.9294 -0.657135,0.54538 -1.329519,0.85686 -1.494182,0.6922 -0.16466,-0.16466 -0.452234,-3.82568 -0.639042,-8.1356 -0.337552,-7.78771 -1.266,-11.958203 -1.143126,-5.1348 0.03535,1.96303 -0.05659,5.36469 -0.20433,7.55925 -0.147736,2.19455 0.109198,4.80626 0.570951,5.80378 1.819718,3.93113 2.350753,7.17946 2.283052,13.965365 -0.07037,7.05409 -0.550864,8.2163 -2.56438,6.20278 z M 122.16512,82.547535 c 0,-0.22049 0.50289,-2.58735 1.11752,-5.25968 1.03889,-4.5168 1.36823,-5.03751 4.67931,-7.397944 1.95898,-1.396534 3.69688,-3.19208 3.86197,-3.9901 0.28971,-1.400174 0.30368,-1.398274 0.39901,0.05429 0.19372,2.951946 -3.50936,12.189864 -5.85765,14.612674 -2.03789,2.10258 -4.20016,3.12228 -4.20016,1.98075 z m 3.6577,-16.032378 c 0.0395,-2.689051 3.85099,-21.061644 4.50505,-21.71569 0.95263,-0.952638 1.9938,3.433609 1.96313,8.270429 -0.0492,7.736831 -1.3979,12.282074 -4.16476,14.033925 l -2.33377,1.47763 0.0304,-2.066294 z M 3.679162,66.512257 c -1.021678,-1.021676 -0.42905,-3.840695 1.222787,-5.816554 0.942927,-1.127892 1.930651,-2.7422 2.194939,-3.587348 0.26429,-0.845152 1.125117,-2.119986 1.912951,-2.832964 1.019047,-0.922224 1.432424,-2.23164 1.432424,-4.537346 0,-2.510808 0.20431,-3.071349 0.906843,-2.48794 0.708023,0.587972 0.877687,-0.06852 0.773869,-2.99443 -0.167622,-4.724167 0.319941,-6.610143 1.463561,-5.661231 0.625069,0.518647 0.84583,-0.252147 0.84583,-2.953245 0,-2.784863 0.388625,-4.074451 1.632314,-5.416579 0.897774,-0.968831 1.632315,-2.16813 1.632315,-2.665108 0,-0.496981 1.260866,-2.134802 2.801923,-3.639605 1.541059,-1.504804 3.184884,-4.014201 3.652942,-5.576441 0.928131,-3.097829 2.511451,-4.315059 5.612842,-4.315059 1.560587,0 1.813011,0.193451 1.135904,0.870569 -0.478814,0.478811 -0.872209,1.376583 -0.874212,1.995048 -0.002,0.618468 -1.329151,2.249657 -2.949215,3.624869 -2.116682,1.796772 -2.841113,2.899834 -2.574364,3.91989 0.204165,0.780725 -0.122873,2.374948 -0.726748,3.542716 -0.603875,1.167766 -1.007458,2.994907 -0.896849,4.060313 0.138564,1.334717 -0.434044,2.570972 -1.841376,3.975468 -1.489072,1.486066 -1.947699,2.534213 -1.692657,3.868379 0.243941,1.276098 -0.391735,2.931975 -2.100126,5.470632 -1.347476,2.002341 -2.449956,4.374018 -2.449956,5.270393 0,0.896378 -0.652926,2.382608 -1.450945,3.302732 -0.798022,0.920124 -1.450948,2.388561 -1.450948,3.263194 0,0.874629 -0.652925,2.181127 -1.450947,2.903326 -0.798019,0.722198 -1.450945,1.853017 -1.450945,2.512935 0,2.37907 -3.940778,5.274765 -5.312156,3.903386 z m 23.194167,-2.970326 c 0.243593,-1.895298 0.727044,-3.756136 1.074331,-4.135194 0.347286,-0.379061 0.631431,-1.456278 0.631431,-2.393814 0,-0.937538 0.488101,-2.648498 1.084667,-3.802131 0.596567,-1.153633 1.031876,-3.444816 0.967351,-5.091516 -0.09507,-2.426061 0.264777,-3.348299 1.89695,-4.861734 1.871462,-1.735318 1.983777,-2.156152 1.584217,-5.935919 -0.236525,-2.2375 -0.635106,-5.296916 -0.885735,-6.798699 -0.250629,-1.501785 -0.147777,-3.134098 0.228563,-3.627365 0.376336,-0.493268 1.11939,-2.855627 1.65123,-5.249686 0.531841,-2.394061 1.261469,-5.005764 1.621399,-5.803783 0.481886,-1.068423 0.263309,-0.972791 -0.829091,0.362737 -0.815927,0.997524 -1.490762,2.341457 -1.499635,2.986515 -0.0088,0.645059 -0.64877,2.767067 -1.421995,4.715574 -0.773224,1.948507 -1.61448,6.04342 -1.869457,9.099806 -0.355165,4.257359 -0.874739,6.114346 -2.221502,7.93978 -0.96685,1.31049 -1.757909,2.839102 -1.757909,3.396914 0,0.557813 -0.658644,1.851534 -1.463654,2.874939 -0.86276,1.096821 -1.28877,2.411749 -1.03767,3.202891 0.23429,0.738187 -0.08645,2.369362 -0.712765,3.624833 -0.626311,1.255471 -1.138748,3.993135 -1.138748,6.083698 0,2.796794 -0.303181,3.917367 -1.147545,4.241378 -1.580695,0.606569 -1.754349,0.565023 -1.754349,-0.419729 0,-0.473047 -0.722821,-1.629493 -1.606267,-2.569878 -1.361763,-1.449528 -1.469751,-1.928399 -0.709421,-3.145878 0.493266,-0.789846 1.097956,-2.979644 1.343756,-4.866219 0.245799,-1.886574 0.729455,-3.791479 1.074792,-4.233119 0.345335,-0.441639 0.42266,-1.829107 0.171838,-3.083259 -0.500234,-2.501178 -0.228043,-2.686306 2.130794,-1.449241 1.534637,0.804821 1.544575,0.785856 0.315043,-0.601229 -1.976403,-2.229664 -1.665837,-6.332552 0.591286,-7.811474 1.497597,-0.981264 1.775433,-1.608236 1.423244,-3.211743 -0.260845,-1.187619 0.01131,-2.853414 0.673824,-4.123831 0.611292,-1.172255 1.113453,-2.882558 1.11591,-3.800673 0.0027,-0.988863 1.078926,-2.653633 2.640412,-4.084141 1.450128,-1.328492 2.413162,-2.77531 2.14072,-3.216126 -0.766948,-1.240948 3.91585,-5.447826 8.453785,-7.594613 7.031554,-3.3264567 10.521291,-2.0004887 5.272156,2.00322 -1.870123,1.42641 -2.654637,2.675586 -2.987453,4.756892 -0.248235,1.55238 -0.902528,2.995646 -1.453986,3.20726 -0.61038,0.234224 -1.002649,1.465818 -1.002649,3.147989 0,1.51978 -0.488784,3.461076 -1.086189,4.31399 -0.606783,0.866306 -1.080881,3.098883 -1.074163,5.058364 0.03068,8.946339 -1.151742,15.014177 -3.50996,18.012163 -0.875682,1.113249 -1.696772,3.596828 -1.99273,6.027474 -0.483321,3.969428 -3.387531,10.300573 -4.725058,10.300573 -0.353462,0 -0.443354,-1.550697 -0.199764,-3.445996 z m 3.856212,1.388812 c 0.47795,-0.931947 1.067962,-1.495484 1.311141,-1.252304 0.24318,0.243179 -0.14788,1.005681 -0.868996,1.694448 -1.253439,1.197192 -1.272897,1.177732 -0.442145,-0.442144 z m -6.480217,-6.467121 c 0.01275,-1.097278 0.502384,-2.628756 1.08821,-3.403289 0.585826,-0.77453 1.065137,-2.611716 1.065137,-4.082638 0,-1.470921 0.452102,-3.049613 1.004671,-3.508203 1.577873,-1.309518 2.26535,2.525405 0.842116,4.697538 -0.616722,0.941235 -1.131697,2.620596 -1.144385,3.731913 -0.02194,1.920841 -1.419409,4.559728 -2.414694,4.559728 -0.255269,0 -0.453744,-0.897772 -0.441055,-1.995049 z m 6.605291,-17.403139 c 1.135885,-2.037179 1.799833,-2.678926 1.967176,-1.901399 0.138934,0.645506 -0.632631,2.029278 -1.714579,3.075047 l -1.967176,1.901402 z"
       id="path931" />
  </g>
</svg>
