<?xml version="1.0" encoding="UTF-8" standalone="no"?>
<svg
   xmlns:dc="http://purl.org/dc/elements/1.1/"
   xmlns:cc="http://creativecommons.org/ns#"
   xmlns:rdf="http://www.w3.org/1999/02/22-rdf-syntax-ns#"
   xmlns:svg="http://www.w3.org/2000/svg"
   xmlns="http://www.w3.org/2000/svg"
   xmlns:sodipodi="http://sodipodi.sourceforge.net/DTD/sodipodi-0.dtd"
   xmlns:inkscape="http://www.inkscape.org/namespaces/inkscape"
   width="512"
   height="512"
   viewBox="0 0 135.46666 135.46667"
   version="1.1"
   id="svg8"
   inkscape:version="1.0.1 (3bc2e813f5, 2020-09-07)"
   sodipodi:docname="Valkyrie Icon.svg">
  <defs
     id="defs2">
    <filter
       inkscape:collect="always"
       style="color-interpolation-filters:sRGB"
       id="filter877"
       x="-2.1183909e-05"
       width="1.0000424"
       y="-1.7555863e-05"
       height="1.000035">
      <feGaussianBlur
         inkscape:collect="always"
         stdDeviation="0.00054129304"
         id="feGaussianBlur879" />
    </filter>
  </defs>
  <sodipodi:namedview
     id="base"
     pagecolor="#ffffff"
     bordercolor="#666666"
     borderopacity="1.0"
     inkscape:pageopacity="0.0"
     inkscape:pageshadow="2"
     inkscape:zoom="0.7"
     inkscape:cx="157.80918"
     inkscape:cy="368.86365"
     inkscape:document-units="mm"
     inkscape:current-layer="layer1"
     inkscape:document-rotation="0"
     showgrid="false"
     inkscape:pagecheckerboard="true"
     units="px"
     inkscape:window-width="1600"
     inkscape:window-height="837"
     inkscape:window-x="-8"
     inkscape:window-y="-8"
     inkscape:window-maximized="1" />
  <metadata
     id="metadata5">
    <rdf:RDF>
      <cc:Work
         rdf:about="">
        <dc:format>image/svg+xml</dc:format>
        <dc:type
           rdf:resource="http://purl.org/dc/dcmitype/StillImage" />
        <dc:title></dc:title>
      </cc:Work>
    </rdf:RDF>
  </metadata>
  <g
     inkscape:label="Layer 1"
     inkscape:groupmode="layer"
     id="layer1">
    <g
       id="g853"
       transform="matrix(1.7447995,0,0,1.7447998,-4.3047069,-95.426438)">
      <path
         style="fill:#273839;fill-opacity:1;stroke-width:0.352778;filter:url(#filter877)"
         d="m 34.64257,128.04171 c -2.772994,-1.35802 -5.400915,-2.46913 -5.839824,-2.46913 -1.010565,0 -3.053091,-2.07632 -3.053091,-3.10361 0,-0.44942 -0.219253,-0.77695 -0.520107,-0.77695 -0.584215,0 -1.476154,-1.52877 -1.739615,-2.98167 -0.09575,-0.52802 -0.326788,-1.14472 -0.51342,-1.37044 -0.18663,-0.22571 -0.53933,-1.38041 -0.783778,-2.56599 -0.300959,-1.45966 -0.606242,-2.14302 -0.945589,-2.11666 -0.293484,0.0228 -1.255166,-1.39768 -2.320843,-3.42807 -1.597113,-3.0429 -1.816012,-3.71176 -1.789523,-5.46805 0.0294,-1.94907 0.144295,-2.76485 0.663321,-4.70954 0.139445,-0.52247 0.08503,-1.23189 -0.121777,-1.5875 -0.301492,-0.51844 -0.375957,-0.31633 -0.384608,1.04385 -0.0075,1.18124 -0.172472,1.74884 -0.550407,1.89386 -0.358149,0.13744 -0.463119,0.44832 -0.312068,0.92424 0.189377,0.59668 0.117067,0.67093 -0.430459,0.44203 -0.361939,-0.15132 -1.004767,-0.35059 -1.428505,-0.44282 -1.24587,-0.27117 -3.027381,-2.52638 -3.53177,-4.47085 -0.613,-2.36317 -0.577355,-2.92692 0.303235,-4.79572 0.637428,-1.35277 0.738398,-2.1613 0.682859,-5.46806 -0.04298,-2.55903 0.118811,-4.57218 0.47509,-5.91146 0.551227,-2.07211 2.225938,-5.68755 3.414869,-7.37216 0.812292,-1.15096 0.830574,-1.39963 0.08177,-1.11229 -0.499325,0.19161 -0.545308,0.0321 -0.333788,-1.1576 0.496268,-2.79135 3.338073,-7.20066 4.640832,-7.20066 0.230451,0 0.636876,-0.26392 0.903169,-0.5865 0.266292,-0.32257 1.129037,-0.87243 1.91721,-1.22191 0.788174,-0.34949 1.730229,-0.96381 2.093456,-1.36517 0.824576,-0.91115 2.699477,-2.08387 3.773622,-2.36034 0.447573,-0.1152 2.083768,-0.31663 3.635991,-0.44764 1.552222,-0.131 3.298472,-0.4374 3.880555,-0.68089 0.582083,-0.24349 1.137708,-0.42777 1.234722,-0.40951 0.09702,0.0182 0.859828,-0.0693 1.695138,-0.19456 0.96745,-0.14508 2.41277,-0.0105 3.98164,0.37085 1.93506,0.47032 2.81981,0.52206 4.12827,0.24145 1.65444,-0.35481 4.51271,-0.18776 5.18801,0.30322 0.19403,0.14107 0.77593,0.35742 1.2931,0.48077 0.51719,0.12335 2.16263,1.41524 3.65654,2.87086 1.4939,1.45563 2.91311,2.6466 3.15378,2.6466 0.24068,0 1.45274,0.93075 2.69348,2.06834 2.66073,2.43955 4.30251,5.38769 5.03676,9.0445 0.27275,1.35838 1.08687,3.97776 1.80916,5.82083 1.47649,3.7676 1.95227,7.78645 1.25288,10.58299 -0.21836,0.87313 -0.47803,1.98438 -0.57704,2.46945 -0.22549,1.10471 -1.95048,3.95409 -2.50466,4.13724 -0.22757,0.0752 -0.48377,-0.22958 -0.56931,-0.67733 -0.10469,-0.54786 -0.17126,-0.39589 -0.2036,0.46474 -0.13092,3.48501 -1.10637,4.6097 -1.10637,1.27564 0,-1.38904 -0.097,-1.71659 -0.41446,-1.39916 -0.31744,0.31744 -0.27605,1.13919 0.17681,3.51014 0.46667,2.44326 0.5093,3.38913 0.2023,4.48811 -0.39723,1.42197 -3.33351,7.11076 -3.82795,7.41635 -0.15026,0.0929 -0.36855,-0.73987 -0.48508,-1.85053 -0.28974,-2.76146 0.73106,-5.52279 1.39858,-3.78326 0.63875,1.66455 2.06886,-1.25737 1.69589,-3.46495 -0.22386,-1.325 -0.2798,-1.38406 -0.729,-0.76974 -0.88305,1.20764 -0.65018,-3.84756 0.26425,-5.73652 0.85216,-1.76034 1.45689,-2.13534 2.34051,-1.45142 0.4897,0.37902 0.4778,0.31606 -0.0592,-0.31331 -0.36962,-0.43322 -0.87261,-0.78767 -1.11775,-0.78767 -0.62621,0 -1.91512,2.20068 -2.15512,3.67964 l -0.20108,1.23912 -1.985,-0.20747 c -1.42194,-0.14862 -2.37216,-0.0457 -3.34994,0.36284 -0.75073,0.31367 -1.65237,0.57032 -2.00366,0.57032 -0.81096,0 -1.19521,1.16564 -0.69337,2.10334 0.59523,1.1122 1.74795,0.92241 1.99823,-0.32902 0.11527,-0.57634 0.46849,-1.12011 0.78494,-1.20838 1.91989,-0.53555 2.97186,-0.57929 3.91297,-0.16271 1.24354,0.55044 1.23513,0.93707 -0.11247,5.17123 -0.51265,1.61074 -0.9321,3.24425 -0.9321,3.63002 0,0.38577 -0.31805,1.32483 -0.70678,2.08681 -0.38873,0.76197 -0.87663,2.17739 -1.08423,3.14539 -0.25415,1.18505 -0.58997,1.82744 -1.02802,1.96647 -1.36918,0.43456 -2.5711,1.77219 -3.72753,4.14839 -0.6599,1.35595 -1.40156,2.70985 -1.64815,3.00868 -0.644,0.78044 -3.14282,1.8178 -4.63616,1.92466 -0.70335,0.0503 -1.27914,0.21863 -1.27953,0.37401 -10e-4,0.3731 2.37567,0.10157 3.66134,-0.41831 1.93157,-0.78108 2.94074,-1.78714 4.13492,-4.12219 0.7513,-1.46907 1.72566,-2.74859 2.60998,-3.42741 0.77611,-0.59576 1.54273,-1.19451 1.70361,-1.33057 0.16088,-0.13605 0.44098,-0.94124 0.62246,-1.78931 0.40646,-1.89948 1.38152,-4.18777 1.78445,-4.18777 0.54772,0 0.11027,3.82726 -0.64515,5.64444 -0.12099,0.29105 -0.27556,0.81389 -0.3435,1.16187 -0.51234,2.62438 -4.63456,8.01036 -6.13082,8.01036 -0.68425,0 -3.53062,1.26511 -4.92855,2.19057 -0.48507,0.32113 -1.312,0.68957 -1.83762,0.81876 -0.52561,0.12919 -1.14036,0.45744 -1.36611,0.72944 -0.22574,0.27201 -0.78788,0.49456 -1.24919,0.49456 -0.46131,0 -0.83875,0.15875 -0.83875,0.35278 0,0.20037 -1.02873,0.35264 -2.38125,0.35247 -2.23249,-2.9e-4 -2.69622,-0.15456 -7.423057,-2.46945 z m 1.83714,-2.34264 c 0.180442,-0.47023 0.127023,-0.50007 -0.28421,-0.15878 -0.395523,0.32826 -0.791752,0.30107 -1.809442,-0.12415 -0.716663,-0.29944 -1.415125,-0.47515 -1.552137,-0.39048 -0.726271,0.44886 -2.448299,-1.43784 -3.916717,-4.29128 -1.300723,-2.52756 -1.829198,-3.20974 -2.864766,-3.69795 -1.126876,-0.53125 -1.375587,-0.90851 -2.209433,-3.35139 -2.373346,-6.95307 -3.760731,-11.58901 -3.665385,-12.24787 0.07891,-0.5453 0.469906,-0.78066 1.621927,-0.97634 2.083215,-0.35384 4.030875,0.31316 4.303489,1.47378 0.231067,0.98374 1.340019,1.38577 1.803806,0.65393 0.630658,-0.99516 0.275711,-1.67051 -1.357819,-2.58351 -1.388262,-0.77592 -2.049396,-0.91967 -3.917971,-0.85193 l -2.247893,0.0815 -1.109113,-2.08865 c -0.967379,-1.82173 -1.255628,-2.10277 -2.255641,-2.19919 -1.013872,-0.0978 -1.146528,-0.01 -1.146528,0.76072 0,0.6896 0.143181,0.83383 0.686661,0.69171 0.377663,-0.0988 0.741483,-0.44109 0.808487,-0.76073 0.08514,-0.40614 0.409539,-0.13176 1.077228,0.91114 0.840372,1.31263 0.951168,1.82232 0.920237,4.23334 -0.02176,1.69624 -0.128802,2.40487 -0.280825,1.85909 -0.215943,-0.77526 -0.275701,-0.80377 -0.494002,-0.23573 -0.492343,1.28113 -0.264938,3.665 0.431006,4.51818 0.698339,0.85611 0.739166,0.83007 1.171783,-0.74747 0.232183,-0.84665 1.363478,1.17114 1.415088,2.52397 0.02461,0.64515 -0.08407,1.64924 -0.241509,2.23133 -0.267359,0.98846 -0.251448,1.01314 0.240992,0.37379 0.509502,-0.6615 0.546538,-0.64725 1.100163,0.42334 0.315101,0.60934 0.739862,1.88635 0.943912,2.83781 0.310706,1.44877 0.678984,1.99581 2.266064,3.36599 1.183005,1.02133 2.225223,2.33312 2.773749,3.49119 0.483278,1.0203 1.249512,2.19557 1.702743,2.6117 2.144116,1.96858 5.605807,2.91446 6.086056,1.66295 z m 10.119027,-1.67654 c -1.05926,-1.12753 -3.50297,-1.77212 -5.72195,-1.50931 -1.89202,0.22408 -3.850433,1.15565 -4.11819,1.95892 -0.09175,0.27524 0.321831,0.12422 0.967877,-0.35342 0.980553,-0.72496 1.482193,-0.82538 3.836043,-0.76793 3.72026,0.0908 3.82893,0.11494 4.70218,1.04447 0.4246,0.45197 0.85137,0.74238 0.94839,0.64537 0.097,-0.097 -0.17945,-0.55516 -0.61435,-1.0181 z m -2.47558,-4.99137 c 0.57879,-0.2993 0.96679,-0.68262 0.86222,-0.85181 -0.10456,-0.16919 0.009,-0.38803 0.25305,-0.48629 0.24375,-0.0983 -1.1896,-0.1912 -3.18521,-0.20652 -3.49658,-0.0268 -3.61496,-0.003 -3.25887,0.66259 0.20323,0.37975 0.64538,0.85117 0.98255,1.04761 0.91852,0.53513 3.15607,0.44989 4.34626,-0.16558 z m -5.2796,-4.27564 c 2.6273,-0.59332 3.27219,-0.55681 8.24915,0.4671 0.93345,0.19204 0.8117,0.0246 -1.0318,-1.41894 -1.95598,-1.53161 -2.22555,-1.63666 -4.20003,-1.63666 -1.75815,0 -2.3213,0.16154 -3.37792,0.96899 -0.697415,0.53294 -1.392877,0.9695 -1.545475,0.97014 -0.152598,7e-4 -0.390723,0.17578 -0.529167,0.38922 -0.138444,0.21345 -0.489841,0.47872 -0.780882,0.58951 -1.140765,0.43425 0.644191,0.25145 3.216124,-0.32936 z m 2.28283,-6.64544 c -0.75899,-0.81896 -2.98653,-1.31583 -2.52081,-0.56229 0.10866,0.17581 0.52485,0.23407 0.92487,0.12946 0.48987,-0.1281 0.89939,0.0555 1.25438,0.56229 0.28988,0.41386 0.66923,0.75248 0.84299,0.75248 0.17376,0 -0.0519,-0.39688 -0.50143,-0.88194 z m 2.34403,0.17638 c 0.24234,-0.38805 0.839,-0.72717 1.3259,-0.75359 0.8594,-0.0466 0.86142,-0.0526 0.0692,-0.20385 -0.55796,-0.10653 -1.08259,0.1318 -1.65885,0.7536 -0.46354,0.50017 -0.69298,0.9094 -0.50986,0.9094 0.18312,0 0.53122,-0.3175 0.77357,-0.70556 z m 1.21174,-5.90323 c -0.23624,-0.76974 -0.45171,-1.07064 -0.51845,-0.72404 -0.10398,0.5399 0.47833,2.04116 0.79173,2.04116 0.072,0 -0.051,-0.5927 -0.27328,-1.31712 z m -5.15557,0.0335 c 0.19466,-0.51198 0.28846,-0.99633 0.20845,-1.07634 -0.08,-0.08 -0.31432,0.33888 -0.52069,0.93087 -0.45875,1.31597 -0.18183,1.44498 0.31224,0.14547 z M 16.112865,99.04812 c -0.112616,-0.28143 -0.196209,-0.19783 -0.213137,0.21313 -0.01532,0.37189 0.06806,0.58025 0.185286,0.46302 0.117225,-0.11722 0.129758,-0.42149 0.02785,-0.67615 z m -1.394044,-0.85964 c -0.449809,-2.35303 1.499205,-5.12464 3.028236,-4.30633 0.407792,0.21825 1.020545,0.73069 1.361671,1.13877 0.610917,0.73081 0.620408,0.71926 0.631968,-0.76908 0.0073,-0.93483 -0.326844,-2.17919 -0.87615,-3.26319 -1.001632,-1.97663 -0.697741,-2.19026 1.131231,-0.79523 l 1.254601,0.95693 -0.257268,-1.92707 c -0.155341,-1.16358 -0.591845,-2.37199 -1.101751,-3.05006 -0.464465,-0.61765 -0.844482,-1.27911 -0.844482,-1.46991 0,-0.19081 -0.164468,-0.40174 -0.365484,-0.46875 -0.698291,-0.23276 -1.367524,-2.95097 -1.38292,-5.61696 -0.0157,-2.71902 0.419531,-4.689 1.228129,-5.55885 0.340804,-0.36662 0.327684,0.006 -0.05587,1.5875 -0.56145,2.31479 -0.373021,5.21534 0.466559,7.1819 0.289925,0.6791 0.558996,1.41569 0.597933,1.63687 0.183212,1.04071 3.306432,2.94924 4.826287,2.94924 0.991416,0 0.901561,-2.09978 -0.241504,-5.64362 -0.928671,-2.87915 -0.985236,-4.60358 -0.3414,-10.40777 0.06457,-0.58208 -0.101984,-1.45521 -0.370114,-1.94028 -0.268131,-0.48506 -0.609428,-1.50347 -0.758439,-2.26311 l -0.270927,-1.38117 -1.373885,1.20478 c -1.401447,1.22895 -3.369475,3.71497 -3.369475,4.25632 0,0.16492 0.3175,0.29985 0.705556,0.29985 0.388055,0 0.705555,0.10237 0.705555,0.2275 0,0.12512 -0.858672,1.83168 -1.908161,3.79236 -2.540359,4.74595 -3.111251,6.84393 -3.121112,11.46982 -0.008,3.73092 0.113576,4.93998 0.616486,6.13318 0.428694,1.01711 0.03201,1.15834 -1.470705,0.5236 -0.820327,-0.34651 -0.259437,4.38427 0.658106,5.55073 0.882608,1.12206 1.118584,1.10944 0.89733,-0.048 z M 35.74241,95.6979 c -1.311928,-2.62773 -5.447773,-3.45077 -8.462455,-1.68405 -1.67377,0.9809 -1.959467,1.57263 -0.759287,1.57263 0.424057,0 1.132175,0.3393 1.573595,0.75399 0.668853,0.62836 1.364849,0.7834 4.177061,0.93049 1.902313,0.0995 3.48229,0.34771 3.621601,0.56893 0.577631,0.91727 0.446718,-0.94576 -0.150515,-2.14199 z m 15.806757,1.39128 c 2.68465,-0.14406 3.50322,-0.32446 4.36299,-0.96152 0.58208,-0.4313 1.29439,-0.86111 1.5829,-0.95513 0.75953,-0.24751 -2.05798,-2.03382 -3.60348,-2.28462 -0.70893,-0.11505 -2.08593,0.0458 -3.22375,0.37658 -1.72756,0.50221 -2.05522,0.74255 -2.51608,1.84556 -0.57786,1.38301 -0.74743,3.48275 -0.21315,2.63937 0.20856,-0.32923 1.35756,-0.53934 3.61057,-0.66024 z m 16.94297,-3.54178 c -0.68996,-0.22998 -0.47989,-1.48869 0.24846,-1.48869 0.51489,0 0.70629,-0.3552 0.88194,-1.63674 0.34429,-2.51185 0.26637,-6.76232 -0.12844,-7.00632 -0.19403,-0.11992 -0.35278,-0.62072 -0.35278,-1.11289 0,-0.49217 -0.3184,-1.34201 -0.70755,-1.88853 -0.38915,-0.54651 -1.11159,-2.54873 -1.60542,-4.44936 -0.49382,-1.90063 -1.31179,-4.21622 -1.8177,-5.14575 -0.89259,-1.63997 -4.90186,-5.82881 -5.24782,-5.48285 -0.0944,0.0944 0.0229,1.6329 0.26068,3.41886 0.36927,2.77348 0.35824,3.29388 -0.0756,3.56722 -0.36706,0.23127 -0.70365,0.053 -1.21351,-0.64282 -0.38806,-0.52956 -1.15017,-1.43933 -1.69359,-2.0217 l -0.98804,-1.05885 0.85415,1.76389 c 1.11117,2.29463 1.42853,3.35139 1.00647,3.35139 -0.18666,0 -0.99045,-1.30969 -1.78619,-2.91042 -3.0002,-6.03521 -7.26475,-9.99128 -12.51089,-11.6059 -2.30059,-0.70806 -4.10806,-0.75068 -6.754132,-0.15925 -0.388056,0.0867 -0.842876,0.16985 -1.010712,0.18469 -0.167836,0.0148 -0.04877,0.41828 0.264583,0.89652 0.313357,0.47825 0.56974,0.93925 0.56974,1.02445 0,0.0852 -0.795453,-0.14734 -1.767673,-0.51676 -2.850447,-1.08308 -5.28635,-0.79655 -7.751509,0.91181 -2.081593,1.44254 -2.989195,2.92127 -3.033822,4.94292 -0.03409,1.54409 0.102169,1.90302 1.093467,2.8805 1.051192,1.03653 3.05063,1.87539 4.481104,1.88003 0.65941,0.002 0.533235,-0.79961 -0.277284,-1.76192 -0.679826,-0.80715 -1.073457,-3.30556 -0.490166,-3.11113 0.254943,0.085 0.633623,0.43532 0.841513,0.77853 0.534037,0.88167 3.16189,3.4695 4.141663,4.0786 2.269823,1.41109 4.481768,2.45646 5.653208,2.67172 l 1.303,0.23944 -0.66909,-1.31238 c -0.368,-0.7218 -0.89656,-1.57123 -1.17459,-1.8876 -0.68303,-0.77726 -2.421829,-4.2794 -2.124699,-4.2794 0.130355,0 -0.05033,-0.3175 -0.401511,-0.70556 -0.351185,-0.38806 -0.832602,-0.70556 -1.069814,-0.70556 -0.237212,0 -0.628921,-0.23812 -0.870464,-0.52916 -0.646524,-0.77902 0.369288,-0.70858 1.271844,0.0882 0.609413,0.53799 4.889824,2.72486 8.076764,4.12644 0.58209,0.25599 2.09021,0.73347 3.35139,1.06105 2.97773,0.77346 7.83461,3.05602 9.01562,4.23703 0.54438,0.54439 1.23389,0.88421 1.66922,0.82268 0.6068,-0.0858 0.79436,0.14546 1.0312,1.27133 0.15923,0.75689 0.23597,1.4297 0.17053,1.49514 -0.0654,0.0654 -0.95741,-0.68917 -1.98217,-1.6769 -1.65078,-1.59115 -2.76473,-2.23771 -6.90579,-4.00827 -0.58208,-0.24888 -2.16958,-0.80888 -3.52777,-1.24444 -1.3582,-0.43556 -3.02507,-1.06679 -3.70417,-1.40273 -1.16583,-0.57672 -4.38181,-2.1127 -5.08621,-2.42922 -0.178033,-0.08 0.0293,0.42572 0.46076,1.12382 0.43145,0.6981 1.04121,1.79176 1.35503,2.43036 0.5487,1.11655 1.08752,1.81811 2.85083,3.71186 0.44832,0.48149 0.72207,0.96849 0.60834,1.08223 -0.11374,0.11373 -0.99649,0.045 -1.96166,-0.15269 -0.96518,-0.19772 -1.75487,-0.32679 -1.75487,-0.28684 0,0.04 0.40771,0.9632 0.90603,2.05167 0.86351,1.88616 2.30118,3.35502 4.8142,4.91866 1.05536,0.65666 2.93386,0.79609 3.2756,0.24313 0.11992,-0.19403 0.0692,-0.35278 -0.11276,-0.35278 -0.49531,0 -1.19867,-1.93175 -1.0475,-2.87692 0.11973,-0.74861 0.19793,-0.69639 0.82267,0.54936 0.70916,1.41407 2.60912,2.63583 2.11563,1.36044 -0.57703,-1.49132 -0.97929,-3.95073 -0.74451,-4.55196 0.22614,-0.57909 0.31938,-0.53389 0.80897,0.39221 0.30435,0.5757 0.77206,1.26543 1.03935,1.53273 0.2673,0.26729 0.70486,0.90922 0.97236,1.42652 0.53592,1.03635 4.31725,4.63707 4.86967,4.63707 0.19109,0 0.2396,-0.27782 0.1078,-0.61737 -0.31683,-0.8162 -0.69843,-5.37986 -0.44985,-5.37986 0.10663,0 0.67925,0.86003 1.27247,1.91117 0.59323,1.05114 1.2037,1.98845 1.3566,2.08291 0.15289,0.0944 0.28609,-1.20214 0.29598,-2.88131 0.01,-1.67918 0.2035,-3.37055 0.43025,-3.7586 0.33946,-0.58098 0.4144,-0.20726 0.4244,2.11667 0.0137,3.18067 0.83639,8.79059 1.54061,10.50529 l 0.4667,1.13637 0.43891,-1.41111 c 0.24139,-0.77611 0.53346,-1.64923 0.64903,-1.94028 0.11557,-0.29104 0.24005,-0.84666 0.27661,-1.23472 0.65936,-6.99804 0.49746,-9.7878 -0.77774,-13.40211 -0.77468,-2.1957 0.14726,-0.92235 1.03409,1.42824 0.72102,1.91107 0.78783,2.67218 0.75695,8.62248 -0.0314,6.05654 -0.0987,6.70746 -0.9338,9.0415 -0.84325,2.35673 -0.85778,2.50409 -0.23071,2.34011 0.51206,-0.13391 0.66921,0.0132 0.66921,0.62637 0,0.75401 0.0381,0.76687 0.64514,0.21753 0.8686,-0.78607 1.20257,-0.73922 2.18503,0.30656 0.76093,0.80997 0.86717,0.83557 1.1762,0.28337 0.23257,-0.41558 0.21067,-0.65004 -0.0694,-0.74341 z m -10.01877,-3.60976 c -0.19449,-0.31144 -1.30543,-1.0157 -2.46875,-1.56502 -1.98332,-0.93654 -2.31891,-0.98661 -5.38549,-0.80366 -2.43976,0.14556 -3.45968,0.35721 -4.01575,0.83333 -1.09243,0.93537 -0.9753,1.6716 0.22475,1.41272 3.85044,-0.83062 6.2403,-1.00892 8.06127,-0.6014 1.22838,0.2749 1.9047,0.60715 1.9047,0.93572 0,0.34415 0.32984,0.48434 1.01645,0.43202 0.83728,-0.0638 0.95412,-0.17727 0.66282,-0.64371 z M 26.89513,89.78021 c 2.123503,-0.88726 5.460019,-1.0435 8.105016,-0.37953 2.272872,0.57055 3.096731,0.52352 3.096731,-0.17678 0,-0.17805 -0.664818,-0.64493 -1.477373,-1.03752 -2.246452,-1.08536 -6.278285,-0.99906 -8.654915,0.18526 -0.992284,0.49448 -1.995392,1.12948 -2.229128,1.41111 -0.531279,0.64015 -0.377721,0.63982 1.159669,-0.003 z m 7.321192,-6.12668 c 0,-0.1602 -0.389851,-0.65753 -0.866335,-1.10516 -0.476484,-0.44763 -0.848841,-0.91187 -0.82746,-1.03163 0.02138,-0.11977 -0.245452,-0.85276 -0.592962,-1.62887 -0.676649,-1.51119 -0.747617,-1.96952 -0.833025,-5.37986 l -0.05522,-2.20486 -1.322917,-0.002 c -1.658047,-0.002 -3.96875,-0.62716 -3.96875,-1.07294 0,-0.18491 -0.290165,-0.3362 -0.644812,-0.3362 -0.566011,0 -0.653453,0.35123 -0.715527,2.87403 -0.132036,5.36624 1.636507,8.73889 5.064506,9.65813 1.995428,0.53509 4.7625,0.66833 4.7625,0.22933 z m 9.877775,0.1437 c 0,-0.0812 -0.71713,-0.98773 -1.59363,-2.01457 -0.8765,-1.02685 -2.16997,-3.0334 -2.87438,-4.45902 -1.14211,-2.31145 -1.47558,-2.69016 -3.080672,-3.49872 -0.98996,-0.49868 -2.218632,-1.20194 -2.730384,-1.56278 -1.382431,-0.97477 -1.881554,-0.20716 -1.578707,2.42793 0.471384,4.10154 2.525082,6.75214 6.282253,8.1082 2.05806,0.7428 5.57552,1.37302 5.57552,0.99896 z M 32.452433,71.48719 c 0,-0.0607 -0.515938,-0.57665 -1.146528,-1.14653 l -1.146528,-1.03614 1.036141,1.14653 c 0.965828,1.06872 1.256915,1.30868 1.256915,1.03614 z M 58.699187,68.0416 c -0.92173,-3.13623 -2.93806,-6.64846 -4.3493,-7.57605 -1.55415,-1.02152 -4.3952,-1.68536 -5.96037,-1.3927 l -1.17264,0.21927 2.93653,2.21879 c 3.15539,2.38416 6.29655,5.33948 7.87539,7.40944 0.5392,0.70693 1.03706,1.22862 1.10635,1.15932 0.0693,-0.0693 -0.12688,-0.98643 -0.43596,-2.03807 z"
         id="path865"
         sodipodi:nodetypes="csssssssssssssssssssssssssssssscscsssssssssssscsssssssssssssscssssssssssssssccssssssscsssssssccssscssssssssscscscssssssssssssssssssssssssssscccssssssscsssssssssccssscccsscsssssssscsscsscsssssscssssssscssssscsssccsssssssssssssssssssssssssscscsscsccsscssscscssscscsssssscscssssssssssscssssssssssssssssccssscsscssccsssssssssssssssscsscsscccssssccssssccsssssssssscssssscssss" />
    </g>
    <path
       style="fill:#000000;stroke-width:0.352778"
       id="path851"
       d="" />
    <path
       style="fill:#000000;stroke-width:0.352778"
       id="path849"
       d="" />
  </g>
</svg>
