<?xml version="1.0" encoding="UTF-8" standalone="no"?>
<svg
   xmlns:dc="http://purl.org/dc/elements/1.1/"
   xmlns:cc="http://creativecommons.org/ns#"
   xmlns:rdf="http://www.w3.org/1999/02/22-rdf-syntax-ns#"
   xmlns:svg="http://www.w3.org/2000/svg"
   xmlns="http://www.w3.org/2000/svg"
   xmlns:sodipodi="http://sodipodi.sourceforge.net/DTD/sodipodi-0.dtd"
   xmlns:inkscape="http://www.inkscape.org/namespaces/inkscape"
   version="1.1"
   id="Layer_4_1_"
   x="0px"
   y="0px"
   viewBox="0 0 37 37"
   style="enable-background:new 0 0 37 37;"
   xml:space="preserve"
   sodipodi:docname="Wattson_Icon.svg"
   inkscape:version="1.0.1 (3bc2e813f5, 2020-09-07)"><metadata
   id="metadata27"><rdf:RDF><cc:Work
       rdf:about=""><dc:format>image/svg+xml</dc:format><dc:type
         rdf:resource="http://purl.org/dc/dcmitype/StillImage" /><dc:title></dc:title></cc:Work></rdf:RDF></metadata><defs
   id="defs25" /><sodipodi:namedview
   pagecolor="#ffffff"
   bordercolor="#666666"
   borderopacity="1"
   objecttolerance="10"
   gridtolerance="10"
   guidetolerance="10"
   inkscape:pageopacity="0"
   inkscape:pageshadow="2"
   inkscape:window-width="1600"
   inkscape:window-height="837"
   id="namedview23"
   showgrid="false"
   inkscape:zoom="18.108108"
   inkscape:cx="18.5"
   inkscape:cy="18.5"
   inkscape:window-x="-8"
   inkscape:window-y="-8"
   inkscape:window-maximized="1"
   inkscape:current-layer="Layer_4_1_" />
<style
   type="text/css"
   id="style2">
	.st0{fill:#241C1C;}
</style>








<g
   id="g861"><path
     class="st0"
     d="M14.2,8l-0.7-6.4c0,0-2.9,1.2-4.5,2.9S4,12.7,4,12.7L5.2,25L9,29.9l-2.8-4.8c-0.2-0.3-0.3-0.6-0.3-0.9  c-0.1-0.5-0.2-1.5-0.3-2.9c0-0.8,0.2-1.5,0.6-2.2c0.6-0.9,1.5-2.2,1.5-3.3c0-1.6,1.6-4.4,3-5.8S14.2,8,14.2,8z"
     id="path4"
     style="fill:#273839;fill-opacity:1" /><path
     class="st0"
     d="M4.5,23.7L2.4,13.2c0,0-1.6,1.3-1.6,3.8S1.6,21,2.6,22S4.5,23.7,4.5,23.7z"
     id="path6"
     style="fill:#273839;fill-opacity:1" /><path
     class="st0"
     d="M21.7,1.2c0,0,0-0.5-3.2-0.5s-3.2,0.5-3.2,0.5l-0.1,6.6c0,0,1.5-0.5,3.3-0.5s3.3,0.5,3.3,0.5L21.7,1.2z"
     id="path8"
     style="fill:#273839;fill-opacity:1" /><path
     class="st0"
     d="M22.8,8l0.7-6.4c0,0,2.9,1.2,4.5,2.9s4.9,8.2,4.9,8.2L31.8,25L28,29.9l2.8-4.8c0.2-0.3,0.3-0.6,0.3-0.9  c0.1-0.5,0.2-1.5,0.3-2.9c0-0.8-0.2-1.5-0.6-2.2c-0.6-0.9-1.5-2.2-1.5-3.3c0-1.6-1.6-4.4-3-5.8C24.8,8.6,22.8,8,22.8,8z"
     id="path10"
     style="fill:#273839;fill-opacity:1" /><path
     class="st0"
     d="M32.5,23.7l2.1-10.5c0,0,1.6,1.3,1.6,3.8S35.4,21,34.4,22C33.3,23,32.5,23.7,32.5,23.7z"
     id="path12"
     style="fill:#273839;fill-opacity:1" /><path
     class="st0"
     d="M11.7,19.7c0-0.4,0.2-0.8,0.6-1.1l0,0c0,0-1.5,0-2.2,0.7c0,0,0.5,1.1,1.3,1.1c0.4,0,0.6,0,0.6,0l0,0  C11.8,20.2,11.7,20,11.7,19.7z"
     id="path14"
     style="fill:#273839;fill-opacity:1" /><path
     class="st0"
     d="M25,18.6L25,18.6c0.3,0.3,0.6,0.6,0.6,1.1c0,0.3-0.1,0.5-0.3,0.8l0,0c0,0,0.2,0,0.6,0c0.8,0,1.3-1.1,1.3-1.1  C26.5,18.6,25,18.6,25,18.6z"
     id="path16"
     style="fill:#273839;fill-opacity:1" /><path
     class="st0"
     d="M14.1,18.1c-0.6-0.9-1.1-2.2-1.1-2.8c0-1.1,0.7-2.6,0.7-2.6c-1.5,1.5-1.5,2.7-1.5,3.5c0,0.4,0.5,1,0.9,1.6  C13.5,17.9,13.8,18,14.1,18.1z"
     id="path18"
     style="fill:#273839;fill-opacity:1" /><path
     class="st0"
     d="M29.2,19.1c-0.6-1.1-1.3-2.5-1.3-3.4c0,0-0.2-1-1-2.1c-0.3,0.6-0.9,1.5-1.1,1.5c-0.4,0-1-0.6-2.1-1.7  c-1.1-1.1-2.5-1.1-2.5-1.1c0.5,0,1.3,1.4,2.3,2.4c1,1,1.7,1,1.7,1c-1.1,1.1-1.4,1.2-1.4,1.2c0.3,0,0.7-0.1,0.7-0.1s0,0,0,0.1  c0.7-0.2,1.6-0.3,2.4,0.5c0,0-1.6-0.4-2.1,0.3c-0.2,0.2-0.5,0.5-0.8,0.7c0,0,0.1,0,0.1,0c0,0,0.9-0.3,1.8-0.3c0.9,0,2.8,1.2,2.8,1.2  s-1.1,1.8-2.4,1.8c-1.3,0-2,0-2,0s-1.4-0.1-1.8-0.4c0,0,0.8,0.2,0.9,0.1c0.1-0.2-0.4-0.3-0.4-0.9c0-0.2,0.1-0.4,0.2-0.6  c0,0,0-0.1,0-0.1c0.1-0.2,0.2-0.3,0.3-0.4c-0.8,0.4-1.6,0.8-1.9,0.8c0,0,0.6-0.5,1.3-1.1c-0.1,0-0.1,0-0.2,0c-1,0-1.2-0.6-1.5-0.3  c-0.3,0.3,0.3,1,0.3,1s-0.4,0.4-1.4-0.6c-1-1-3.7-3.2-4.2-3.7C15.2,14.3,15,13,15,13s0,1,0,2.5c0,1.5,2.3,2,2.8,2.6  c0.5,0.5,0.5,1.3,0.5,1.3s-1.6-0.6-1.9-0.9c-0.3-0.3-1.7-0.8-1.7-0.2s1.2,1.1,1.2,1.1s0.2,0.1-0.6,0.1c-0.3,0-1.2-0.5-1.2-0.5  s-0.1,0-0.2-0.1c0.1,0.1,0.1,0.2,0.2,0.3c0,0,0,0.1,0,0.1c0.1,0.2,0.2,0.4,0.2,0.6c0,0.6-0.5,0.8-0.4,0.9c0.1,0.1,0.9-0.1,0.9-0.1  c-0.4,0.4-1.8,0.4-1.8,0.4s-0.7,0-2,0c-1.3,0-2.4-1.8-2.4-1.8s1.9-1.2,2.8-1.2c0.5,0,1,0.1,1.4,0.2c-0.1-0.1-0.2-0.2-0.3-0.3  c-0.1-0.1-0.3-0.3-0.5-0.4c-0.7-0.2-1.9,0-1.9,0c0.3-0.3,0.8-0.4,1.3-0.4c-0.4-0.3-0.9-0.6-1.3-1c-0.5-0.5-0.4-1.5-0.3-2.1  c-0.6,0.9-0.8,1.7-0.8,1.7c0,0.9-0.7,2.3-1.3,3.4c-0.6,1-0.8,2.2-0.7,3.3c0.1,1,0.2,2.1,0.2,2.7c0,1.2,3.8,6,5.6,7.9  c1.8,1.8,5.6,3.2,5.6,3.2s3.8-1.4,5.6-3.2c1.8-1.8,5.6-6.7,5.6-7.9c0-0.6,0.1-1.7,0.2-2.7C30,21.3,29.7,20.1,29.2,19.1z M16.6,26.6  c0.8,0,1,0.7,1.5,0.7c0.2,0,0.3,0,0.4,0c0,0,0,0,0,0c0,0,0,0,0,0c0,0,0,0,0,0c0,0,0.1,0,0.4,0c0.5,0,0.7-0.7,1.5-0.7  c0.8,0,0.7,0,0.7,0.2S20.7,27,20.3,27c-0.4,0-0.7,1-1.8,1v0c0,0,0,0,0,0c0,0,0,0,0,0v0c-1,0-1.3-1-1.8-1c-0.4,0-0.8-0.1-0.8-0.2  S15.9,26.6,16.6,26.6z M16.8,30.4c0.3,0,0.4-0.3,0.9-0.3c0.5,0,0.9,0.3,0.9,0.3s0.4-0.3,0.9-0.3c0.5,0,0.6,0.3,0.9,0.3s0.8,0,0.9,0  c0.1,0.1-1.8,0.5-2.5,0.9c-0.1,0.1-0.3,0.1-0.4,0c-0.7-0.4-2.5-0.9-2.4-0.9C15.9,30.4,16.5,30.4,16.8,30.4z M20.9,31.9  c0,0.5-1.8,1.2-1.8,1.2h-0.6h-0.6c0,0-1.8-0.7-1.8-1.2s-0.7-0.3-1.7-1.3c0,0,1.2-0.1,1.7,0.4c0.4,0.4,1.5,0.5,2.2,0.8  c0.2,0.1,0.3,0.1,0.5,0c0.7-0.4,1.7-0.4,2.2-0.8c0.5-0.5,1.7-0.4,1.7-0.4C21.6,31.6,20.9,31.3,20.9,31.9z"
     id="path20"
     style="fill:#273839;fill-opacity:1" /></g>
</svg>
