<?xml version="1.0" encoding="UTF-8" standalone="no"?>
<svg
   xmlns:dc="http://purl.org/dc/elements/1.1/"
   xmlns:cc="http://creativecommons.org/ns#"
   xmlns:rdf="http://www.w3.org/1999/02/22-rdf-syntax-ns#"
   xmlns:svg="http://www.w3.org/2000/svg"
   xmlns="http://www.w3.org/2000/svg"
   xmlns:sodipodi="http://sodipodi.sourceforge.net/DTD/sodipodi-0.dtd"
   xmlns:inkscape="http://www.inkscape.org/namespaces/inkscape"
   version="1.1"
   id="Layer_4_1_"
   x="0px"
   y="0px"
   viewBox="0 0 37 37"
   style="enable-background:new 0 0 37 37;"
   xml:space="preserve"
   sodipodi:docname="Wraith_Icon.svg"
   inkscape:version="1.0.1 (3bc2e813f5, 2020-09-07)"><metadata
   id="metadata11"><rdf:RDF><cc:Work
       rdf:about=""><dc:format>image/svg+xml</dc:format><dc:type
         rdf:resource="http://purl.org/dc/dcmitype/StillImage" /><dc:title></dc:title></cc:Work></rdf:RDF></metadata><defs
   id="defs9" /><sodipodi:namedview
   pagecolor="#ffffff"
   bordercolor="#666666"
   borderopacity="1"
   objecttolerance="10"
   gridtolerance="10"
   guidetolerance="10"
   inkscape:pageopacity="0"
   inkscape:pageshadow="2"
   inkscape:window-width="1600"
   inkscape:window-height="837"
   id="namedview7"
   showgrid="false"
   inkscape:zoom="9.2972973"
   inkscape:cx="16.269111"
   inkscape:cy="18.255208"
   inkscape:window-x="-8"
   inkscape:window-y="-8"
   inkscape:window-maximized="1"
   inkscape:current-layer="Layer_4_1_" />
<style
   type="text/css"
   id="style2">
	.st0{fill:#241C1C;}
</style>
<path
   class="st0"
   d="M29.8,7c-0.3-0.6-0.7-0.8-1-1c-0.3-0.2-0.4-0.3-0.4-0.4c-0.1-0.8-1.3-2.1-2.4-2.1c-0.6,0-0.9,0.2-1.2,0.4  C24.7,4,24.6,4,24.5,4c-0.3,0-0.8-0.4-0.9-0.6c0,0,0.1,0,0.2,0c0.2,0,0.5-0.1,0.7-0.4c0.3-0.3,0.3-0.3,1.2-0.3l0.4,0  c0.3,0,0.7,0,0.8-0.3c0.2-0.3,0-0.5-0.2-0.8c-0.1-0.1-0.2-0.3-0.2-0.4c0-0.2-0.1-0.3-0.3-0.3c0,0,0,0,0,0c-0.2,0-0.3,0.1-0.3,0.3  c0,0.3,0.1,0.5,0.3,0.7c0,0.1,0.1,0.1,0.1,0.2c-0.1,0-0.1,0-0.3,0l-0.4,0c-0.9,0-1.1,0-1.6,0.4c-0.1,0.1-0.3,0.2-0.4,0.2  c-0.2,0.1-0.6,0.1-0.6,0.6c0,0.6,0.8,1.2,1.4,1.2c0.3,0,0.5-0.1,0.7-0.3C25.4,4.2,25.6,4,26,4c0.7,0,1.8,1.1,1.8,1.6  c0.1,0.4,0.4,0.7,0.7,0.8c0.3,0.2,0.6,0.4,0.8,0.8c0.5,1,2,7.7,1.8,8.5c-0.5,0.2-1,0.8-1.4,1.2c-0.2,0.2-0.3,0.3-0.5,0.5  c-0.4,0.4-0.5,1.6-0.7,4.2c-0.1,0.8-0.1,1.6-0.2,2.4c-0.1,0.6-0.1,1.1-0.2,1.5c0-0.5,0-1,0-1.6c0-0.3,0-0.6,0-1  c0-1.7-0.3-2.2-0.8-2.3c0,0,0-0.1,0-0.2c0-0.3-0.1-0.7-0.3-1.1c-0.4-0.5-1-0.5-1.4-0.4c0-0.2-0.1-0.5-0.1-1c0-1.1-0.4-1.4-0.6-1.5  l-0.5-0.2l0.1,0.5c0,0.1,0,0.3,0,0.4c-0.6-0.8-2-1.7-3.2-2.5c-0.6-0.4-1.2-0.8-1.4-1c-0.2-0.2-0.2-0.3-0.3-0.3  c-0.2-0.2-0.3-0.3-0.6-0.1c-0.1,0-0.2,0.1-0.4,0.2c-0.6,0.2-1.9,1.2-2.7,2c-0.2,0.8-2.1,3.3-2.9,4.3c-0.8,1-1.5,3.4-1.8,3.8  C11,24,10.9,27,10.9,29.1c0,0.3,0,0.6,0,1c0,0.6,0,1,0,1.1c0,0.2,0.1,0.3,0.2,0.4c-0.1,0-0.2-0.1-0.3-0.3c0,0.4-0.1,0.2-0.3,0  c-0.3-0.2-0.1-2.4-0.1-3c0-0.6-0.4-1.1-0.5-2.6c-0.1-1.5,0.7-2.5,1-3.5s2.1-4.3,2.7-4.8c0.4-0.3,0.5-0.6,0.6-0.7c0-0.1,0-0.1,0-0.2  c-0.2-0.2-0.3-0.5-0.3-0.6c0.1-0.2,0.3-0.5,0.1-0.8c-0.2-0.3-0.6-0.1-0.7-0.1c-2.1,0.4-3.5,2.6-3.8,3.4c-0.1,0.4-0.2,1.7-0.3,3.7  c0,0.4,0,0.9-0.1,1.4c-0.1-0.1-0.1-0.1-0.2-0.1c-0.3,0-0.4,0.3-0.4,0.5c-0.3,1.2,0.1,2.2,0.4,2.9c0,0.1,0.1,0.2,0.1,0.4  C9.1,27.9,9,29.2,9,29.8c0,0.1,0,0.3,0,0.3c0,0.2,0.1,1,0.2,2c0.1,0.6,0.2,1.3,0.2,1.4c0,0.2,0.1,0.3,0.2,0.5  c0.1,0.1,0.3,0.4,0.3,0.5c0,0-0.1,0-0.2,0c-0.6,0-1-2.6-1-4.8c0-1-0.3-2.2-0.3-2.2l-0.1-0.1c-0.3-0.3-0.4-0.9-0.5-1.3  c-0.1-0.3-0.1-0.5-0.2-0.7c-0.2-0.4-0.4-4.6-0.4-5.1c0-0.6-0.5-0.6-0.8-0.6c-0.1,0-0.1,0-0.2,0c-0.2,0-0.2,0-0.3-0.3  c0-0.2,0-0.3,0.1-0.4c0.3-0.2,0.6-0.7,0.6-1.2c0,0-0.2-4.5,0.3-6.4C7.3,10,8.2,8.6,8.8,7.8c0.2-0.2,0.3-0.4,0.4-0.6  c0.3-0.6,1.4-1.5,1.7-1.7c0.2-0.1,0.6-0.2,0.9-0.3L12,5.2c0.6-0.2,0.6-0.6,0.6-1c0-0.1,0-0.1,0-0.1c0,0,0.2,0,0.4,0L13,4  c0.6,0,0.8-0.7,0.8-0.9V1.7h-0.3c-0.9,0-1.2-1.1-1.2-1.1l-0.1-0.2h-0.5c-0.2,0-0.3,0.1-0.3,0.3S11.6,1,11.8,1h0  c0.2,0.5,0.6,1.2,1.4,1.3l0,0.8c0,0.2-0.1,0.4-0.2,0.4l-0.1,0c-0.3,0-0.6,0-0.8,0.2c-0.1,0.1-0.2,0.3-0.2,0.5c0,0.4,0,0.4-0.1,0.5  l-0.2,0.1c-0.3,0.1-0.7,0.2-1,0.3C10.2,5.2,9,6.3,8.6,6.9C8.6,7.1,8.4,7.2,8.3,7.5c-0.6,0.9-1.5,2.3-1.9,3.8c-0.5,2-0.3,6.6-0.3,6.6  c0,0.2-0.2,0.6-0.3,0.7c-0.3,0.2-0.5,0.6-0.4,1c0.1,0.3,0.2,0.6,0.8,0.7c0.1,0,0.2,0,0.3,0c0.1,0,0.2,0,0.2,0c0,0.2,0.2,4.8,0.4,5.3  c0.1,0.1,0.1,0.4,0.2,0.6c0.1,0.5,0.3,1.1,0.6,1.5c0.1,0.3,0.3,1.3,0.3,2c0,0.6,0,5.4,1.6,5.4c0.1,0,0.6,0,0.7-0.3  c0.2-0.3-0.1-0.8-0.3-1.1c-0.1-0.1-0.1-0.2-0.2-0.2c0-0.1-0.1-0.6-0.2-1.4c-0.1-0.8-0.2-1.7-0.2-2c0-0.1,0-0.2,0-0.3  c0-0.3,0-0.6,0-1c0.1,0.2,0.2,0.4,0.3,0.7c0,1.4,0.2,2.5,1.2,2.6c0.2,0,0.3,0,0.4,0c0.8,1.1,1.9,2,2.6,2.7c0.9,0.9,4.3,1.7,4.3,1.7  s3.4-0.8,4.3-1.7c0.9-0.9,2.4-2.3,3.3-3.7c0.5-0.8,1.2-2,1.6-3.2l0,0c0.2-0.1,0.9-0.6,1.2-3.8c0,0,0-0.1,0-0.1c0,0,0,0,0,0  c1.1-2.7,1.9-5.3,1.5-5.7c-0.4-0.3-0.5-0.8-0.5-0.8l0,0c0.1-0.1,0.1-0.1,0.2-0.2c0.4-0.4,0.9-0.9,1.3-1.1c0.1,0,0.2-0.1,0.2-0.3  C32.1,14.9,30.2,7.7,29.8,7z M10.2,19.1c0.4-0.6,1.8-0.5,1.8-0.5s0.1,0.1,0.3,0.2c-0.5,0.8-1,1.9-1.4,2.9c-0.2-0.1-0.3-0.2-0.4-0.3  c-0.1-0.1-0.1-0.2-0.1-0.2l0,0c0,0,0,0,0,0c0,0,0.1-0.1,0.1-0.1c0.3-0.4,0.7-1.2,0.9-1.7c0.2-0.5,0-0.1-0.7-0.1  C10,19.2,10.2,19.1,10.2,19.1z M17.1,28.1c0.4,0,0.7,0.3,0.9,0.3c0.2,0,0.4,0,0.4,0s0.2,0,0.4,0s0.5-0.3,0.9-0.3c0,0,0.1,0.3,0,0.4  s-0.1,0.5-1.3,0.5c-1.2,0-1.2-0.4-1.3-0.5C17.1,28.4,17.1,28.1,17.1,28.1z M12.2,22.6C12.2,22.6,12.2,22.5,12.2,22.6  c0.2-0.7,0.5-1.4,1-2.1c0.2-0.3,0.4-0.5,0.5-0.8c0.8,0.4,1.9,0.8,3.3,0.8c0,0-1.4,2.7-2.3,3.1c0,0-0.3-0.9-0.9-0.9  C13.1,22.6,12.2,22.6,12.2,22.6z M15.9,28.2c-0.7,0-0.5-0.6-0.2-0.6c0.3,0,0.8,0,0.8,0S16.6,28.2,15.9,28.2z M18.4,33.5  c-0.5,0-1.3,0.1-1.3-0.2c0-0.3,0-0.8,0.3-0.8c0.3,0,1,0,1,0h1.3c0,0,0.1,0,0.1,0.4C19.8,33.2,18.9,33.5,18.4,33.5z M22.5,31.3  C22,31.3,22,31,21.8,31c-0.2,0-0.4,0.3-1.1,0.3s-1.8,0-2.3,0.1c-0.5-0.1-1.5-0.1-2.3-0.1S15.3,31,15.1,31c-0.2,0-0.2,0.3-0.7,0.3  c-0.4,0-0.5-0.3-0.5-0.4c0-0.1,0.3-0.6,1-0.6s0.5,0.4,1,0.4c0.6,0,0.9-0.5,1.5-0.5c0.6,0,0.5,0.3,0.7,0.3s0.3,0,0.3,0s0,0,0.3,0  s0.1-0.3,0.7-0.3c0.6,0,1,0.5,1.5,0.5s0.4-0.4,1-0.4s1,0.4,1,0.6C23,31.1,22.9,31.3,22.5,31.3z M20.3,27.6c0,0,0.5,0,0.8,0  c0.3,0,0.5,0.6-0.2,0.6C20.3,28.2,20.3,27.6,20.3,27.6z M26.4,21.4c-0.4,0.4-1.7,1.2-1.7,1.2s-0.9,0-1.5,0c-0.6,0-0.9,0.9-0.9,0.9  c-1-0.4-2.3-3.1-2.3-3.1c3.2,0,5-1.9,5-1.9s0,0.6,0,0.9c0,0.3-1,0.8-1,0.8c0.2,0.1,1.2,0.7,1.7,0.7C26.1,20.9,26.8,21,26.4,21.4z   M30,20.1c-0.3,0.9-0.6,1.6-0.7,2.5c0,0-0.6,0-0.2-1.8c0.4-1.9,0.1-1.4,0.4-2.1c0,0-0.1,1.2,0.1,1.1C29.8,19.7,30.3,19.3,30,20.1z"
   id="path4"
   style="fill:#273839;fill-opacity:1" />
</svg>
